<svg width="31" height="30" viewBox="0 0 31 30" fill="none" xmlns="http://www.w3.org/2000/svg">
<path d="M0 13.8124C0.0188107 13.5984 0.0376212 13.3844 0.0564319 13.1898C0.0940533 12.898 0.225728 12.6645 0.376214 12.4311C0.489078 12.2559 0.54551 12.0614 0.56432 11.8474C0.583131 11.3026 0.677184 10.7578 0.771238 10.2325C0.902912 9.41534 1.10983 8.61764 1.37318 7.85884C1.67415 7.02223 2.05036 6.20507 2.53944 5.46573C2.76517 5.11552 2.97209 4.74585 3.19782 4.39564C3.55522 3.85086 3.95024 3.345 4.4017 2.87805C4.68386 2.58621 4.9284 2.29437 5.21056 2.00252C5.49272 1.73014 5.77488 1.45775 6.11347 1.26319C6.28277 1.16591 6.47087 1.08808 6.65898 1.01026C7.09163 0.835153 7.48665 0.562765 7.88168 0.309834C8.03216 0.193097 8.20146 0.115273 8.38956 0.0374479C8.65291 -0.0598331 8.76578 0.037448 8.89745 0.270923C8.93507 0.329291 8.93507 0.426572 8.91626 0.484941C8.89745 0.582222 8.84102 0.660047 8.8034 0.757328C8.76578 0.854609 8.74697 0.932433 8.78459 1.02971C8.84102 1.127 8.87864 1.22428 8.95388 1.3021C9.02913 1.41884 9.06675 1.53558 9.06675 1.67177C9.06675 1.86633 9.29248 2.02198 9.46177 1.9247C9.78156 1.74959 10.1013 1.55503 10.4399 1.39938C10.628 1.3021 10.8161 1.24373 11.0231 1.16591C11.23 1.08808 11.4557 0.990802 11.6626 0.893521C11.7567 0.854608 11.8319 0.757327 11.926 0.698959C12.02 0.621134 12.1329 0.543309 12.2269 0.465485C12.321 0.407116 12.4151 0.387659 12.5091 0.446028C12.7725 0.601678 13.017 0.582222 13.2803 0.484941C13.5437 0.407116 13.8259 0.38766 14.0892 0.368204C14.4278 0.348747 14.7664 0.329291 15.105 0.329291C15.3119 0.329291 15.5188 0.368203 15.7257 0.407115C15.8574 0.426572 15.895 0.504397 15.895 0.660047C15.895 0.776784 15.8574 0.854609 15.7445 0.874065C15.4812 0.95189 15.2178 1.02971 14.9357 1.06863C14.5783 1.10754 14.2397 1.18536 13.8823 1.26319C13.6189 1.32156 13.3556 1.36047 13.111 1.4383C12.622 1.59394 12.1141 1.76905 11.625 1.96361C11.3052 2.06089 11.0042 2.236 10.7221 2.43056C10.4211 2.62512 10.1201 2.81969 9.81918 2.99479C9.31129 3.26718 8.93507 3.67576 8.59648 4.12325C8.48362 4.2789 8.35194 4.43455 8.25789 4.5902C8.18265 4.70694 8.1074 4.82368 8.06978 4.95987C7.97573 5.2128 7.80643 5.36845 7.63714 5.56301C7.50546 5.71866 7.37379 5.85485 7.26092 6.0105C7.16687 6.12724 7.07282 6.26344 6.97876 6.39963C6.8659 6.55528 6.73422 6.69147 6.62136 6.84712C6.48968 7.04168 6.3392 7.23624 6.20753 7.43081C5.9818 7.78102 5.77488 8.15069 5.47391 8.46199C5.34223 8.59818 5.26699 8.79274 5.21056 8.9873C5.1165 9.27915 4.98483 9.57099 4.87197 9.86283C4.79672 10.0963 4.70267 10.3492 4.66505 10.6022C4.571 11.0691 4.51456 11.5361 4.43932 12.0225C4.4017 12.2754 4.45813 12.5089 4.53337 12.7424C4.60862 13.0147 4.62743 13.2871 4.60862 13.5595C4.58981 13.7152 4.62743 13.8514 4.60862 14.007C4.58981 14.1627 4.58981 14.3183 4.53337 14.474C4.36408 14.9214 4.30765 15.3884 4.36408 15.8748C4.4017 16.225 4.45813 16.5558 4.571 16.8865C4.68386 17.2756 4.79672 17.6648 4.90959 18.0734C5.02245 18.4819 5.17294 18.8711 5.36104 19.2407C5.43629 19.3964 5.56796 19.552 5.66201 19.7077C5.77488 19.9217 5.90655 20.1357 6.00061 20.3497C6.20753 20.8167 6.48968 21.2253 6.80947 21.5949C6.94114 21.77 7.05401 21.9646 7.20449 22.1397C7.35498 22.3148 7.52427 22.4705 7.69357 22.6261C7.90049 22.8207 8.12621 23.0152 8.35194 23.2098C8.61529 23.4238 8.87864 23.6184 9.14199 23.8324C9.27367 23.9297 9.40534 24.027 9.53702 24.1048C9.72512 24.2021 9.89442 24.2993 10.0825 24.3966C10.3835 24.5523 10.7033 24.6885 11.0042 24.8441C11.2864 24.9803 11.5309 25.136 11.8507 25.1749C12.0953 25.2138 12.3586 25.2527 12.6032 25.3111C12.7913 25.35 12.9982 25.4083 13.1863 25.4862C13.2992 25.5251 13.412 25.5835 13.5061 25.6613C13.7882 25.8947 14.1833 25.8753 14.5218 25.992C14.7664 26.0893 15.0109 26.1866 15.2555 26.2839C15.5376 26.3812 15.801 26.4979 16.0831 26.5952C16.196 26.6341 16.3089 26.7703 16.3089 26.8676C16.3277 27.0232 16.2524 27.1205 16.1019 27.1594C15.9138 27.1983 15.7445 27.2372 15.5564 27.2761C15.1614 27.3151 14.7664 27.3734 14.3714 27.3929C13.9951 27.4123 13.6001 27.4123 13.2239 27.354C12.8665 27.2956 12.5279 27.3345 12.1893 27.354C11.7379 27.3734 11.324 27.2567 10.9478 26.9843C10.7221 26.8286 10.4964 26.673 10.3083 26.4784C10.233 26.4006 10.1578 26.3228 10.1013 26.2255C9.91323 25.9726 9.6875 25.778 9.40534 25.6418C9.31129 25.6029 9.19842 25.5835 9.12318 25.6418C9.01032 25.7391 8.91626 25.8169 8.95388 25.992C8.9727 26.0504 8.97269 26.1088 8.97269 26.1671C8.97269 26.3617 9.08556 26.5173 9.19842 26.6535C9.34891 26.8676 9.55583 27.0427 9.64988 27.2956C9.70631 27.4318 9.70631 27.5485 9.63107 27.6847C9.48058 27.9377 9.23605 28.0349 8.89745 27.996C8.57767 27.9571 8.29551 27.8015 8.03216 27.6264C7.86286 27.5096 7.71238 27.4123 7.56189 27.2761C7.44903 27.1789 7.35498 27.0621 7.24211 26.9648C7.14806 26.8676 7.0352 26.8092 6.94114 26.7119C6.79066 26.5757 6.64017 26.4201 6.47087 26.2644C6.11347 25.9337 5.75607 25.6029 5.41748 25.2527C5.0977 24.9219 4.77791 24.5717 4.47694 24.2215C4.0443 23.7351 3.66808 23.2098 3.32949 22.6456C2.95328 22.0035 2.57706 21.342 2.33252 20.6221C2.2949 20.5248 2.27609 20.4081 2.25728 20.3108C2.21966 20.0968 2.35133 19.8828 2.55825 19.8439C2.6335 19.8244 2.74636 19.8633 2.8216 19.9217C2.93447 19.9995 3.04733 20.0968 3.16019 20.1746C3.29187 20.2524 3.36711 20.2135 3.3483 20.0773C3.32949 19.8633 3.44235 19.7271 3.49879 19.552C3.5176 19.4742 3.57403 19.4158 3.59284 19.338C3.61165 19.2407 3.63046 19.1434 3.61165 19.0462C3.55522 18.7932 3.46117 18.5208 3.38592 18.2679C3.32949 18.0928 3.19782 17.9566 3.02852 17.8982C2.91566 17.8399 2.80279 17.8982 2.72755 17.9761C2.57706 18.1123 2.44539 18.2679 2.31371 18.4041C2.06917 18.657 1.7682 18.6765 1.48604 18.4625C1.27913 18.3068 1.12864 18.0928 1.03459 17.8399C0.790049 17.1978 0.620753 16.5169 0.54551 15.8359C0.507889 15.583 0.413835 15.33 0.319782 15.0966C0.206918 14.7853 0.150486 14.474 0.131675 14.1432C0.0188108 13.9681 0.0188107 13.8903 0 13.8124ZM6.15109 23.2487C6.15109 23.2292 6.1699 23.2292 6.1699 23.2098C6.11347 23.1514 6.05704 23.0736 6.01942 23.0152C5.90655 22.7428 5.71845 22.5288 5.54915 22.2954C5.4551 22.1592 5.22937 22.1592 5.13532 22.2759C5.04126 22.3926 5.00364 22.7818 5.1165 22.9569C5.2858 23.2098 5.53034 23.2487 5.79369 23.2682C5.85012 23.2682 5.90655 23.2098 5.9818 23.2098C6.03823 23.2098 6.09466 23.2292 6.15109 23.2487Z" fill="black"/>
<path d="M26.7113 19.7855C26.7678 19.5131 26.843 19.2407 26.9182 18.9683C26.9371 18.9294 26.9182 18.871 26.9182 18.8127C26.8994 18.4819 27.0123 18.1901 27.1252 17.8982C27.2945 17.4702 27.4261 17.0227 27.5954 16.5947C27.6519 16.4585 27.7083 16.3417 27.7647 16.2055C27.8023 16.0888 27.84 15.9721 27.84 15.8553C27.84 15.5246 27.9152 15.2133 28.0093 14.902C28.0657 14.7074 28.0845 14.5128 28.1033 14.2988C28.1221 14.1043 28.1409 13.9097 28.1409 13.7151C28.1409 13.5789 28.1409 13.4428 28.1409 13.3066C28.1409 13.112 28.1598 12.898 28.1598 12.7034C28.1409 12.0808 28.0657 11.4777 27.9152 10.8745C27.8023 10.427 27.6895 9.99901 27.5202 9.57097C27.3321 9.12348 27.2004 8.67599 27.0123 8.22849C26.7678 7.64481 26.5044 7.06112 26.1658 6.51635C25.8084 5.97157 25.451 5.4268 25.0372 4.94039C24.4917 4.33725 23.9085 3.75357 23.2878 3.2477C22.968 2.99477 22.6294 2.7613 22.2908 2.56674C21.8017 2.27489 21.275 2.02196 20.7672 1.76903C20.3533 1.57447 19.9207 1.39936 19.5068 1.22426C19.4692 1.2048 19.4504 1.18535 19.4128 1.16589C19.2811 1.08807 19.2811 1.06861 19.2999 0.91296C19.3187 0.815679 19.394 0.776767 19.488 0.757311C19.7702 0.718398 20.0335 0.815679 20.2969 0.932416C20.3721 0.951872 20.4286 0.990785 20.5038 1.01024C20.9553 1.12698 21.3879 1.32154 21.7829 1.55501C22.573 1.98305 23.3442 2.43054 24.1155 2.89749C24.661 3.22825 25.15 3.65628 25.6015 4.12323C25.7708 4.29834 25.9213 4.47345 26.0906 4.64855C26.147 4.70692 26.2223 4.74583 26.2975 4.8042C26.3727 4.84311 26.4292 4.82366 26.4856 4.76529C26.542 4.70692 26.5232 4.64855 26.4856 4.59018C26.448 4.4929 26.3915 4.39562 26.3539 4.29834C26.3351 4.23997 26.3351 4.16215 26.3539 4.10378C26.3915 3.98704 26.542 3.94813 26.6361 4.02595C27.1064 4.45399 27.5202 4.90148 27.8212 5.46571C27.8964 5.60191 27.9528 5.7381 28.0093 5.87429C28.0469 5.95212 28.0657 6.01049 28.0093 6.08831C27.934 6.16614 27.84 6.20505 27.7459 6.18559C27.7083 6.18559 27.6519 6.14668 27.6142 6.14668C27.5202 6.12722 27.4826 6.16613 27.5014 6.26342C27.539 6.51635 27.6331 6.74982 27.7459 6.9833C27.9528 7.39188 28.1598 7.80046 28.3479 8.20904C28.5172 8.59816 28.6488 8.98729 28.7805 9.39587C28.8181 9.5126 28.8934 9.49315 28.9686 9.49315C29.0439 9.49315 29.1191 9.49315 29.1567 9.37641C29.2131 9.2013 29.3448 9.12348 29.4953 9.18185C29.5329 9.2013 29.5706 9.24021 29.5894 9.27913C29.6834 9.57097 29.7963 9.84336 29.8715 10.1547C29.9844 10.5438 30.0784 10.9524 30.1537 11.3415C30.2101 11.6139 30.2477 11.9057 30.3042 12.1781C30.3606 12.4116 30.4358 12.6256 30.5111 12.8396C30.5863 13.0536 30.6616 13.2871 30.7368 13.5011C30.7744 13.5984 30.8121 13.7151 30.8121 13.8124C30.8121 13.9486 30.7744 14.1237 30.6992 14.2405C30.5487 14.4934 30.3606 14.7463 30.1725 14.9798C30.0972 15.0771 30.0032 15.0965 29.8903 15.1354C29.721 15.1938 29.5706 15.3106 29.5141 15.5051C29.4765 15.6608 29.4201 15.8164 29.4201 15.9721C29.4201 16.1666 29.5329 16.3223 29.6646 16.4779C29.8715 16.7114 30.0032 16.9838 30.0408 17.3145C30.0784 17.6064 30.0408 17.8593 29.9091 18.1122C29.8151 18.3068 29.721 18.5208 29.627 18.7154C29.4953 18.9878 29.3072 19.1823 29.0062 19.2991C28.8934 19.338 28.7805 19.4158 28.6676 19.4742C28.63 19.4936 28.5736 19.5131 28.536 19.5325C28.5172 19.5325 28.4983 19.552 28.4795 19.5715C28.3667 19.6687 28.2726 19.7855 28.1598 19.8633C28.0093 19.9606 27.84 20.233 27.7083 20.3692C27.5202 20.5832 27.3321 20.661 27.1064 20.8361C26.9182 20.9723 26.6361 20.8361 26.5985 20.5832C26.5797 20.5637 26.6737 19.98 26.7113 19.7855Z" fill="black"/>
<path d="M15.7258 30C15.4813 29.9611 15.2367 29.9027 14.9922 29.8832C14.616 29.8249 14.2398 29.7859 13.8636 29.747C13.4873 29.7081 13.1299 29.6887 12.7725 29.533C12.528 29.4163 12.3023 29.2412 12.1142 29.0466C12.0765 29.0077 12.0389 28.9688 11.9825 28.9104C11.8884 28.7937 11.8696 28.7159 11.9449 28.5797C12.0013 28.4824 12.0954 28.424 12.227 28.4435C12.3587 28.4824 12.4904 28.5213 12.6409 28.5407C12.7725 28.5602 12.923 28.5602 13.0547 28.5213C13.2428 28.4824 13.4121 28.5018 13.5814 28.6186C13.6754 28.6769 13.7883 28.7548 13.8824 28.7937C14.315 28.9688 14.7477 29.0855 15.1803 28.8131C15.5377 28.5991 15.8763 28.6186 16.2337 28.7548C16.4218 28.8326 16.6287 28.8521 16.8356 28.8131C17.1742 28.7548 17.5128 28.6964 17.8514 28.638C18.0207 28.6186 18.19 28.6186 18.3405 28.638C18.6791 28.6964 19.0177 28.638 19.3375 28.5407C19.582 28.4629 19.8265 28.3851 20.0711 28.3073C20.3909 28.21 20.7106 28.0738 21.0304 27.9765C21.275 27.8987 21.5195 27.8403 21.764 27.9571C21.8393 27.9765 21.8205 28.0349 21.7829 28.0543C21.7076 28.1322 21.6324 28.21 21.5383 28.2684C21.4255 28.3462 21.3126 28.424 21.1997 28.4824C20.9928 28.5797 20.7671 28.6769 20.5602 28.7742C20.1651 28.9299 19.7889 29.105 19.3939 29.2412C18.7543 29.4746 18.1148 29.6887 17.4564 29.8249C17.2683 29.8638 17.0802 29.8638 16.9109 29.8832C16.6852 29.9027 16.4782 29.9221 16.2525 29.9416C16.102 29.9805 15.9327 30 15.7258 30Z" fill="black"/>
<path d="M7.76909 21.4393C7.6186 21.4198 7.50574 21.3031 7.41169 21.1474C7.35525 21.0501 7.33644 20.9723 7.37406 20.875C7.4305 20.7194 7.50574 20.661 7.65623 20.661C7.82552 20.661 8.10768 20.8945 8.1453 21.0696C8.1453 21.089 8.1453 21.1085 8.1453 21.128C8.1453 21.2642 7.93839 21.4393 7.76909 21.4393Z" fill="black"/>
<path d="M10.6642 28.1322C10.6642 28.2684 10.4949 28.424 10.3633 28.424C10.2504 28.424 10.0435 28.2684 10.0059 28.1517C10.0059 28.1322 10.0059 28.1127 10.0059 28.0933C10.0247 27.8793 10.2504 27.7625 10.4385 27.8598C10.5514 27.9182 10.6454 28.0155 10.6642 28.1322Z" fill="black"/>
<path d="M8.74707 14.9799H9.81928V17.3924L11.2677 14.9799H12.434L10.8915 17.4508L12.5656 20.9918H11.3053L10.1579 18.4625L9.81928 19.0268V21.0113H8.74707V14.9799Z" fill="black"/>
<path d="M15.0483 19.8245H13.6563L13.3742 20.9724H12.3584L13.8821 14.9799H14.9543L16.4779 20.9724H15.3493L15.0483 19.8245ZM13.9573 18.6376H14.7474L14.3523 16.8477L13.9573 18.6376Z" fill="black"/>
<path d="M15.6885 14.9799H16.8735L17.8141 19.0073L18.717 14.9799H19.7892L18.3032 20.9724H17.231L15.6885 14.9799Z" fill="black"/>
<path d="M21.2183 18.7349L19.6758 14.9799H20.9173L21.7826 17.2173L22.6102 14.9799H23.7389L22.3093 18.7349V20.9724H21.2371V18.7349H21.2183Z" fill="black"/>
<path d="M10.3272 14.3767C10.0262 14.3767 9.76288 14.3183 9.51834 14.2016C9.2738 14.0848 9.06688 13.9097 8.87877 13.6568C8.70948 13.4039 8.55899 13.0926 8.46494 12.7034C8.37089 12.3143 8.31445 11.8474 8.31445 11.2831V11.1275C8.31445 10.6022 8.37089 10.1547 8.46494 9.76555C8.55899 9.39588 8.70948 9.08458 8.89759 8.83165C9.08569 8.59817 9.29261 8.42307 9.53715 8.30633C9.78169 8.18959 10.045 8.13123 10.3272 8.13123C10.5717 8.13123 10.8163 8.17014 11.042 8.24796C11.2677 8.32579 11.4558 8.46198 11.6251 8.61763C11.7944 8.79274 11.9261 9.00675 12.039 9.27914C12.1518 9.55153 12.2083 9.88228 12.2271 10.2909H11.0796C11.0608 10.1352 11.0232 9.99902 10.9856 9.88228C10.9479 9.76555 10.8915 9.68772 10.8163 9.6099C10.741 9.53207 10.6846 9.49316 10.5905 9.45425C10.5153 9.41533 10.4213 9.41533 10.346 9.41533C10.2143 9.41533 10.1015 9.45425 10.0074 9.51262C9.89455 9.57098 9.81931 9.66827 9.74407 9.80446C9.66882 9.94065 9.61239 10.1158 9.55596 10.3298C9.51834 10.5438 9.49953 10.8162 9.49953 11.1275V11.3026C9.49953 11.6333 9.51834 11.9057 9.57477 12.1392C9.6312 12.3727 9.68763 12.5478 9.76288 12.684C9.83812 12.8202 9.93217 12.9175 10.0262 12.9758C10.1203 13.0342 10.2331 13.0731 10.346 13.0731C10.5529 13.0731 10.7222 12.9953 10.8539 12.8591C10.9856 12.7229 11.0608 12.4894 11.0796 12.1781H12.2271C12.2083 12.5867 12.1518 12.9175 12.0578 13.1898C11.9637 13.4622 11.8321 13.6957 11.6628 13.8513C11.4935 14.0265 11.3054 14.1432 11.0796 14.221C10.8163 14.3378 10.5717 14.3767 10.3272 14.3767Z" fill="black"/>
<path d="M12.6592 8.2674H13.769V13.0925H15.4055V14.2599H12.6592V8.2674Z" fill="black"/>
<path d="M17.5122 14.3766C17.23 14.3766 16.9667 14.3183 16.7221 14.221C16.4964 14.1237 16.2895 13.9486 16.1202 13.754C15.9509 13.54 15.838 13.2871 15.744 12.9758C15.6499 12.6645 15.6123 12.2948 15.6123 11.8862V8.2674H16.7221V11.6917C16.7221 12.1586 16.7786 12.5088 16.8914 12.7423C17.0043 12.9758 17.2112 13.0925 17.4934 13.0925C17.7943 13.0925 17.9824 12.9758 18.0953 12.7423C18.2082 12.5088 18.2646 12.1586 18.2646 11.6917V8.2674H19.3744V11.8668C19.3744 12.2754 19.3368 12.645 19.2428 12.9563C19.1487 13.2676 19.0358 13.54 18.8666 13.7346C18.6973 13.9486 18.5092 14.1043 18.2646 14.2015C18.0765 14.3183 17.8132 14.3766 17.5122 14.3766Z" fill="black"/>
<path d="M19.8828 8.2674H21.952C22.4599 8.2674 22.8361 8.40359 23.0618 8.67598C23.2875 8.94836 23.4004 9.35694 23.4004 9.8628C23.4004 10.1741 23.344 10.427 23.2311 10.6605C23.1183 10.8745 22.9678 11.0302 22.7608 11.1275C23.0242 11.2053 23.2123 11.3609 23.3628 11.6139C23.5133 11.8473 23.5885 12.1781 23.5885 12.5672C23.5885 13.0925 23.4568 13.5011 23.2123 13.8124C22.9678 14.1237 22.5539 14.2599 22.0084 14.2599H19.8828V8.2674ZM21.6886 10.6411C21.9332 10.6411 22.0837 10.5827 22.1777 10.4854C22.253 10.3881 22.3094 10.2325 22.3094 10.0379C22.3094 9.84335 22.2718 9.6877 22.1777 9.59042C22.1025 9.49314 21.9332 9.43477 21.7074 9.43477H21.0115V10.6411H21.6886ZM21.7827 13.0731C22.046 13.0731 22.2341 13.0147 22.347 12.898C22.4411 12.7812 22.4975 12.6061 22.4975 12.3727C22.4975 12.1392 22.4411 11.9641 22.347 11.8473C22.2341 11.7306 22.046 11.6722 21.7827 11.6722H21.0303V13.0536H21.7827V13.0731Z" fill="black"/>
</svg>
