<svg width="29" height="30" viewBox="0 0 29 30" fill="none" xmlns="http://www.w3.org/2000/svg">
<path d="M10.2631 9.98633C11.0808 9.53613 11.6941 8.96314 12.1439 8.22644C12.5936 7.48974 12.798 6.58933 12.798 5.60707C12.798 4.54295 12.5527 3.60161 12.0621 2.82398C11.5714 2.00543 10.8355 1.39151 9.93599 0.982236C9.0365 0.572959 7.93257 0.327393 6.70599 0.327393H0.205078V10.9277V14.3247H4.74345V10.9277H6.05181L8.25966 14.3247H13.0842L10.8764 10.9277L10.2631 9.98633ZM6.05181 8.39015C5.35674 8.55386 4.82522 8.43108 4.41636 8.14458C4.25281 8.0218 4.17104 7.85809 4.13015 7.61252C4.08927 7.36696 4.13015 6.99861 4.17104 6.30284C4.21193 5.48428 4.25281 4.95222 4.2937 4.78851C4.37547 4.58387 4.53902 4.42016 4.78433 4.25645C5.27497 3.92903 5.80649 3.80625 6.29712 3.92903C6.78776 4.05181 7.52371 4.33831 7.89168 4.87037C8.34143 5.60707 8.34143 6.34377 7.89168 7.16232C7.72814 7.48974 7.64637 7.69438 7.60548 7.77623C7.44194 8.06273 6.74687 8.22644 6.05181 8.39015Z" fill="black"/>
<path d="M25.1044 0.941337C23.9596 0.327422 22.6512 0 21.2202 0C19.7892 0 18.4808 0.327422 17.336 0.941337C16.1912 1.55525 15.2917 2.45566 14.6375 3.56071C13.9833 4.66576 13.6562 5.93452 13.6562 7.32606C13.6562 8.63575 13.9425 9.82265 14.5149 10.8868C14.5557 10.9686 14.5966 11.0096 14.6375 11.0914C15.2917 12.1965 16.1912 13.0559 17.336 13.7108C18.4808 14.3247 19.7892 14.6521 21.2202 14.6521C22.6512 14.6521 23.9596 14.3247 25.1044 13.7108C26.2492 13.0969 27.1487 12.1965 27.8029 11.0914C27.8438 11.0096 27.8847 10.9686 27.9255 10.8868C28.4979 9.82265 28.7841 8.63575 28.7841 7.32606C28.7841 5.93452 28.4571 4.66576 27.8029 3.56071C27.1487 2.45566 26.2492 1.59618 25.1044 0.941337ZM21.2202 3.88813C21.7926 3.88813 22.365 3.92906 22.7739 4.29741C23.7551 5.15689 24.3684 6.01637 24.3684 7.32606C24.3684 8.10369 24.0005 8.75853 23.5916 9.33152C22.9783 10.1501 22.1606 10.9686 21.2202 10.764C20.3616 10.5593 19.6665 10.3956 19.0941 9.78172C18.4808 9.16781 18.1128 8.2674 18.1128 7.32606C18.072 5.40246 19.4212 3.88813 21.2202 3.88813Z" fill="black"/>
<path d="M11.4481 16.2483C10.3033 15.6344 8.99497 15.307 7.56395 15.307C6.13293 15.307 4.82457 15.6344 3.67976 16.2483C2.53494 16.8623 1.63545 17.7627 0.981269 18.8677C0.32709 19.9728 0 21.2415 0 22.6331C0 23.9428 0.286204 25.1706 0.858611 26.2347C0.899497 26.3166 0.940382 26.3575 0.940382 26.4393C1.59456 27.5444 2.49406 28.4039 3.63887 29.0587C4.78369 29.6726 6.09205 30.0001 7.52306 30.0001C8.95408 30.0001 10.2624 29.6726 11.4073 29.0587C12.5521 28.4448 13.4516 27.5444 14.1057 26.4393C14.1466 26.3984 14.1875 26.3166 14.1875 26.2347C14.7599 25.1706 15.0461 23.9837 15.0461 22.6331C15.0461 21.2415 14.719 19.9728 14.0649 18.8677C13.4924 17.7217 12.593 16.8623 11.4481 16.2483ZM5.35609 20.8732C6.05116 19.8909 6.828 19.3179 7.72749 19.1951C8.0137 19.1951 8.5861 19.5635 9.4856 20.2183C10.3851 20.9141 10.4669 21.2824 10.4669 21.5689C10.794 22.5921 10.2624 23.9837 9.24028 24.7613C7.89104 25.7436 6.74622 26.071 5.51964 25.7436C4.78369 25.3752 4.37482 24.5567 4.37482 23.6972C4.37482 22.7968 4.70191 21.8554 5.35609 20.8732Z" fill="black"/>
<path d="M22.5286 19.4815C22.8557 19.2769 23.1419 19.195 23.5099 19.195C23.5508 19.195 23.5917 19.195 23.6325 19.195H24.0823H28.2527V15.6343H17.377V26.2346V29.6316H21.9153V26.2346H27.5167V22.6739C27.5167 22.6739 25.0227 22.6739 24.4503 22.6739C23.5508 22.7148 22.9784 22.7148 22.7739 22.6739C22.5695 22.633 22.3651 22.4693 22.1606 22.2237C21.7518 21.7735 21.6291 21.3233 21.7518 20.8322C21.7518 20.3001 21.9971 19.8499 22.5286 19.4815Z" fill="black"/>
</svg>
