<svg width="146" height="80" viewBox="0 0 146 80" fill="none" xmlns="http://www.w3.org/2000/svg">
<path d="M44.7598 59.5866C44.7598 59.4152 44.7059 59.2781 44.5931 59.1753C44.4804 59.0724 44.3235 59.0087 44.1176 58.9892C43.9118 58.9696 43.7353 58.999 43.6029 59.0724C43.4706 59.1508 43.4069 59.2683 43.4069 59.425L42.1225 59.3075C42.1225 58.8716 42.3039 58.5337 42.6667 58.2937C43.0294 58.0537 43.4902 57.9607 44.0539 58.0146C44.6716 58.0733 45.1618 58.2399 45.5147 58.519C45.8676 58.7982 46.0441 59.1606 46.0441 59.6062C46.0441 59.8217 45.9804 60.0127 45.8529 60.1792C45.7255 60.3457 45.5441 60.4731 45.3088 60.5563C45.8578 60.8012 46.1323 61.1979 46.1323 61.7513C46.1323 62.1921 45.9412 62.53 45.5637 62.7553C45.1863 62.9854 44.6814 63.0687 44.0539 63.0099C43.4706 62.9561 42.9902 62.7748 42.6127 62.4663C42.2353 62.1578 42.049 61.7709 42.049 61.3056L43.3333 61.4232C43.3333 61.5848 43.4069 61.7268 43.549 61.8394C43.6961 61.9521 43.8823 62.0206 44.1176 62.0451C44.3529 62.0696 44.5245 62.0304 44.652 61.9325C44.7794 61.8394 44.8431 61.7023 44.8431 61.5309C44.8431 61.3203 44.7843 61.1636 44.6618 61.0608C44.5392 60.9579 44.3578 60.8942 44.1176 60.8747L43.4216 60.811V59.9735L44.1618 60.0421C44.5637 60.0666 44.7598 59.9148 44.7598 59.5817V59.5866Z" fill="#E7392F"/>
<path d="M46.902 57.1183C46.902 56.9273 46.9657 56.7706 47.0931 56.658C47.2206 56.5453 47.3971 56.5013 47.6177 56.5209C47.8382 56.5405 48.0098 56.6188 48.1422 56.7559C48.2745 56.8931 48.3382 57.0596 48.3382 57.2506C48.3382 57.4416 48.2745 57.5983 48.1422 57.7109C48.0098 57.8236 47.8382 57.8676 47.6177 57.8481C47.3971 57.8285 47.2255 57.7501 47.0931 57.613C46.9608 57.4759 46.8971 57.3093 46.8971 57.1134L46.902 57.1183ZM48.2647 63.3136L46.9755 63.196V58.377L48.2647 58.4994V63.3184V63.3136Z" fill="#E7392F"/>
<path d="M54.5196 62.3781L55.7745 59.1997L57.3824 59.3516V64.1657L56.098 64.0482V61.095L54.9461 63.9404L54.0833 63.8621L52.9559 60.8502V63.7592L51.6716 63.6417V58.8226L53.2647 58.9696L54.5147 62.383L54.5196 62.3781Z" fill="#E7392F"/>
<path d="M62.6667 64.6505L61.3775 64.533V62.6866L59.7843 62.5397V64.386L58.5 64.2685V59.4543L59.7843 59.5768V61.5064L61.3775 61.6533V59.7237L62.6667 59.8461V64.6554V64.6505Z" fill="#E7392F"/>
<path d="M63.4608 62.2753C63.4608 61.8002 63.5539 61.3791 63.7353 61.0265C63.9167 60.6689 64.1814 60.4045 64.5294 60.2331C64.8725 60.0617 65.2745 59.9931 65.7304 60.0372C66.3774 60.0959 66.9069 60.3457 67.3186 60.7816C67.7304 61.2175 67.9559 61.7758 68.0049 62.4614L68.0147 62.7895C68.0147 63.5241 67.8088 64.0971 67.3971 64.5085C66.9853 64.915 66.4314 65.0864 65.7402 65.0227C65.049 64.9591 64.4951 64.6848 64.0833 64.2C63.6716 63.7151 63.4657 63.0932 63.4657 62.3292V62.2704L63.4608 62.2753ZM64.7451 62.4859C64.7451 62.9413 64.8333 63.2989 65.0049 63.5584C65.1765 63.818 65.4216 63.96 65.7402 63.9894C66.0588 64.0188 66.2941 63.9208 66.4706 63.7004C66.6471 63.4801 66.7353 63.103 66.7353 62.5789C66.7353 62.1284 66.6471 61.7758 66.4706 61.5113C66.2941 61.2468 66.049 61.0999 65.7353 61.0705C65.4216 61.0411 65.1765 61.1391 65.0049 61.3693C64.8333 61.5995 64.7451 61.9668 64.7451 62.481V62.4859Z" fill="#E7392F"/>
<path d="M70.1961 62.3879L70.8872 62.4516C70.9804 61.8639 71.2255 61.4133 71.6225 61.1048C72.0196 60.7963 72.5147 60.6689 73.1176 60.7277C73.7647 60.7865 74.2941 61.0362 74.7059 61.4721C75.1176 61.908 75.3431 62.4663 75.3922 63.1519L75.402 63.4801C75.402 64.2147 75.1961 64.7877 74.7843 65.1941C74.3725 65.6006 73.8186 65.772 73.1274 65.7084C72.5049 65.6496 71.9902 65.4194 71.5931 65.0227C71.1961 64.626 70.9559 64.1118 70.8774 63.485L70.1961 63.4213V65.3509L68.9069 65.2333V60.4241L70.1961 60.5465V62.3879ZM72.1323 63.1764C72.1323 63.6319 72.2206 63.9894 72.3921 64.2489C72.5637 64.5085 72.8088 64.6505 73.1274 64.6799C73.4461 64.7093 73.6912 64.6114 73.8627 64.3861C74.0343 64.1608 74.1225 63.7886 74.1225 63.2695C74.1225 62.8238 74.0343 62.4663 73.8627 62.2067C73.6863 61.9423 73.4412 61.8002 73.1225 61.766C72.8039 61.7317 72.5637 61.8345 72.3921 62.0647C72.2206 62.2949 72.1323 62.6622 72.1323 63.1764Z" fill="#E7392F"/>
<path d="M50.5392 71.5902L49.25 71.4727V67.6919L47.6422 67.5449V71.3257L46.3578 71.2082V66.3892L50.5392 66.7761V71.5951V71.5902Z" fill="#E7392F"/>
<path d="M55.848 69.7145C55.848 70.454 55.6814 71.0319 55.3431 71.4481C55.0049 71.8644 54.5539 72.0456 53.9804 71.9917C53.4951 71.9477 53.1029 71.742 52.8039 71.3747V73.6422L51.5196 73.5246V66.8544L52.7108 66.967L52.7549 67.4421C53.0637 67.0943 53.4706 66.9474 53.9706 66.9915C54.5637 67.0454 55.0245 67.3098 55.3529 67.78C55.6814 68.2501 55.848 68.8721 55.848 69.641V69.7096V69.7145ZM54.5637 69.5039C54.5637 69.0582 54.4853 68.7007 54.3284 68.446C54.1716 68.1865 53.9412 68.0444 53.6372 68.0151C53.2353 67.9759 52.9559 68.1081 52.8088 68.402V70.3756C52.9657 70.7086 53.2451 70.8898 53.647 70.929C54.2598 70.9878 54.5686 70.5127 54.5686 69.5039H54.5637Z" fill="#E7392F"/>
<path d="M56.4461 69.6802C56.4461 69.2003 56.5392 68.784 56.7206 68.4265C56.902 68.069 57.1667 67.8045 57.5147 67.6331C57.8578 67.4617 58.2598 67.3931 58.7157 67.4372C59.3627 67.496 59.8922 67.7457 60.3039 68.1816C60.7157 68.6175 60.9412 69.1758 60.9902 69.8614L61 70.1895C61 70.9291 60.7941 71.502 60.3823 71.9085C59.9706 72.315 59.4167 72.4864 58.7255 72.4228C58.0343 72.3591 57.4804 72.0848 57.0686 71.6049C56.6569 71.1201 56.451 70.4981 56.451 69.7341V69.6753L56.4461 69.6802ZM57.7304 69.8908C57.7304 70.3463 57.8186 70.7087 57.9902 70.9633C58.1618 71.2229 58.4069 71.3649 58.7255 71.3943C59.0343 71.4237 59.2794 71.3257 59.4559 71.1005C59.6323 70.8801 59.7206 70.503 59.7206 69.979C59.7206 69.5284 59.6323 69.1758 59.4559 68.9113C59.2794 68.6469 59.0343 68.4999 58.7206 68.4706C58.4069 68.4412 58.1618 68.544 57.9902 68.7693C57.8186 68.9995 57.7304 69.3717 57.7304 69.8859V69.8908Z" fill="#E7392F"/>
<path d="M63.7892 71.8595C64.0245 71.8791 64.2206 71.835 64.3676 71.7175C64.5147 71.6 64.5931 71.4335 64.598 71.218L65.8039 71.3306C65.8039 71.6538 65.7108 71.9477 65.5392 72.2023C65.3627 72.457 65.1225 72.6431 64.8235 72.7656C64.5196 72.888 64.1863 72.9321 63.8186 72.8978C63.1323 72.8341 62.5882 72.5648 62.1912 72.0946C61.7941 71.6196 61.598 70.9976 61.598 70.2287V70.1454C61.598 69.4059 61.7941 68.8329 62.1912 68.4265C62.5833 68.02 63.1274 67.8486 63.8137 67.9122C64.4166 67.9661 64.897 68.1816 65.2598 68.5587C65.6225 68.9309 65.8088 69.4059 65.8137 69.974L64.6078 69.8614C64.6029 69.6116 64.5245 69.401 64.3774 69.2345C64.2304 69.0631 64.0343 68.9701 63.7892 68.9456C63.4902 68.9162 63.2647 69.0043 63.1127 69.21C62.9608 69.4157 62.8823 69.7585 62.8823 70.2483V70.3805C62.8823 70.8752 62.9559 71.2376 63.1078 71.4677C63.2598 71.6979 63.4902 71.8301 63.7941 71.8546L63.7892 71.8595Z" fill="#E7392F"/>
<path d="M70.5245 69.6556L68.9804 69.5136V73.2846L67.6912 73.1671V69.3961L66.1765 69.2541V68.2207L70.5196 68.6223V69.6556H70.5245Z" fill="#E7392F"/>
<path d="M70.8431 71.0074C70.8431 70.5323 70.9363 70.116 71.1176 69.7585C71.299 69.401 71.5637 69.1365 71.9118 68.9651C72.2549 68.7937 72.6569 68.7252 73.1127 68.7692C73.7598 68.828 74.2892 69.0778 74.701 69.5136C75.1127 69.9495 75.3382 70.5078 75.3873 71.1934L75.3971 71.5216C75.3971 72.2562 75.1912 72.8292 74.7794 73.2406C74.3676 73.6471 73.8137 73.8185 73.1225 73.7548C72.4314 73.6911 71.8774 73.4169 71.4657 72.9369C71.0539 72.4521 70.848 71.8301 70.848 71.0661V71.0074H70.8431ZM72.1275 71.2179C72.1275 71.6734 72.2157 72.0309 72.3873 72.2905C72.5588 72.55 72.8039 72.6921 73.1225 72.7214C73.4412 72.7508 73.6765 72.6529 73.8529 72.4325C74.0294 72.2121 74.1176 71.835 74.1176 71.311C74.1176 70.8653 74.0294 70.5078 73.8529 70.2483C73.6765 69.9838 73.4314 69.8418 73.1176 69.8124C72.8039 69.783 72.5588 69.8809 72.3873 70.1111C72.2157 70.3413 72.1275 70.7086 72.1275 71.2228V71.2179Z" fill="#E7392F"/>
<path d="M109.917 1.81247V57.3856L117.543 58.0504V2.24351C117.543 1.53723 117.002 0.950388 116.3 0.893262L111.393 0.467414C110.598 0.399901 109.917 1.02309 109.917 1.81766V1.81247Z" fill="#E7392F"/>
<path d="M99.9572 16.6185C97.961 14.7852 95.5387 13.8712 92.6952 13.8712C89.8518 13.8712 87.4554 14.7904 85.4333 16.6185C83.4319 18.4776 82.4391 20.7004 82.4391 23.2814V78.3353L90.0649 79.0052V64.8016C90.9434 65.5806 92.3625 65.9701 94.3327 65.9701C100.009 65.9701 102.899 63.0774 102.998 57.2973C102.998 57.1935 102.998 57.0844 102.998 56.9753V23.2762C102.998 20.6952 101.984 18.4776 99.9572 16.6133V16.6185ZM95.2372 57.3856C95.2372 57.9984 94.9928 58.5437 94.5094 59.0111C93.9948 59.4525 93.3918 59.6758 92.6952 59.6758C91.9986 59.6758 91.4112 59.4525 90.9226 59.0111C90.408 58.5645 90.1533 58.0244 90.1533 57.3856V22.4453C90.1533 21.8065 90.408 21.2664 90.9226 20.825C91.406 20.3836 91.9986 20.1603 92.6952 20.1603C93.3918 20.1603 93.9948 20.3836 94.5094 20.825C94.9928 21.2664 95.2372 21.8117 95.2372 22.4453V57.3856Z" fill="#E7392F"/>
<path d="M145 42.8704V23.2814C145 20.7004 143.986 18.4828 141.959 16.6185C139.963 14.7852 137.541 13.8712 134.697 13.8712C131.854 13.8712 129.462 14.7904 127.435 16.6185C125.439 18.4776 124.441 20.7004 124.441 23.2814V56.5547C124.441 57.3804 124.545 58.1698 124.753 58.928C125.179 60.5275 126.078 61.9557 127.435 63.2177C129.462 65.0509 131.885 65.9649 134.697 65.9649C137.509 65.9649 139.963 65.0457 141.959 63.2177C142.905 62.3452 143.633 61.4052 144.132 60.3769C144.714 59.2085 145.005 57.9309 145.005 56.5495V46.8589L137.244 46.1837V57.5362C137.244 58.1802 137 58.7151 136.522 59.1617C136.017 59.5876 135.43 59.8161 134.759 59.8265H134.702C134.526 59.8265 134.359 59.8109 134.203 59.7849H134.193C133.709 59.7018 133.294 59.4889 132.935 59.1617C132.415 58.7151 132.166 58.175 132.166 57.5362V41.7435L145.01 42.8652L145 42.8704ZM132.155 22.4453C132.155 21.8065 132.41 21.2664 132.924 20.825C133.408 20.3836 133.995 20.1603 134.692 20.1603C135.388 20.1603 135.991 20.3836 136.511 20.825C136.995 21.2664 137.234 21.8117 137.234 22.4453V34.1613L132.155 33.7199V22.4401V22.4453Z" fill="#E7392F"/>
<path d="M20.5695 29.8613L7.75059 28.7447L7.76099 8.62602C7.76099 7.96128 8.0053 7.4056 8.48874 6.95898C8.97218 6.51755 9.55958 6.29424 10.2613 6.29424C10.9631 6.29424 11.5609 6.51755 12.0755 6.95898C12.559 7.40041 12.7981 7.95609 12.7981 8.62602V25.1925L20.5591 25.8573V9.41539C20.5591 6.83434 19.5454 4.6272 17.5233 2.79917C15.522 0.934788 13.0996 0 10.2561 0C7.4127 0 5.02151 0.934788 2.99419 2.79398C0.992866 4.62201 0 6.83434 0 9.4102V36.0828L12.7981 37.1994V57.3856C12.7981 58.0296 12.559 58.5645 12.0755 59.0111C11.5609 59.4525 10.9579 59.6758 10.2613 59.6758C9.56478 59.6758 8.97738 59.4525 8.48874 59.0111C8.0053 58.5645 7.76099 58.0244 7.76099 57.3856V40.7827L0.00519825 40.1076V57.4739C0.244318 59.8628 1.34635 61.8726 3.31648 63.5137C5.28142 65.1496 7.59984 65.9753 10.2665 65.9753C12.9332 65.9753 15.2881 65.1547 17.2582 63.5137C19.2231 61.8778 20.3252 59.8524 20.5695 57.4324L20.5799 29.8613H20.5695Z" fill="#E7392F"/>
<path d="M34.1889 35.5739L35.1974 35.6622V42.2732L27.5715 41.6188V35.0078L28.5072 35.0961L34.1889 35.5739Z" fill="#E7392F"/>
<path d="M49.8408 42.6211L49.846 43.4832L42.137 42.8392V36.2334L43.2702 36.3269L48.6868 36.7787L49.8252 36.8722V37.9264L49.8304 38.7573L49.8356 40.2738V41.1099L49.8408 42.6211Z" fill="#E7392F"/>
<path d="M61.6201 37.8589L62.7585 37.9576L62.7533 39.043L62.7481 39.8791L62.7429 41.3903L62.7377 42.2264L62.7273 43.7377L62.7221 44.5634L54.9403 43.9143V37.3032L56.0735 37.3967L61.6201 37.8589Z" fill="#E7392F"/>
<path d="M75.5462 39.0274V45.6333L67.8632 44.9893L67.8892 38.3887L69.0224 38.477L74.413 38.934L75.5462 39.0274Z" fill="#E7392F"/>
<path d="M34.1889 27.0777L35.1974 27.1659V33.7822L27.5715 33.1226V26.5116L28.5072 26.5999L34.1889 27.0777Z" fill="#E7392F"/>
<path d="M49.8148 33.2318L49.82 34.0627V34.9923L42.137 34.3483V27.7373L43.2702 27.8308L48.666 28.2826L49.8044 28.3761V28.5319V29.368L49.8096 30.8844V31.7153L49.8148 33.2318Z" fill="#E7392F"/>
<path d="M61.6668 29.368L62.8001 29.4667V29.6536L62.7949 30.4949L62.7845 32.0062V32.8423L62.7741 34.3535L62.7689 35.1793L62.7637 36.0725L54.9403 35.4182V28.8071L56.0735 28.9006L61.6668 29.368Z" fill="#E7392F"/>
<path d="M75.5462 30.6039V37.1423L67.806 36.5035V29.9392L75.5462 30.6039Z" fill="#E7392F"/>
<path d="M35.1974 18.9191V25.2861L27.5715 24.6265V18.2648L35.1974 18.9191Z" fill="#E7392F"/>
<path d="M64.188 21.3131C64.0944 21.3495 62.7637 21.6663 62.7013 22.6322C62.6805 22.9958 62.6909 27.6593 62.6909 27.6593L54.9351 26.9842V23.5151C54.9351 23.5151 54.9819 20.9081 52.3672 20.9081C51.4991 20.9081 50.9221 21.1885 50.5426 21.5676C50.3035 21.8065 50.1371 22.0869 50.028 22.357C49.8044 22.8919 49.7888 23.4008 49.7888 23.5307V24.6784L49.8512 26.548L42.137 25.8832V19.4747L64.188 21.3183V21.3131Z" fill="#E7392F"/>
<path d="M75.5462 28.7499L67.806 28.0021L67.7852 23.458C67.7852 23.0788 68.0243 22.2843 66.8183 21.5312L75.541 22.2739V28.7499H75.5462Z" fill="#E7392F"/>
<path d="M35.1454 14.027C35.1818 14.1257 35.1974 14.2244 35.1974 14.3386V17.0391L34.1889 16.9508L28.5072 16.4679L27.5715 16.3796V13.7933C27.5715 13.5077 27.6183 13.2273 27.8262 13.0351C28.0134 12.8637 28.2577 12.7703 28.5072 12.7703C28.5384 12.7703 28.5748 12.7703 28.6008 12.7703L34.2825 13.3104C34.5476 13.3363 34.7867 13.4662 34.953 13.6583C35.0362 13.7622 35.109 13.8816 35.1454 14.0166V14.027Z" fill="#E7392F"/>
<path d="M75.5358 20.368L74.0231 20.2693L43.2702 17.7039L42.137 17.6104V15.5227C42.137 14.7229 42.8232 14.0945 43.6237 14.1724L49.9864 14.7645C50.2099 14.7904 50.4126 14.8735 50.579 15.0034C50.6881 15.0916 50.7765 15.1903 50.8441 15.3046C50.8545 15.3046 50.8597 15.2942 50.8701 15.2942C50.9896 15.2422 51.0832 15.1955 51.13 15.1643C51.1404 15.1643 51.1456 15.154 51.156 15.154C52.5283 14.4165 54.0618 14.0426 55.7097 14.0426C57.8877 14.0426 59.6239 14.6658 60.9079 15.9018C61.0846 16.068 61.2458 16.2445 61.4017 16.4367C61.4017 16.4367 61.4121 16.4263 61.4173 16.4211C61.5525 16.2861 61.6928 16.1511 61.8436 16.016C63.2991 14.7073 65.2588 14.0478 67.6812 14.0478C70.4779 14.0478 74.0855 15.0968 75.3694 19.4696C75.4474 19.7396 75.5306 20.368 75.5358 20.3888V20.368Z" fill="#E7392F"/>
<path d="M42.137 44.7245L42.1214 51.4809L49.8616 52.1457L49.846 45.3736L42.137 44.7245Z" fill="#E7392F"/>
<path d="M54.9351 45.8151L54.9195 52.5663L62.7013 53.2311L62.6909 46.4642L54.9351 45.8151Z" fill="#E7392F"/>
<path d="M67.8008 46.9211L67.7852 53.7139L75.5722 54.3787L75.5566 47.5651L67.8008 46.9211Z" fill="#E7392F"/>
<path d="M27.5715 43.504V50.2397L35.2026 50.8941V44.148L27.5715 43.504Z" fill="#E7392F"/>
<path d="M29.0374 1.53202L33.955 1.95787C34.6567 2.02019 35.1973 2.60702 35.1973 3.30812V7.91974C35.1973 8.71431 34.5112 9.34269 33.721 9.26999L28.8087 8.84414C28.1069 8.78182 27.5663 8.19498 27.5663 7.49389V2.88227C27.5611 2.0877 28.2421 1.45931 29.0374 1.52683V1.53202Z" fill="#E7392F"/>
</svg>
