<?xml version="1.0" encoding="UTF-8"?><svg id="_ар_2" xmlns="http://www.w3.org/2000/svg" viewBox="0 0 165.97 172.86"><defs><style>.cls-1{fill:#1d262d;}</style></defs><g id="OBJECTS"><g><g><path class="cls-1" d="M125.19,133.11c7.72,3.49,14.95,7.89,21.59,13.18,8.74-9.29,15.22-20.14,19.18-31.91h-34.33c-1.6,6.37-3.74,12.62-6.44,18.73Z"/><path class="cls-1" d="M87.77,133.65v34.11c9.74-8.3,17.96-18.34,24.19-29.54-7.89-2.61-15.99-4.14-24.19-4.57Z"/><path class="cls-1" d="M96.48,172.86c15.97-2.47,30.9-9.33,43.27-19.9-5.8-4.48-12.08-8.26-18.77-11.26-6.34,11.7-14.65,22.26-24.5,31.15Z"/><path class="cls-1" d="M118.39,26.43c6.23-2.56,12.11-5.77,17.59-9.56C124.41,8.04,110.83,2.25,96.52,0c8.56,7.71,15.97,16.66,21.87,26.43Z"/><path class="cls-1" d="M87.77,124.06c9.68,.46,19.24,2.31,28.52,5.51,2.21-4.97,4.02-10.04,5.44-15.19h-33.96v9.68Z"/><path class="cls-1" d="M113.99,38.22c-8.6,2.75-17.39,4.34-26.21,4.77v15.5h33.99c-1.9-6.99-4.49-13.79-7.77-20.27Z"/><path class="cls-1" d="M143.5,23.3c-6.33,4.62-13.2,8.49-20.49,11.57,3.73,7.54,6.62,15.47,8.64,23.62h34.25c-4.49-13.22-12.11-25.33-22.4-35.19Z"/><path class="cls-1" d="M87.77,5.06v28.33c7.18-.38,14.34-1.63,21.38-3.72-5.79-9.18-13.04-17.52-21.38-24.61Z"/><path class="cls-1" d="M19.19,146.28c6.63-5.28,13.87-9.69,21.59-13.18-2.7-6.11-4.84-12.37-6.44-18.73H0c3.96,11.77,10.44,22.62,19.19,31.91Z"/><path class="cls-1" d="M42.96,34.87c-7.29-3.08-14.15-6.95-20.49-11.57C12.18,33.16,4.56,45.26,.07,58.49H34.32c2.02-8.15,4.91-16.07,8.64-23.62Z"/><path class="cls-1" d="M78.2,33.39V5.06c-8.34,7.09-15.59,15.43-21.38,24.61,7.04,2.09,14.2,3.34,21.38,3.72Z"/><path class="cls-1" d="M78.2,167.77v-34.12c-8.2,.43-16.3,1.96-24.2,4.57,6.24,11.21,14.46,21.25,24.2,29.55Z"/><path class="cls-1" d="M49.67,129.57c9.28-3.2,18.84-5.05,28.52-5.51v-9.68H44.23c1.42,5.15,3.23,10.22,5.44,15.19Z"/><path class="cls-1" d="M44.98,141.71c-6.69,3-12.97,6.77-18.77,11.26,12.37,10.57,27.3,17.43,43.27,19.9-9.85-8.89-18.17-19.45-24.5-31.15Z"/><path class="cls-1" d="M78.2,42.99c-8.83-.42-17.61-2.02-26.22-4.77-3.28,6.48-5.88,13.28-7.77,20.27h33.99v-15.5Z"/><path class="cls-1" d="M69.45,0c-14.31,2.25-27.89,8.04-39.46,16.87,5.47,3.79,11.35,7,17.59,9.56,5.91-9.78,13.32-18.73,21.87-26.43Z"/></g><g><path class="cls-1" d="M23.62,99.5l-8.06-25.18h8.74l6.51,21.26h-4.39l6.91-21.26h7.81l6.44,21.26h-4.21l6.8-21.26h8.06l-8.06,25.18h-9.1l-5.25-17.41h2.45l-5.54,17.41h-9.1Z"/><path class="cls-1" d="M68.81,99.5l-8.06-25.18h8.74l6.51,21.26h-4.39l6.91-21.26h7.81l6.44,21.26h-4.21l6.8-21.26h8.06l-8.06,25.18h-9.1l-5.25-17.41h2.45l-5.54,17.41h-9.1Z"/><path class="cls-1" d="M114,99.5l-8.06-25.18h8.74l6.51,21.26h-4.39l6.91-21.26h7.81l6.44,21.26h-4.21l6.8-21.26h8.06l-8.06,25.18h-9.1l-5.25-17.41h2.45l-5.54,17.41h-9.1Z"/></g></g></g></svg>