<svg width="32" height="30" viewBox="0 0 32 30" fill="none" xmlns="http://www.w3.org/2000/svg">
<path d="M8.72822 23.393H11.2769V28.1806H9.33599V25.279H7.5127V28.808C7.5127 29.3766 7.91656 29.8824 8.48512 29.9804C8.56746 30 8.64588 30 8.72822 30H11.8847C12.5513 30 13.1002 29.455 13.1002 28.7884V0H11.2769V21.5737H9.33599V0H7.5127V22.201C7.5127 22.848 8.08125 23.393 8.72822 23.393Z" fill="black"/>
<path d="M16.0878 19.7504L16.8955 18.9387V0H15.0762V19.7504H16.0878Z" fill="black"/>
<path d="M22.5377 23.393V29.9922H24.361V23.393H25.3609V21.5736H24.361V0H22.5377V21.5736H20.5772V0H18.7617L18.7774 23.393H22.5377Z" fill="black"/>
<path d="M3.7799 23.4009V29.9922H5.59927V23.4009H6.55993V21.5776H5.59927V0H3.7799V21.5776H1.81545V0H0L0.015684 23.4009H3.7799Z" fill="black"/>
<path d="M28.1094 0H26.2861V19.7464H28.1094V0Z" fill="black"/>
<path d="M29.9964 21.5737H28.0359V23.3969H29.9964V28.1689H28.1143V25.3692H26.291V28.7962C26.291 29.3648 26.6949 29.8706 27.2634 29.9686C27.3458 29.9882 27.4242 29.9882 27.5065 29.9882H30.6042C31.2708 29.9882 31.8197 29.4432 31.8197 28.7923V23.5773C31.8197 23.0715 31.5178 22.5029 30.9688 22.3814C31.5139 22.2598 31.8197 21.8952 31.8197 21.3894V0H29.9964V21.5737Z" fill="black"/>
</svg>
