<?xml version="1.0" encoding="utf-8"?>
<!-- Generator: Adobe Illustrator 26.3.1, SVG Export Plug-In . SVG Version: 6.00 Build 0)  -->
<svg version="1.1" id="Шар_1" xmlns="http://www.w3.org/2000/svg" xmlns:xlink="http://www.w3.org/1999/xlink" x="0px" y="0px"
	 viewBox="0 0 796.7 308.5" style="enable-background:new 0 0 796.7 308.5;" xml:space="preserve">
<style type="text/css">
	.st0{clip-path:url(#SVGID_00000156583478377449153860000015320089821742152611_);fill:#454443;}
	.st1{fill:#194B51;}
</style>
<g id="espresso_bar">
	<defs>
		<rect id="SVGID_1_" x="-241.6" y="-205.8" width="1280" height="720"/>
	</defs>
	<clipPath id="SVGID_00000054263917045195193100000016283879353293742990_">
		<use xlink:href="#SVGID_1_"  style="overflow:visible;"/>
	</clipPath>
	<path style="clip-path:url(#SVGID_00000054263917045195193100000016283879353293742990_);fill:#454443;" d="M211.7,276.2H179
		c0.1,3,0.8,5.6,2.3,7.9c1.4,2.3,3.3,4.1,5.7,5.4c2.4,1.3,5.1,1.9,8.1,1.9c2.5,0,4.8-0.4,6.9-1.3c2.1-0.9,3.9-2.2,5.3-4l2.1,2.4
		c-1.6,2-3.7,3.5-6.2,4.6c-2.5,1.1-5.2,1.6-8.1,1.6c-3.8,0-7.2-0.8-10.1-2.5c-3-1.6-5.3-3.9-7-6.9c-1.7-2.9-2.5-6.2-2.5-10
		c0-3.7,0.8-7,2.4-9.9c1.6-2.9,3.8-5.2,6.5-6.9c2.8-1.7,5.9-2.5,9.3-2.5c3.4,0,6.5,0.8,9.3,2.4c2.7,1.6,4.9,3.9,6.5,6.8
		c1.6,2.9,2.4,6.2,2.4,9.9L211.7,276.2z M186.5,261c-2.1,1.2-3.8,2.9-5.1,5c-1.3,2.2-2,4.6-2.2,7.3h29.1c-0.1-2.7-0.9-5.1-2.2-7.3
		c-1.3-2.1-3-3.8-5.2-5c-2.1-1.2-4.5-1.8-7.2-1.8C191,259.2,188.6,259.8,186.5,261"/>
	<path style="clip-path:url(#SVGID_00000054263917045195193100000016283879353293742990_);fill:#454443;" d="M224,293.3
		c-2.8-0.9-4.9-2.1-6.5-3.5l1.7-2.9c1.6,1.3,3.6,2.4,6,3.3c2.4,0.9,5,1.3,7.7,1.3c3.8,0,6.7-0.6,8.5-1.9c1.8-1.3,2.7-3,2.7-5.2
		c0-1.6-0.5-2.9-1.5-3.8c-1-0.9-2.2-1.6-3.7-2c-1.5-0.4-3.5-0.9-6-1.4c-3-0.5-5.4-1.1-7.3-1.7c-1.9-0.6-3.4-1.7-4.7-3.1
		c-1.3-1.4-2-3.4-2-5.8c0-3,1.2-5.5,3.7-7.5c2.5-2,6.1-2.9,10.7-2.9c2.4,0,4.8,0.3,7.2,1c2.4,0.7,4.3,1.6,5.8,2.7l-1.7,2.9
		c-1.6-1.1-3.3-2-5.3-2.5c-2-0.6-4-0.9-6.1-0.9c-3.5,0-6.2,0.7-8,2c-1.8,1.3-2.7,3-2.7,5.2c0,1.7,0.5,3,1.5,4c1,0.9,2.3,1.7,3.7,2.1
		c1.5,0.5,3.6,1,6.2,1.5c3,0.5,5.4,1.1,7.2,1.7c1.8,0.6,3.4,1.6,4.6,2.9c1.3,1.4,1.9,3.2,1.9,5.6c0,3.2-1.3,5.7-3.9,7.6
		c-2.6,1.9-6.3,2.8-11.1,2.8C229.7,294.6,226.7,294.2,224,293.3"/>
	<path style="clip-path:url(#SVGID_00000054263917045195193100000016283879353293742990_);fill:#454443;" d="M286.6,258.5
		c2.9,1.6,5.1,3.9,6.7,6.8c1.6,2.9,2.4,6.2,2.4,10c0,3.7-0.8,7.1-2.4,10c-1.6,2.9-3.9,5.2-6.7,6.8c-2.9,1.6-6.1,2.4-9.6,2.4
		c-3.4,0-6.4-0.8-9.1-2.4c-2.7-1.6-4.8-3.8-6.3-6.6v22.8h-3.6v-52.2h3.5v9c1.5-2.9,3.6-5.2,6.4-6.8c2.7-1.6,5.8-2.4,9.2-2.4
		C280.5,256,283.8,256.9,286.6,258.5 M284.7,289.3c2.3-1.4,4.2-3.3,5.5-5.7c1.3-2.4,2-5.2,2-8.3c0-3.1-0.7-5.9-2-8.3
		c-1.3-2.4-3.2-4.3-5.5-5.7c-2.3-1.4-5-2-7.9-2c-2.9,0-5.5,0.7-7.8,2c-2.3,1.4-4.1,3.3-5.5,5.7c-1.3,2.4-2,5.2-2,8.3
		c0,3.1,0.7,5.9,2,8.3c1.3,2.4,3.2,4.3,5.5,5.7c2.3,1.4,4.9,2,7.8,2C279.7,291.4,282.3,290.7,284.7,289.3"/>
	<path style="clip-path:url(#SVGID_00000054263917045195193100000016283879353293742990_);fill:#454443;" d="M316.1,258.3
		c2.5-1.5,5.5-2.2,9-2.2v3.6l-0.9-0.1c-4.2,0-7.5,1.3-9.9,4c-2.4,2.6-3.6,6.3-3.6,11v19.8h-3.6v-38h3.5v8.3
		C311.8,261.9,313.6,259.7,316.1,258.3"/>
	<path style="clip-path:url(#SVGID_00000054263917045195193100000016283879353293742990_);fill:#454443;" d="M366.9,276.2h-32.7
		c0.1,3,0.9,5.6,2.3,7.9c1.4,2.3,3.3,4.1,5.7,5.4c2.4,1.3,5.1,1.9,8.1,1.9c2.5,0,4.8-0.4,6.9-1.3c2.1-0.9,3.9-2.2,5.3-4l2.1,2.4
		c-1.7,2-3.7,3.5-6.2,4.6c-2.5,1.1-5.2,1.6-8.1,1.6c-3.8,0-7.2-0.8-10.1-2.5c-3-1.6-5.3-3.9-7-6.9c-1.7-2.9-2.5-6.2-2.5-10
		c0-3.7,0.8-7,2.4-9.9c1.6-2.9,3.8-5.2,6.5-6.9c2.8-1.7,5.9-2.5,9.3-2.5c3.4,0,6.5,0.8,9.3,2.4c2.7,1.6,4.9,3.9,6.5,6.8
		c1.6,2.9,2.4,6.2,2.4,9.9L366.9,276.2z M341.6,261c-2.1,1.2-3.8,2.9-5.1,5c-1.3,2.2-2,4.6-2.2,7.3h29.1c-0.1-2.7-0.9-5.1-2.2-7.3
		c-1.3-2.1-3-3.8-5.2-5c-2.1-1.2-4.5-1.8-7.2-1.8C346.2,259.2,343.8,259.8,341.6,261"/>
	<path style="clip-path:url(#SVGID_00000054263917045195193100000016283879353293742990_);fill:#454443;" d="M379.1,293.3
		c-2.8-0.9-4.9-2.1-6.5-3.5l1.7-2.9c1.6,1.3,3.6,2.4,6,3.3s5,1.3,7.7,1.3c3.8,0,6.7-0.6,8.5-1.9c1.8-1.3,2.7-3,2.7-5.2
		c0-1.6-0.5-2.9-1.5-3.8c-1-0.9-2.2-1.6-3.7-2c-1.5-0.4-3.5-0.9-6-1.4c-3-0.5-5.4-1.1-7.3-1.7c-1.8-0.6-3.4-1.7-4.7-3.1
		c-1.3-1.4-2-3.4-2-5.8c0-3,1.3-5.5,3.8-7.5c2.5-2,6.1-2.9,10.7-2.9c2.4,0,4.8,0.3,7.2,1c2.4,0.7,4.3,1.6,5.8,2.7l-1.7,2.9
		c-1.5-1.1-3.3-2-5.3-2.5c-2-0.6-4-0.9-6.1-0.9c-3.5,0-6.2,0.7-8,2c-1.8,1.3-2.7,3-2.7,5.2c0,1.7,0.5,3,1.5,4c1,0.9,2.3,1.7,3.8,2.1
		c1.5,0.5,3.6,1,6.2,1.5c3,0.5,5.4,1.1,7.2,1.7c1.8,0.6,3.4,1.6,4.6,2.9c1.3,1.4,1.9,3.2,1.9,5.6c0,3.2-1.3,5.7-3.9,7.6
		c-2.6,1.9-6.3,2.8-11.1,2.8C384.8,294.6,381.9,294.2,379.1,293.3"/>
	<path style="clip-path:url(#SVGID_00000054263917045195193100000016283879353293742990_);fill:#454443;" d="M414,293.3
		c-2.8-0.9-4.9-2.1-6.5-3.5l1.7-2.9c1.6,1.3,3.6,2.4,6,3.3c2.4,0.9,5,1.3,7.7,1.3c3.8,0,6.7-0.6,8.5-1.9c1.8-1.3,2.7-3,2.7-5.2
		c0-1.6-0.5-2.9-1.5-3.8c-1-0.9-2.2-1.6-3.7-2c-1.5-0.4-3.5-0.9-6-1.4c-3-0.5-5.4-1.1-7.3-1.7c-1.8-0.6-3.4-1.7-4.7-3.1
		c-1.3-1.4-2-3.4-2-5.8c0-3,1.2-5.5,3.7-7.5c2.5-2,6.1-2.9,10.7-2.9c2.4,0,4.8,0.3,7.2,1c2.4,0.7,4.3,1.6,5.8,2.7l-1.7,2.9
		c-1.6-1.1-3.3-2-5.3-2.5c-2-0.6-4-0.9-6.1-0.9c-3.5,0-6.2,0.7-8,2c-1.8,1.3-2.7,3-2.7,5.2c0,1.7,0.5,3,1.5,4c1,0.9,2.3,1.7,3.7,2.1
		c1.5,0.5,3.6,1,6.2,1.5c3,0.5,5.3,1.1,7.2,1.7c1.8,0.6,3.4,1.6,4.6,2.9c1.3,1.4,1.9,3.2,1.9,5.6c0,3.2-1.3,5.7-3.9,7.6
		c-2.6,1.9-6.3,2.8-11.1,2.8C419.6,294.6,416.7,294.2,414,293.3"/>
	<path style="clip-path:url(#SVGID_00000054263917045195193100000016283879353293742990_);fill:#454443;" d="M453,292.2
		c-2.9-1.7-5.2-3.9-6.8-6.9c-1.7-2.9-2.5-6.3-2.5-9.9c0-3.7,0.8-7,2.5-9.9c1.7-2.9,3.9-5.2,6.8-6.9c2.9-1.7,6.1-2.5,9.7-2.5
		c3.6,0,6.8,0.8,9.7,2.5c2.9,1.6,5.2,3.9,6.8,6.9c1.7,2.9,2.5,6.3,2.5,9.9c0,3.7-0.8,7-2.5,9.9c-1.7,2.9-3.9,5.2-6.8,6.9
		c-2.9,1.7-6.1,2.5-9.7,2.5C459.2,294.6,455.9,293.8,453,292.2 M470.6,289.3c2.3-1.4,4.1-3.3,5.5-5.7c1.3-2.4,2-5.2,2-8.3
		c0-3.1-0.7-5.9-2-8.3c-1.3-2.4-3.2-4.3-5.5-5.7c-2.3-1.4-4.9-2-7.8-2c-2.9,0-5.5,0.7-7.8,2c-2.3,1.4-4.1,3.3-5.5,5.7
		c-1.3,2.4-2,5.2-2,8.3c0,3.1,0.7,5.9,2,8.3c1.3,2.4,3.2,4.3,5.5,5.7c2.3,1.4,4.9,2,7.8,2C465.7,291.4,468.3,290.7,470.6,289.3"/>
	<path style="clip-path:url(#SVGID_00000054263917045195193100000016283879353293742990_);fill:#454443;" d="M540.5,258.5
		c2.9,1.6,5.1,3.9,6.7,6.8c1.6,2.9,2.4,6.3,2.4,10c0,3.7-0.8,7.1-2.4,10c-1.6,2.9-3.9,5.2-6.7,6.9c-2.9,1.7-6.1,2.5-9.6,2.5
		c-3.4,0-6.5-0.8-9.2-2.4c-2.7-1.6-4.9-3.9-6.4-6.8v9h-3.5v-54.1h3.6V265c1.5-2.8,3.6-5,6.3-6.6c2.7-1.6,5.8-2.4,9.1-2.4
		C534.4,256,537.6,256.9,540.5,258.5 M538.5,289.3c2.3-1.4,4.2-3.3,5.5-5.7c1.3-2.4,2-5.2,2-8.3c0-3.1-0.7-5.9-2-8.3
		c-1.3-2.4-3.2-4.3-5.5-5.7c-2.3-1.4-5-2-7.9-2c-2.9,0-5.5,0.7-7.8,2c-2.3,1.4-4.1,3.3-5.5,5.7c-1.3,2.4-2,5.2-2,8.3
		c0,3.1,0.7,5.9,2,8.3c1.3,2.4,3.2,4.3,5.5,5.7c2.3,1.4,4.9,2,7.8,2C533.6,291.4,536.2,290.7,538.5,289.3"/>
	<path style="clip-path:url(#SVGID_00000054263917045195193100000016283879353293742990_);fill:#454443;" d="M584.5,259.6
		c2.5,2.4,3.8,5.9,3.8,10.6v24.1h-3.5v-6.8c-1.2,2.2-3,4-5.3,5.2c-2.3,1.2-5.1,1.9-8.4,1.9c-4.2,0-7.6-1-10-3
		c-2.5-2-3.7-4.6-3.7-7.9c0-3.2,1.1-5.7,3.4-7.7c2.3-2,5.9-3,10.8-3h13v-3.1c0-3.5-1-6.2-2.9-8.1s-4.7-2.8-8.4-2.8
		c-2.5,0-4.9,0.4-7.2,1.3c-2.3,0.9-4.3,2-5.9,3.5l-1.8-2.6c1.9-1.7,4.2-3,6.9-4c2.7-0.9,5.5-1.4,8.4-1.4
		C578.4,256,582,257.2,584.5,259.6 M579.7,289.5c2.2-1.5,3.9-3.6,5-6.3V276h-13c-3.7,0-6.4,0.7-8.1,2c-1.7,1.4-2.5,3.2-2.5,5.6
		c0,2.5,0.9,4.4,2.8,5.9c1.8,1.4,4.4,2.1,7.8,2.1C574.8,291.7,577.4,290.9,579.7,289.5"/>
	<path style="clip-path:url(#SVGID_00000054263917045195193100000016283879353293742990_);fill:#454443;" d="M612.3,258.3
		c2.5-1.5,5.5-2.2,9-2.2v3.6l-0.9-0.1c-4.2,0-7.5,1.3-9.9,4c-2.4,2.6-3.6,6.3-3.6,11v19.8h-3.6v-38h3.5v8.3
		C608,261.9,609.8,259.7,612.3,258.3"/>
</g>
<g id="MYATA">
	<path class="st1" d="M28,31.3V0h6.3l57.4,74.2L148.9,0h6.3v174.5h21.7V0h6.3v180.7h-34.2V9.9L94.2,80.5h-5.5L34.2,10.1v31.8
		l59.3,78.6l-4.8,3.6L34.2,52.1v128.7H0V0h6.3L28,31.3z M28,174.5v-133L6.3,10.4v164.1H28z"/>
	<path class="st1" d="M212.6,6.3L255.5,75l-5.3,3.1L201.2,0h40.5l42.4,69.2L325.8,0h40.5l-62.9,101.2h-7.5l-11.8-19.5l-11.6,19.5
		v73.3H302v6.3h-35.7V98.8l14-23.4L238.3,6.3H212.6z M288,75.4L299.8,95L355,6.3h-25.8L288,75.4z"/>
	<path class="st1" d="M388.7,174.5v6.3h-36.9l23.1-65.6h28.9l25.5-80h9.2l26,86.3h-56.2l-6.5,20.2h70.6l11.3,32.8h23.6L448.3,6
		h-28.2L388.5,95l-5.8-1.9l32.8-93h37.1l63.6,180.7h-36.9L468,148h-74.5l8.4-26.5h-22.7l-18.8,53H388.7z M410.4,115.2h45.8L434,41.5
		L410.4,115.2z"/>
	<polygon class="st1" points="585.1,174.5 585.1,32.8 503.7,32.8 503.7,0 644.9,0 644.9,32.8 638.6,32.8 638.6,6.3 510,6.3 
		510,26.5 591.4,26.5 591.4,180.7 557.2,180.7 557.2,53 563.5,53 563.5,174.5 	"/>
	<path class="st1" d="M669.3,174.5v6.3h-36.9l23.1-65.6h28.9l25.5-80h9.2l26,86.3H689l-6.5,20.2h70.6l11.3,32.8h23.6L728.8,6h-28.2
		L669,95l-5.8-1.9L696,0h37.1l63.6,180.7h-36.9L748.5,148h-74.5l8.4-26.5h-22.7l-18.8,53H669.3z M690.9,115.2h45.8l-22.2-73.7
		L690.9,115.2z"/>
</g>
</svg>
