<?xml version="1.0" encoding="utf-8"?>
<!-- Generator: Adobe Illustrator 26.3.1, SVG Export Plug-In . SVG Version: 6.00 Build 0)  -->
<svg version="1.1" id="_Шар_2" xmlns="http://www.w3.org/2000/svg" xmlns:xlink="http://www.w3.org/1999/xlink" x="0px" y="0px"
	 viewBox="0 0 113.4 117.8" style="enable-background:new 0 0 113.4 117.8;" xml:space="preserve">
<style type="text/css">
	.st0{fill:#FFCC00;}
	.st1{fill:#00070E;}
</style>
<g id="Layer_1">
	<g>
		<path class="st0" d="M16.9,0h79.7c9.3,0,16.9,7.5,16.9,16.9V101c0,9.3-7.5,16.9-16.9,16.9H16.9C7.6,117.9,0,110.4,0,101V16.9
			C0,7.5,7.5,0,16.9,0z"/>
		<g>
			<g>
				<path class="st1" d="M45.4,44.8c2.3-1.2,4.1-2.9,5.3-5.1c1.2-2.1,1.9-4.6,1.9-7.4c0-3-0.7-5.7-2.1-8s-3.4-4-6.1-5.2
					c-2.6-1.2-5.7-1.8-9.2-1.8H16.9V57h12.9v-9.7h3.7l6.3,9.7h13.7l-6.3-9.7L45.4,44.8L45.4,44.8z M33.4,40.2
					c-2,0.5-3.5,0.1-4.6-0.7c-0.4-0.3-0.7-0.8-0.8-1.5c-0.1-0.7,0-1.7,0.1-3.7c0.1-2.3,0.2-3.8,0.4-4.3c0.2-0.5,0.7-1.1,1.4-1.5
					c1.4-0.9,2.9-1.2,4.3-0.9c1.4,0.3,3.5,1.2,4.5,2.7c1.3,2,1.3,4.2,0,6.6c-0.4,0.9-0.7,1.5-0.8,1.7C37.5,39.3,35.4,39.8,33.4,40.2
					L33.4,40.2z"/>
				<path class="st1" d="M87.7,19.1c-3.3-1.8-7-2.7-11.1-2.7s-7.8,0.9-11.1,2.7c-3.3,1.8-5.8,4.3-7.7,7.4c-1.9,3.2-2.8,6.7-2.8,10.7
					c0,3.7,0.8,7.1,2.5,10.1c0.1,0.2,0.2,0.4,0.3,0.6c1.9,3.2,4.4,5.6,7.7,7.4c3.3,1.8,7,2.7,11.1,2.7s7.8-0.9,11.1-2.7
					c3.3-1.8,5.8-4.3,7.7-7.4c0.1-0.2,0.2-0.4,0.3-0.6c1.6-3,2.5-6.4,2.5-10.1c0-4-0.9-7.6-2.8-10.7C93.5,23.3,91,20.8,87.7,19.1z
					 M76.6,27.4c1.6,0,3.3,0.2,4.4,1.2c2.8,2.5,4.5,4.9,4.5,8.6c0,2.2-1,4.1-2.2,5.7c-1.7,2.4-4,4.7-6.8,4c-2.5-0.6-4.4-1.1-6.1-2.8
					c-1.7-1.8-2.8-4.3-2.8-7C67.7,31.7,71.5,27.4,76.6,27.4L76.6,27.4z"/>
				<path class="st1" d="M48.8,62.5c-3.3-1.8-7-2.7-11.1-2.7s-7.8,0.9-11.1,2.7c-3.3,1.8-5.8,4.3-7.7,7.4c-1.9,3.2-2.8,6.7-2.8,10.7
					c0,3.8,0.8,7.2,2.5,10.2c0.1,0.2,0.2,0.3,0.3,0.5c1.9,3.2,4.4,5.6,7.7,7.4s7,2.7,11.1,2.7s7.8-0.9,11.1-2.7
					c3.3-1.8,5.8-4.3,7.7-7.4c0.1-0.2,0.2-0.3,0.3-0.5c1.7-3,2.5-6.4,2.5-10.2c0-4-0.9-7.6-2.8-10.7C54.6,66.7,52,64.3,48.8,62.5
					L48.8,62.5z M31.5,75.6c1.9-2.8,4.2-4.4,6.8-4.8c0.8,0,2.5,1,5,3s2.8,3,2.8,3.8c1,2.9-0.6,6.9-3.5,9.1
					c-3.8,2.8-7.1,3.8-10.6,2.8c-2.1-1-3.2-3.3-3.3-5.9C28.7,81.1,29.6,78.4,31.5,75.6z"/>
				<path class="st1" d="M80.4,71.7c0.9-0.6,1.8-0.8,2.8-0.9c0.1,0,0.3,0,0.4,0h13.1V60.7h-31v39.8h12.9v-9.7h15.9V80.7
					c0,0-7.1,0-8.8,0c-2.6,0.1-4.2,0.1-4.8,0c-0.6-0.1-1.2-0.5-1.8-1.2c-1.1-1.3-1.5-2.6-1.2-4S78.8,72.7,80.4,71.7L80.4,71.7z"/>
			</g>
		</g>
	</g>
</g>
</svg>
