<svg width="9" height="30" viewBox="0 0 9 30" fill="none" xmlns="http://www.w3.org/2000/svg">
<path d="M3.39564 3.91848C3.39564 3.61742 3.50273 3.36267 3.71244 3.1635C3.92662 2.96434 4.18096 2.86244 4.48884 2.86244C4.79673 2.86244 5.05999 2.96434 5.28309 3.1635C5.49727 3.36267 5.5999 3.61742 5.5999 3.91848V11.4497L8.99554 11.7508V4.27976C8.99554 3.10792 8.55379 2.10283 7.66584 1.26911C6.79127 0.421491 5.73376 0 4.48884 0C3.24393 0 2.19534 0.426123 1.31185 1.26911C0.437283 2.10283 0 3.10792 0 4.27976V16.4057L5.5999 16.9152V26.0954C5.5999 26.3872 5.49727 26.6327 5.28309 26.8365C5.05999 27.0357 4.79227 27.1376 4.48884 27.1376C4.18542 27.1376 3.92662 27.0357 3.71244 26.8365C3.49826 26.6327 3.39564 26.3872 3.39564 26.0954V18.5456L0 18.2399V26.1371C0.102628 27.2209 0.588994 28.138 1.45017 28.8837C2.31135 29.6295 3.32424 30 4.48884 30C5.65345 30 6.68418 29.6248 7.54983 28.8837C8.41101 28.138 8.89291 27.2163 9 26.1186V13.5804L3.39564 13.0709V3.91848Z" fill="#E84133"/>
</svg>
