<?xml version="1.0" encoding="utf-8"?>
<!-- Generator: Adobe Illustrator 26.3.1, SVG Export Plug-In . SVG Version: 6.00 Build 0)  -->
<svg version="1.1" id="Шар_1" xmlns="http://www.w3.org/2000/svg" xmlns:xlink="http://www.w3.org/1999/xlink" x="0px" y="0px"
	 viewBox="0 0 53.6 29.3" style="enable-background:new 0 0 53.6 29.3;" xml:space="preserve">
<style type="text/css">
	.st0{fill:#E6382F;}
</style>
<g>
	<g>
		<path class="st0" d="M40.6,0.7v20.6l2.8,0.2V0.9c0-0.3-0.2-0.5-0.5-0.5l-1.8-0.2C40.9,0.2,40.6,0.4,40.6,0.7z"/>
		<path class="st0" d="M36.9,6.2c-0.7-0.7-1.6-1-2.7-1c-1,0-1.9,0.3-2.7,1c-0.7,0.7-1.1,1.5-1.1,2.5V29l2.8,0.2V24
			c0.3,0.3,0.8,0.4,1.6,0.4c2.1,0,3.2-1.1,3.2-3.2c0,0,0-0.1,0-0.1V8.7C38.1,7.7,37.7,6.9,36.9,6.2z M35.2,21.3
			c0,0.2-0.1,0.4-0.3,0.6c-0.2,0.2-0.4,0.2-0.7,0.2s-0.5-0.1-0.7-0.2c-0.2-0.2-0.3-0.4-0.3-0.6V8.4c0-0.2,0.1-0.4,0.3-0.6
			c0.2-0.2,0.4-0.2,0.7-0.2s0.5,0.1,0.7,0.2c0.2,0.2,0.3,0.4,0.3,0.6V21.3z"/>
		<path class="st0" d="M53.6,15.9V8.7c0-1-0.4-1.8-1.1-2.5c-0.7-0.7-1.6-1-2.7-1c-1,0-1.9,0.3-2.7,1C46.4,6.9,46,7.7,46,8.7V21
			c0,0.3,0,0.6,0.1,0.9c0.2,0.6,0.5,1.1,1,1.6c0.7,0.7,1.6,1,2.7,1c1.1,0,1.9-0.3,2.7-1c0.4-0.3,0.6-0.7,0.8-1.1
			c0.2-0.4,0.3-0.9,0.3-1.4v-3.6l-2.9-0.3v4.2c0,0.2-0.1,0.4-0.3,0.6c-0.2,0.2-0.4,0.2-0.7,0.2h0c-0.1,0-0.1,0-0.2,0h0
			c-0.2,0-0.3-0.1-0.5-0.2c-0.2-0.2-0.3-0.4-0.3-0.6v-5.8L53.6,15.9z M48.8,8.4c0-0.2,0.1-0.4,0.3-0.6c0.2-0.2,0.4-0.2,0.7-0.2
			s0.5,0.1,0.7,0.2c0.2,0.2,0.3,0.4,0.3,0.6v4.3l-1.9-0.2V8.4z"/>
		<path class="st0" d="M7.6,11.1l-4.7-0.4l0-7.4C2.9,3,3,2.8,3.1,2.6c0.2-0.2,0.4-0.2,0.7-0.2c0.3,0,0.5,0.1,0.7,0.2
			C4.6,2.8,4.7,3,4.7,3.2v6.1l2.9,0.2V3.5c0-1-0.4-1.8-1.1-2.4c-0.7-0.7-1.6-1-2.7-1c-1,0-1.9,0.3-2.7,1C0.4,1.8,0,2.6,0,3.5v9.9
			l4.7,0.4v7.5c0,0.2-0.1,0.4-0.3,0.6C4.3,22,4,22.1,3.8,22.1c-0.3,0-0.5-0.1-0.7-0.2c-0.2-0.2-0.3-0.4-0.3-0.6v-6.1L0,14.9v6.4
			c0.1,0.9,0.5,1.6,1.2,2.2c0.7,0.6,1.6,0.9,2.6,0.9c1,0,1.9-0.3,2.6-0.9c0.7-0.6,1.1-1.4,1.2-2.2L7.6,11.1z"/>
		<g>
			<polygon class="st0" points="12.6,13.2 13,13.2 13,15.7 10.2,15.4 10.2,13 10.5,13 			"/>
			<polygon class="st0" points="18.4,15.8 18.4,16.1 15.6,15.9 15.6,13.5 16,13.5 18,13.7 18.4,13.7 18.4,14.1 18.4,14.4 18.4,15 
				18.4,15.3 			"/>
			<polygon class="st0" points="22.8,14.1 23.2,14.1 23.2,14.5 23.2,14.8 23.2,15.4 23.2,15.7 23.2,16.2 23.2,16.5 20.3,16.3 
				20.3,13.9 20.7,13.9 			"/>
			<polygon class="st0" points="27.9,14.5 27.9,16.9 25.1,16.7 25.1,14.3 25.5,14.3 27.5,14.5 			"/>
			<polygon class="st0" points="12.6,10.1 13,10.1 13,12.5 10.2,12.3 10.2,9.9 10.5,9.9 			"/>
			<polygon class="st0" points="18.4,12.3 18.4,12.7 18.4,13 15.6,12.8 15.6,10.3 16,10.3 18,10.5 18.4,10.6 18.4,10.6 18.4,10.9 
				18.4,11.5 18.4,11.8 			"/>
			<polygon class="st0" points="22.8,10.9 23.2,11 23.2,11 23.2,11.3 23.2,11.9 23.2,12.2 23.2,12.8 23.2,13.1 23.2,13.4 20.3,13.2 
				20.3,10.7 20.7,10.7 			"/>
			<polygon class="st0" points="27.9,11.4 27.9,13.8 25.1,13.6 25.1,11.1 			"/>
			<polygon class="st0" points="13,7.1 13,9.4 10.2,9.2 10.2,6.8 			"/>
			<path class="st0" d="M23.7,7.9c0,0-0.5,0.1-0.5,0.5c0,0.1,0,1.9,0,1.9L20.3,10V8.8c0,0,0-1-0.9-1c-0.3,0-0.5,0.1-0.7,0.2
				c-0.1,0.1-0.2,0.2-0.2,0.3c-0.1,0.2-0.1,0.4-0.1,0.4v0.1l0,0.3l0,0.7l-2.9-0.2V7.3L23.7,7.9z"/>
			<path class="st0" d="M27.9,10.7l-2.9-0.3l0-1.7c0-0.1,0.1-0.4-0.4-0.7l3.2,0.3V10.7z"/>
			<path class="st0" d="M13,5.2c0,0,0,0.1,0,0.1v1l-0.4,0l-2.1-0.2l-0.3,0v-1c0-0.1,0-0.2,0.1-0.3c0.1-0.1,0.2-0.1,0.3-0.1
				c0,0,0,0,0,0L12.7,5c0.1,0,0.2,0.1,0.2,0.1C12.9,5.1,13,5.2,13,5.2L13,5.2z"/>
			<path class="st0" d="M27.9,7.6l-0.6,0L16,6.6l-0.4,0V5.8c0-0.3,0.3-0.5,0.5-0.5l2.4,0.2c0.1,0,0.2,0,0.2,0.1c0,0,0.1,0.1,0.1,0.1
				c0,0,0,0,0,0c0,0,0.1,0,0.1,0c0,0,0,0,0,0c0.5-0.3,1.1-0.4,1.7-0.4c0.8,0,1.4,0.2,1.9,0.7c0.1,0.1,0.1,0.1,0.2,0.2c0,0,0,0,0,0
				c0-0.1,0.1-0.1,0.2-0.2c0.5-0.5,1.3-0.7,2.2-0.7c1,0,2.4,0.4,2.8,2C27.9,7.3,27.9,7.6,27.9,7.6z"/>
			<polygon class="st0" points="15.6,16.6 15.6,19.1 18.4,19.3 18.4,16.8 			"/>
			<polygon class="st0" points="20.3,17 20.3,19.5 23.2,19.7 23.2,17.2 			"/>
			<polygon class="st0" points="25.1,17.4 25,19.9 27.9,20.2 27.9,17.6 			"/>
			<polyline class="st0" points="10.2,16.1 10.2,18.6 13,18.9 13,16.4 10.2,16.1 			"/>
		</g>
		<path class="st0" d="M10.7,0.6l1.8,0.2C12.8,0.8,13,1,13,1.3L13,3c0,0.3-0.3,0.5-0.5,0.5l-1.8-0.2c-0.3,0-0.5-0.2-0.5-0.5l0-1.7
			C10.2,0.8,10.4,0.6,10.7,0.6z"/>
	</g>
</g>
</svg>
