<?xml version="1.0" encoding="UTF-8"?><svg id="_ар_2" xmlns="http://www.w3.org/2000/svg" viewBox="0 0 813.46 1000"><defs><style>.cls-1{fill:#fff;}</style></defs><g id="_ар_1-2"><g><g><path class="cls-1" d="M222.62,596.64h64.98v122.07h-49.5v-73.98h-46.46v89.99c0,14.46,10.33,27.36,24.78,29.94,2.06,.52,4.13,.52,6.19,.52h80.47c17.03,0,30.97-13.94,30.97-30.87V0h-46.45V550.18h-49.5V0h-46.46V566.18c0,16.52,14.45,30.46,30.97,30.46Z"/><polygon class="cls-1" points="410.3 503.67 430.95 483.02 430.95 0 384.49 0 384.49 503.67 410.3 503.67"/><polygon class="cls-1" points="574.86 596.61 574.86 764.89 621.31 764.89 621.31 596.61 646.8 596.61 646.8 550.15 621.31 550.15 621.31 0 574.86 0 574.86 550.15 524.84 550.15 524.84 0 478.48 0 478.91 596.61 574.86 596.61"/><polygon class="cls-1" points="96.38 596.78 96.38 764.89 142.83 764.89 142.83 596.78 167.31 596.78 167.31 550.32 142.83 550.32 142.83 0 96.38 0 96.38 550.32 46.36 550.32 46.36 0 0 0 .43 596.78 96.38 596.78"/><rect class="cls-1" x="670.38" width="46.46" height="503.63"/><path class="cls-1" d="M764.97,550.25h-50.03v46.46h50.03v121.72h-48.01v-71.4h-46.46v87.41c0,14.46,10.33,27.36,24.78,29.94,2.06,.52,4.13,.52,6.19,.52h78.99c17.03,0,30.97-13.94,30.97-30.46v-133.08c0-12.91-7.74-27.35-21.68-30.46,13.94-3.1,21.68-12.38,21.68-25.29V0h-46.45V550.25Z"/></g><g><path class="cls-1" d="M112.88,982.63h-7.91v16.34h-9.51v-16.34h-25.59v-7.91l25.02-51.86h10.08v51.6h7.91v8.17Zm-17.47-8.17v-27.25c0-.72,.02-1.6,.05-2.64,.03-1.03,.07-2.1,.1-3.2,.04-1.1,.07-2.14,.1-3.1,.04-.97,.07-1.76,.1-2.38h-.35c-.55,1.62-1.14,3.18-1.73,4.68-.61,1.5-1.21,2.94-1.84,4.32l-13.6,29.57h17.17Z"/><path class="cls-1" d="M155.64,954.97c0,5.62-.31,10.78-.93,15.48-.62,4.7-1.59,8.88-2.89,12.54-1.31,3.65-2.97,6.74-4.99,9.25-2.01,2.52-4.41,4.44-7.18,5.76-2.78,1.32-5.95,1.99-9.53,1.99-1.38,0-2.87-.11-4.48-.34-1.6-.22-2.95-.47-4.05-.75v-8.64c1.14,.41,2.38,.73,3.75,.96s2.82,.34,4.37,.34c3.93,0,7.09-1.3,9.49-3.9,2.4-2.6,4.17-6.08,5.32-10.44,1.16-4.36,1.81-9.18,1.94-14.45h-.41c-.73,1.76-1.66,3.28-2.82,4.57-1.16,1.29-2.5,2.3-4.04,3.02-1.53,.73-3.25,1.09-5.14,1.09-3.55,0-6.5-1.04-8.84-3.13-2.35-2.08-4.09-4.94-5.25-8.56-1.15-3.62-1.73-7.69-1.73-12.2,0-4.89,.69-9.25,2.07-13.06,1.38-3.81,3.44-6.8,6.18-8.97,2.74-2.17,6.18-3.26,10.32-3.26,3.04,0,5.73,.72,8.09,2.15,2.37,1.43,4.34,3.54,5.92,6.34,1.59,2.79,2.79,6.21,3.62,10.26,.83,4.05,1.24,8.69,1.24,13.94Zm-18.87-24.04c-2.86,0-5.06,1.35-6.59,4.06-1.53,2.71-2.29,6.82-2.29,12.33,0,5.1,.72,9,2.17,11.69,1.45,2.69,3.62,4.03,6.51,4.03,2.11,0,3.84-.65,5.22-1.96,1.38-1.31,2.4-2.99,3.05-5.04,.65-2.05,.99-4.2,.99-6.44,0-1.69-.13-3.59-.36-5.71-.24-2.12-.69-4.16-1.32-6.12-.64-1.97-1.55-3.6-2.74-4.89-1.19-1.29-2.73-1.94-4.63-1.94Z"/><path class="cls-1" d="M177.15,923.38l-1.65,27.3h-7.29l-1.76-27.3h10.7Z"/><path class="cls-1" d="M227.66,982.63h-7.91v16.34h-9.51v-16.34h-25.59v-7.91l25.02-51.86h10.08v51.6h7.91v8.17Zm-17.47-8.17v-27.25c0-.72,.02-1.6,.05-2.64,.03-1.03,.07-2.1,.1-3.2,.04-1.1,.07-2.14,.1-3.1,.04-.97,.07-1.76,.1-2.38h-.35c-.55,1.62-1.14,3.18-1.73,4.68-.61,1.5-1.21,2.94-1.84,4.32l-13.6,29.57h17.17Z"/><path class="cls-1" d="M269.02,940.9c0,2.93-.48,5.6-1.44,8.02-.97,2.41-2.38,4.49-4.24,6.23s-4.16,3.11-6.88,4.11v.36c4.48,1,7.91,3.08,10.29,6.26,2.37,3.17,3.56,7.27,3.56,12.3,0,4.35-.84,8.16-2.53,11.45-1.69,3.29-4.13,5.84-7.32,7.65-3.19,1.81-7.04,2.71-11.55,2.71-3.1,0-5.91-.24-8.43-.72-2.52-.48-4.99-1.31-7.44-2.48v-9.46c2.31,1.38,4.72,2.43,7.24,3.15,2.52,.72,5.02,1.08,7.5,1.08,4.23,0,7.37-1.27,9.38-3.8,2.01-2.54,3.02-5.89,3.02-10.06,0-3-.56-5.5-1.68-7.52-1.12-2.01-2.81-3.52-5.06-4.52-2.26-1-5.08-1.5-8.45-1.5h-3.88v-8.38h4.13c2.97,0,5.5-.57,7.6-1.71,2.11-1.14,3.72-2.75,4.86-4.83,1.14-2.09,1.71-4.54,1.71-7.37,0-3.55-.86-6.29-2.59-8.22-1.73-1.93-4.19-2.89-7.39-2.89-1.59,0-3.06,.2-4.42,.59-1.36,.4-2.68,.98-3.96,1.76-1.27,.78-2.56,1.75-3.87,2.92l-4.4-6.88c2.76-2.44,5.58-4.2,8.45-5.27,2.88-1.07,6.1-1.6,9.64-1.6,5.62,0,10.05,1.65,13.29,4.94,3.24,3.29,4.86,7.85,4.86,13.67Z"/><path class="cls-1" d="M345.6,930.98c-2.79,0-5.2,.79-7.23,2.38-2.03,1.59-3.7,3.79-4.99,6.59-1.29,2.81-2.24,6.03-2.85,9.67-.6,3.64-.9,7.5-.9,11.61,0,6.27,.67,11.65,2.01,16.13,1.35,4.48,3.26,7.92,5.74,10.32,2.48,2.4,5.41,3.6,8.79,3.6,2.21,0,4.29-.3,6.23-.91,1.95-.6,3.77-1.35,5.46-2.25v8.84c-1.76,1.03-3.71,1.8-5.87,2.3-2.15,.5-4.49,.75-7,.75-5.28,0-9.83-1.54-13.65-4.63-3.82-3.08-6.77-7.52-8.82-13.31-2.05-5.79-3.08-12.77-3.08-20.94,0-5.41,.54-10.47,1.6-15.17,1.07-4.7,2.67-8.84,4.81-12.41s4.82-6.35,8.04-8.35c3.23-2,6.97-3,11.25-3,2.62,0,5.15,.34,7.58,1.01,2.43,.67,4.76,1.66,7,2.97l-3.26,8.22c-1.66-1.06-3.38-1.9-5.17-2.51-1.8-.6-3.69-.9-5.69-.9Z"/><path class="cls-1" d="M416.22,961.07c0,5.55-.47,10.69-1.4,15.43s-2.36,8.87-4.29,12.38c-1.93,3.52-4.43,6.25-7.52,8.2-3.08,1.94-6.8,2.92-11.14,2.92s-8.18-1-11.3-3c-3.12-2-5.65-4.76-7.57-8.3-1.93-3.53-3.35-7.67-4.27-12.41-.91-4.74-1.37-9.85-1.37-15.33,0-8.58,.92-15.75,2.77-21.48,1.85-5.74,4.58-10.05,8.22-12.93,3.64-2.88,8.15-4.32,13.53-4.32,5.75,0,10.42,1.68,13.98,5.04,3.56,3.36,6.18,7.97,7.85,13.81,1.67,5.84,2.51,12.5,2.51,19.98Zm-38.67,0c0,6.59,.54,12.12,1.62,16.6,1.09,4.48,2.69,7.85,4.81,10.11,2.12,2.26,4.71,3.38,7.78,3.38s5.76-1.1,7.86-3.31c2.11-2.2,3.68-5.55,4.73-10.03,1.05-4.48,1.58-10.06,1.58-16.75,0-10-1.18-17.5-3.52-22.52-2.34-5.02-5.86-7.52-10.54-7.52-3.18,0-5.82,1.13-7.94,3.39-2.12,2.26-3.71,5.62-4.78,10.08-1.07,4.46-1.6,9.99-1.6,16.57Z"/><path class="cls-1" d="M438.61,998.97h-9.83v-75.59h30.76v8.58h-20.94v26.32h19.7v8.69h-19.7v32Z"/><path class="cls-1" d="M479.51,998.97h-9.83v-75.59h30.76v8.58h-20.94v26.32h19.7v8.69h-19.7v32Z"/><path class="cls-1" d="M541.4,998.97h-30.82v-75.59h30.82v8.58h-20.99v23.27h19.64v8.63h-19.64v26.32h20.99v8.79Z"/><path class="cls-1" d="M584.41,998.97h-30.82v-75.59h30.82v8.58h-20.99v23.27h19.64v8.63h-19.64v26.32h20.99v8.79Z"/><path class="cls-1" d="M648.94,977.98c0,4.34-.84,8.17-2.53,11.48-1.69,3.31-4.06,5.89-7.11,7.75-3.05,1.86-6.63,2.79-10.73,2.79-2,0-3.93-.12-5.79-.36-1.86-.24-3.64-.62-5.35-1.11-1.7-.5-3.35-1.15-4.94-1.94v-10.13c2.45,1.45,5.07,2.54,7.86,3.28,2.79,.74,5.38,1.11,7.75,1.11s4.36-.54,5.95-1.6c1.59-1.07,2.8-2.51,3.64-4.32,.84-1.81,1.27-3.82,1.27-6.02s-.35-4.27-1.06-5.9c-.71-1.62-1.89-3.12-3.55-4.5-1.65-1.38-3.93-2.84-6.82-4.39-2.21-1.24-4.2-2.51-5.99-3.8-1.8-1.29-3.33-2.75-4.61-4.37-1.28-1.62-2.25-3.53-2.92-5.71-.68-2.19-1.01-4.78-1.01-7.78-.07-4.03,.73-7.57,2.37-10.6,1.66-3.03,3.98-5.39,6.98-7.08,3-1.69,6.47-2.52,10.39-2.48,2.93,0,5.74,.37,8.43,1.11,2.69,.74,5.08,1.66,7.18,2.77l-3.05,8.89c-2.17-1.24-4.3-2.16-6.38-2.77-2.09-.6-4.06-.9-5.92-.9-2.14,0-3.97,.46-5.48,1.37-1.51,.91-2.67,2.16-3.46,3.75-.8,1.59-1.19,3.41-1.19,5.48,0,2.45,.35,4.47,1.06,6.08,.71,1.6,1.91,3.06,3.6,4.37,1.69,1.31,3.98,2.76,6.88,4.35,3.24,1.72,5.94,3.58,8.09,5.58,2.15,2,3.76,4.27,4.83,6.8,1.06,2.54,1.6,5.47,1.6,8.82Z"/><path class="cls-1" d="M702.55,998.97h-9.82v-35.11h-22.59v35.11h-9.83v-75.59h9.83v31.69h22.59v-31.69h9.82v75.59Z"/><path class="cls-1" d="M763.97,961.07c0,5.55-.47,10.69-1.4,15.43-.93,4.74-2.36,8.87-4.29,12.38-1.93,3.52-4.43,6.25-7.52,8.2-3.08,1.94-6.8,2.92-11.14,2.92s-8.18-1-11.3-3c-3.12-2-5.65-4.76-7.57-8.3-1.93-3.53-3.35-7.67-4.27-12.41-.91-4.74-1.37-9.85-1.37-15.33,0-8.58,.92-15.75,2.77-21.48,1.85-5.74,4.58-10.05,8.22-12.93,3.64-2.88,8.15-4.32,13.53-4.32,5.75,0,10.42,1.68,13.98,5.04,3.56,3.36,6.18,7.97,7.85,13.81,1.67,5.84,2.51,12.5,2.51,19.98Zm-38.67,0c0,6.59,.54,12.12,1.62,16.6,1.09,4.48,2.69,7.85,4.81,10.11,2.12,2.26,4.71,3.38,7.78,3.38s5.76-1.1,7.86-3.31c2.11-2.2,3.68-5.55,4.73-10.03,1.05-4.48,1.58-10.06,1.58-16.75,0-10-1.18-17.5-3.52-22.52-2.34-5.02-5.86-7.52-10.54-7.52-3.18,0-5.82,1.13-7.94,3.39-2.12,2.26-3.71,5.62-4.78,10.08-1.07,4.46-1.6,9.99-1.6,16.57Z"/><path class="cls-1" d="M791.48,923.38c7.48,0,13.01,1.84,16.59,5.53,3.59,3.69,5.38,9.32,5.38,16.9,0,3.86-.46,7.29-1.37,10.29-.91,3-2.29,5.52-4.13,7.57-1.85,2.05-4.16,3.61-6.96,4.68-2.79,1.07-6.06,1.6-9.82,1.6h-4.81v29.01h-9.83v-75.59h14.94Zm-.47,8.53h-4.65v29.47h3.93c3.07,0,5.58-.52,7.52-1.55,1.95-1.03,3.39-2.69,4.35-4.99,.95-2.29,1.42-5.26,1.42-8.92,0-4.96-1.03-8.54-3.08-10.73-2.05-2.19-5.21-3.28-9.49-3.28Z"/></g></g></g></svg>