<svg width="34" height="33" viewBox="0 0 34 33" fill="none" xmlns="http://www.w3.org/2000/svg">
<path d="M9.32617 24.9962H12.0495V30.1119H9.97559V27.0114H8.02734V30.7822C8.02734 31.3897 8.45889 31.9302 9.06641 32.035C9.15439 32.0559 9.23819 32.0559 9.32617 32.0559H12.6989C13.4112 32.0559 13.9978 31.4735 13.9978 30.7613V-3.05176e-05H12.0495V23.0521H9.97559V-3.05176e-05H8.02734V23.7225C8.02734 24.4138 8.63486 24.9962 9.32617 24.9962Z" fill="white"/>
<path d="M17.1903 21.1039L18.0534 20.2366V-3.05176e-05H16.1094V21.1039H17.1903Z" fill="white"/>
<path d="M24.0826 24.9961V32.0475H26.0308V24.9961H27.0992V23.0521H26.0308V-3.05176e-05H24.0826V23.0521H21.9877V-3.05176e-05H20.0479L20.0646 24.9961H24.0826Z" fill="white"/>
<path d="M4.03894 25.0046V32.0476H5.983V25.0046H7.00949V23.0563H5.983V0H4.03894V23.0563H1.93986V0H0L0.0167588 25.0046H4.03894Z" fill="white"/>
<path d="M30.0361 -3.05176e-05H28.0879V21.0997H30.0361V-3.05176e-05Z" fill="white"/>
<path d="M32.0521 23.0521H29.9572V25.0003H32.0521V30.0993H30.041V27.1078H28.0928V30.7697C28.0928 31.3772 28.5243 31.9177 29.1318 32.0224C29.2198 32.0433 29.3036 32.0433 29.3916 32.0433H32.7015C33.4138 32.0433 34.0004 31.461 34.0004 30.7655V25.1931C34.0004 24.6526 33.6777 24.0451 33.0912 23.9152C33.6735 23.7853 34.0004 23.3957 34.0004 22.8552V-3.05176e-05H32.0521V23.0521Z" fill="white"/>
</svg>
