<svg width="31" height="30" viewBox="0 0 31 30" fill="none" xmlns="http://www.w3.org/2000/svg">
<path d="M0 14.3495C0.0188107 14.1426 0.0376212 13.9357 0.0564319 13.7476C0.0940533 13.4654 0.225728 13.2397 0.376214 13.014C0.489078 12.8447 0.54551 12.6566 0.56432 12.4496C0.583131 11.9229 0.677184 11.3962 0.771238 10.8883C0.902912 10.0983 1.10983 9.32706 1.37318 8.59345C1.67415 7.78459 2.05036 6.99454 2.53944 6.27973C2.76517 5.94114 2.97209 5.58374 3.19782 5.24514C3.55522 4.71844 3.95024 4.22937 4.4017 3.77791C4.68386 3.49575 4.9284 3.21359 5.21056 2.93143C5.49272 2.66808 5.77488 2.40473 6.11347 2.21662C6.28277 2.12257 6.47087 2.04733 6.65898 1.97209C7.09163 1.80279 7.48665 1.53944 7.88168 1.2949C8.03216 1.18204 8.20146 1.10679 8.38956 1.03155C8.65291 0.937498 8.76578 1.03155 8.89745 1.25728C8.93507 1.31371 8.93507 1.40777 8.91626 1.4642C8.89745 1.55825 8.84102 1.63349 8.8034 1.72755C8.76578 1.8216 8.74697 1.89684 8.78459 1.9909C8.84102 2.08495 8.87864 2.179 8.95388 2.25425C9.02913 2.36711 9.06675 2.47997 9.06675 2.61165C9.06675 2.79976 9.29248 2.95024 9.46177 2.85619C9.78156 2.68689 10.1013 2.49878 10.4399 2.3483C10.628 2.25425 10.8161 2.19781 11.0231 2.12257C11.23 2.04733 11.4557 1.95327 11.6626 1.85922C11.7567 1.8216 11.8319 1.72755 11.926 1.67111C12.02 1.59587 12.1329 1.52063 12.2269 1.44539C12.321 1.38895 12.4151 1.37014 12.5091 1.42658C12.7725 1.57706 13.017 1.55825 13.2803 1.4642C13.5437 1.38895 13.8259 1.37014 14.0892 1.35133C14.4278 1.33252 14.7664 1.31371 15.105 1.31371C15.3119 1.31371 15.5188 1.35133 15.7257 1.38895C15.8574 1.40776 15.895 1.48301 15.895 1.63349C15.895 1.74636 15.8574 1.8216 15.7445 1.84041C15.4812 1.91565 15.2178 1.9909 14.9357 2.02852C14.5783 2.06614 14.2397 2.14138 13.8823 2.21662C13.6189 2.27306 13.3556 2.31068 13.111 2.38592C12.622 2.53641 12.1141 2.7057 11.625 2.89381C11.3052 2.98786 11.0042 3.15716 10.7221 3.34527C10.4211 3.53337 10.1201 3.72148 9.81918 3.89078C9.31129 4.15413 8.93507 4.54915 8.59648 4.98179C8.48362 5.13228 8.35194 5.28277 8.25789 5.43325C8.18265 5.54612 8.1074 5.65898 8.06978 5.79065C7.97573 6.03519 7.80643 6.18568 7.63714 6.37379C7.50546 6.52427 7.37379 6.65595 7.26092 6.80643C7.16687 6.9193 7.07282 7.05097 6.97876 7.18265C6.8659 7.33313 6.73422 7.4648 6.62136 7.61529C6.48968 7.8034 6.3392 7.9915 6.20753 8.17961C5.9818 8.5182 5.77488 8.87561 5.47391 9.17658C5.34223 9.30825 5.26699 9.49636 5.21056 9.68447C5.1165 9.96663 4.98483 10.2488 4.87197 10.5309C4.79672 10.7567 4.70267 11.0012 4.66505 11.2458C4.571 11.6972 4.51456 12.1487 4.43932 12.6189C4.4017 12.8635 4.45813 13.0892 4.53337 13.3149C4.60862 13.5783 4.62743 13.8416 4.60862 14.105C4.58981 14.2555 4.62743 14.3871 4.60862 14.5376C4.58981 14.6881 4.58981 14.8386 4.53337 14.9891C4.36408 15.4217 4.30765 15.8732 4.36408 16.3434C4.4017 16.682 4.45813 17.0018 4.571 17.3216C4.68386 17.6978 4.79672 18.074 4.90959 18.4691C5.02245 18.8641 5.17294 19.2403 5.36104 19.5977C5.43629 19.7482 5.56796 19.8987 5.66201 20.0492C5.77488 20.2561 5.90655 20.463 6.00061 20.6699C6.20753 21.1214 6.48968 21.5164 6.80947 21.8738C6.94114 22.0431 7.05401 22.2312 7.20449 22.4005C7.35498 22.5698 7.52427 22.7203 7.69357 22.8708C7.90049 23.0589 8.12621 23.247 8.35194 23.4351C8.61529 23.642 8.87864 23.8301 9.14199 24.037C9.27367 24.1311 9.40534 24.2251 9.53702 24.3004C9.72512 24.3944 9.89442 24.4885 10.0825 24.5825C10.3835 24.733 10.7033 24.8647 11.0042 25.0152C11.2864 25.1468 11.5309 25.2973 11.8507 25.335C12.0953 25.3726 12.3586 25.4102 12.6032 25.4666C12.7913 25.5043 12.9982 25.5607 13.1863 25.6359C13.2992 25.6735 13.412 25.73 13.5061 25.8052C13.7882 26.0309 14.1833 26.0121 14.5218 26.125C14.7664 26.2191 15.0109 26.3131 15.2555 26.4072C15.5376 26.5012 15.801 26.6141 16.0831 26.7081C16.196 26.7458 16.3089 26.8774 16.3089 26.9715C16.3277 27.122 16.2524 27.216 16.1019 27.2536C15.9138 27.2913 15.7445 27.3289 15.5564 27.3665C15.1614 27.4041 14.7664 27.4606 14.3714 27.4794C13.9951 27.4982 13.6001 27.4982 13.2239 27.4418C12.8665 27.3853 12.5279 27.4229 12.1893 27.4418C11.7379 27.4606 11.324 27.3477 10.9478 27.0843C10.7221 26.9339 10.4964 26.7834 10.3083 26.5953C10.233 26.52 10.1578 26.4448 10.1013 26.3507C9.91323 26.1062 9.6875 25.9181 9.40534 25.7864C9.31129 25.7488 9.19842 25.73 9.12318 25.7864C9.01032 25.8805 8.91626 25.9557 8.95388 26.125C8.9727 26.1814 8.97269 26.2379 8.97269 26.2943C8.97269 26.4824 9.08556 26.6329 9.19842 26.7646C9.34891 26.9715 9.55583 27.1408 9.64988 27.3853C9.70631 27.517 9.70631 27.6299 9.63107 27.7615C9.48058 28.0061 9.23605 28.1001 8.89745 28.0625C8.57767 28.0249 8.29551 27.8744 8.03216 27.7051C7.86286 27.5922 7.71238 27.4982 7.56189 27.3665C7.44903 27.2725 7.35498 27.1596 7.24211 27.0655C7.14806 26.9715 7.0352 26.9151 6.94114 26.821C6.79066 26.6893 6.64017 26.5388 6.47087 26.3884C6.11347 26.0686 5.75607 25.7488 5.41748 25.4102C5.0977 25.0904 4.77791 24.7518 4.47694 24.4132C4.0443 23.943 3.66808 23.4351 3.32949 22.8896C2.95328 22.2688 2.57706 21.6292 2.33252 20.9333C2.2949 20.8392 2.27609 20.7263 2.25728 20.6323C2.21966 20.4254 2.35133 20.2184 2.55825 20.1808C2.6335 20.162 2.74636 20.1996 2.8216 20.2561C2.93447 20.3313 3.04733 20.4254 3.16019 20.5006C3.29187 20.5759 3.36711 20.5382 3.3483 20.4066C3.32949 20.1996 3.44235 20.068 3.49879 19.8987C3.5176 19.8234 3.57403 19.767 3.59284 19.6917C3.61165 19.5977 3.63046 19.5036 3.61165 19.4096C3.55522 19.165 3.46117 18.9017 3.38592 18.6572C3.32949 18.4879 3.19782 18.3562 3.02852 18.2998C2.91566 18.2433 2.80279 18.2998 2.72755 18.375C2.57706 18.5067 2.44539 18.6572 2.31371 18.7888C2.06917 19.0334 1.7682 19.0522 1.48604 18.8453C1.27913 18.6948 1.12864 18.4879 1.03459 18.2433C0.790049 17.6226 0.620753 16.9642 0.54551 16.3058C0.507889 16.0613 0.413835 15.8167 0.319782 15.591C0.206918 15.29 0.150486 14.9891 0.131675 14.6693C0.0188108 14.5 0.0188107 14.4248 0 14.3495ZM6.15109 23.4727C6.15109 23.4539 6.1699 23.4539 6.1699 23.4351C6.11347 23.3786 6.05704 23.3034 6.01942 23.247C5.90655 22.9836 5.71845 22.7767 5.54915 22.551C5.4551 22.4193 5.22937 22.4193 5.13532 22.5322C5.04126 22.645 5.00364 23.0212 5.1165 23.1905C5.2858 23.4351 5.53034 23.4727 5.79369 23.4915C5.85012 23.4915 5.90655 23.4351 5.9818 23.4351C6.03823 23.4351 6.09466 23.4539 6.15109 23.4727Z" fill="black"/>
<path d="M26.7113 20.1244C26.7678 19.861 26.843 19.5977 26.9182 19.3343C26.9371 19.2967 26.9182 19.2403 26.9182 19.1839C26.8994 18.8641 27.0123 18.5819 27.1252 18.2998C27.2945 17.8859 27.4261 17.4533 27.5954 17.0394C27.6519 16.9078 27.7083 16.7949 27.7647 16.6632C27.8023 16.5504 27.84 16.4375 27.84 16.3246C27.84 16.0049 27.9152 15.7039 28.0093 15.4029C28.0657 15.2148 28.0845 15.0267 28.1033 14.8198C28.1221 14.6317 28.1409 14.4436 28.1409 14.2555C28.1409 14.1238 28.1409 13.9921 28.1409 13.8604C28.1409 13.6723 28.1598 13.4654 28.1598 13.2773C28.1409 12.6754 28.0657 12.0922 27.9152 11.5091C27.8023 11.0765 27.6895 10.6626 27.5202 10.2488C27.3321 9.81614 27.2004 9.3835 27.0123 8.95085C26.7678 8.38653 26.5044 7.82221 26.1658 7.29551C25.8084 6.76881 25.451 6.24211 25.0372 5.77185C24.4917 5.18871 23.9085 4.62439 23.2878 4.13532C22.968 3.89078 22.6294 3.66505 22.2908 3.47694C21.8017 3.19478 21.275 2.95024 20.7672 2.7057C20.3533 2.5176 19.9207 2.3483 19.5068 2.17901C19.4692 2.16019 19.4504 2.14138 19.4128 2.12257C19.2811 2.04733 19.2811 2.02852 19.2999 1.87803C19.3187 1.78398 19.394 1.74636 19.488 1.72755C19.7702 1.68993 20.0335 1.78398 20.2969 1.89684C20.3721 1.91566 20.4286 1.95328 20.5038 1.97209C20.9553 2.08495 21.3879 2.27306 21.7829 2.49879C22.573 2.91262 23.3442 3.34527 24.1155 3.79672C24.661 4.11651 25.15 4.53034 25.6015 4.9818C25.7708 5.15109 25.9213 5.32039 26.0906 5.48969C26.147 5.54612 26.2223 5.58374 26.2975 5.64017C26.3727 5.67779 26.4292 5.65898 26.4856 5.60255C26.542 5.54612 26.5232 5.48968 26.4856 5.43325C26.448 5.3392 26.3915 5.24515 26.3539 5.15109C26.3351 5.09466 26.3351 5.01942 26.3539 4.96299C26.3915 4.85012 26.542 4.8125 26.6361 4.88774C27.1064 5.30158 27.5202 5.73422 27.8212 6.27973C27.8964 6.41141 27.9528 6.54308 28.0093 6.67476C28.0469 6.75 28.0657 6.80643 28.0093 6.88168C27.934 6.95692 27.84 6.99454 27.7459 6.97573C27.7083 6.97573 27.6519 6.93811 27.6142 6.93811C27.5202 6.9193 27.4826 6.95692 27.5014 7.05097C27.539 7.29551 27.6331 7.52124 27.7459 7.74697C27.9528 8.14199 28.1598 8.53701 28.3479 8.93204C28.5172 9.30825 28.6488 9.68447 28.7805 10.0795C28.8181 10.1924 28.8934 10.1735 28.9686 10.1735C29.0439 10.1735 29.1191 10.1735 29.1567 10.0607C29.2131 9.89138 29.3448 9.81614 29.4953 9.87257C29.5329 9.89138 29.5706 9.929 29.5894 9.96663C29.6834 10.2488 29.7963 10.5121 29.8715 10.8131C29.9844 11.1893 30.0784 11.5843 30.1537 11.9606C30.2101 12.2239 30.2477 12.5061 30.3042 12.7694C30.3606 12.9951 30.4358 13.2021 30.5111 13.409C30.5863 13.6159 30.6616 13.8416 30.7368 14.0485C30.7744 14.1426 30.8121 14.2555 30.8121 14.3495C30.8121 14.4812 30.7744 14.6505 30.6992 14.7634C30.5487 15.0079 30.3606 15.2524 30.1725 15.4782C30.0972 15.5722 30.0032 15.591 29.8903 15.6286C29.721 15.6851 29.5706 15.7979 29.5141 15.986C29.4765 16.1365 29.4201 16.287 29.4201 16.4375C29.4201 16.6256 29.5329 16.7761 29.6646 16.9266C29.8715 17.1523 30.0032 17.4157 30.0408 17.7354C30.0784 18.0176 30.0408 18.2621 29.9091 18.5067C29.8151 18.6948 29.721 18.9017 29.627 19.0898C29.4953 19.3532 29.3072 19.5413 29.0062 19.6541C28.8934 19.6917 28.7805 19.767 28.6676 19.8234C28.63 19.8422 28.5736 19.861 28.536 19.8799C28.5172 19.8799 28.4983 19.8987 28.4795 19.9175C28.3667 20.0115 28.2726 20.1244 28.1598 20.1996C28.0093 20.2937 27.84 20.557 27.7083 20.6887C27.5202 20.8956 27.3321 20.9709 27.1064 21.1402C26.9182 21.2718 26.6361 21.1402 26.5985 20.8956C26.5797 20.8768 26.6737 20.3125 26.7113 20.1244Z" fill="black"/>
<path d="M15.7258 30C15.4813 29.9624 15.2367 29.9059 14.9922 29.8871C14.616 29.8307 14.2398 29.7931 13.8636 29.7555C13.4873 29.7178 13.1299 29.699 12.7725 29.5485C12.528 29.4357 12.3023 29.2664 12.1142 29.0783C12.0765 29.0407 12.0389 29.003 11.9825 28.9466C11.8884 28.8337 11.8696 28.7585 11.9449 28.6268C12.0013 28.5328 12.0954 28.4763 12.227 28.4951C12.3587 28.5328 12.4904 28.5704 12.6409 28.5892C12.7725 28.608 12.923 28.608 13.0547 28.5704C13.2428 28.5328 13.4121 28.5516 13.5814 28.6644C13.6754 28.7209 13.7883 28.7961 13.8824 28.8337C14.315 29.003 14.7477 29.1159 15.1803 28.8525C15.5377 28.6456 15.8763 28.6644 16.2337 28.7961C16.4218 28.8714 16.6287 28.8902 16.8356 28.8525C17.1742 28.7961 17.5128 28.7397 17.8514 28.6832C18.0207 28.6644 18.19 28.6644 18.3405 28.6832C18.6791 28.7397 19.0177 28.6832 19.3375 28.5892C19.582 28.514 19.8265 28.4387 20.0711 28.3635C20.3909 28.2694 20.7106 28.1377 21.0304 28.0437C21.275 27.9684 21.5195 27.912 21.764 28.0249C21.8393 28.0437 21.8205 28.1001 21.7829 28.1189C21.7076 28.1942 21.6324 28.2694 21.5383 28.3258C21.4255 28.4011 21.3126 28.4763 21.1997 28.5328C20.9928 28.6268 20.7671 28.7209 20.5602 28.8149C20.1651 28.9654 19.7889 29.1347 19.3939 29.2664C18.7543 29.4921 18.1148 29.699 17.4564 29.8307C17.2683 29.8683 17.0802 29.8683 16.9109 29.8871C16.6852 29.9059 16.4782 29.9248 16.2525 29.9436C16.102 29.9812 15.9327 30 15.7258 30Z" fill="black"/>
<path d="M7.76909 21.7233C7.6186 21.7045 7.50574 21.5916 7.41169 21.4411C7.35525 21.3471 7.33644 21.2718 7.37406 21.1778C7.4305 21.0273 7.50574 20.9709 7.65623 20.9709C7.82552 20.9709 8.10768 21.1966 8.1453 21.3659C8.1453 21.3847 8.1453 21.4035 8.1453 21.4223C8.1453 21.554 7.93839 21.7233 7.76909 21.7233Z" fill="black"/>
<path d="M10.6642 28.1942C10.6642 28.3258 10.4949 28.4763 10.3633 28.4763C10.2504 28.4763 10.0435 28.3258 10.0059 28.213C10.0059 28.1942 10.0059 28.1753 10.0059 28.1565C10.0247 27.9496 10.2504 27.8368 10.4385 27.9308C10.5514 27.9872 10.6454 28.0813 10.6642 28.1942Z" fill="black"/>
<path d="M8.74707 15.4782H9.81928V17.8107L11.2677 15.4782H12.434L10.8915 17.8671L12.5656 21.2907H11.3053L10.1579 18.8453L9.81928 19.3908V21.3095H8.74707V15.4782Z" fill="black"/>
<path d="M15.0483 20.162H13.6563L13.3742 21.2719H12.3584L13.8821 15.4782H14.9543L16.4779 21.2719H15.3493L15.0483 20.162ZM13.9573 19.0146H14.7474L14.3523 17.284L13.9573 19.0146Z" fill="black"/>
<path d="M15.6885 15.4782H16.8735L17.8141 19.372L18.717 15.4782H19.7892L18.3032 21.2719H17.231L15.6885 15.4782Z" fill="black"/>
<path d="M21.2183 19.1086L19.6758 15.4782H20.9173L21.7826 17.6414L22.6102 15.4782H23.7389L22.3093 19.1086V21.2719H21.2371V19.1086H21.2183Z" fill="black"/>
<path d="M10.3272 14.895C10.0262 14.895 9.76288 14.8386 9.51834 14.7257C9.2738 14.6129 9.06688 14.4436 8.87877 14.199C8.70948 13.9545 8.55899 13.6535 8.46494 13.2773C8.37089 12.9011 8.31445 12.4496 8.31445 11.9041V11.7536C8.31445 11.2458 8.37089 10.8131 8.46494 10.4369C8.55899 10.0795 8.70948 9.77853 8.89759 9.53399C9.08569 9.30826 9.29261 9.13896 9.53715 9.0261C9.78169 8.91323 10.045 8.8568 10.3272 8.8568C10.5717 8.8568 10.8163 8.89442 11.042 8.96967C11.2677 9.04491 11.4558 9.17659 11.6251 9.32707C11.7944 9.49637 11.9261 9.70328 12.039 9.96663C12.1518 10.23 12.2083 10.5498 12.2271 10.9448H11.0796C11.0608 10.7943 11.0232 10.6626 10.9856 10.5498C10.9479 10.4369 10.8915 10.3617 10.8163 10.2864C10.741 10.2112 10.6846 10.1736 10.5905 10.1359C10.5153 10.0983 10.4213 10.0983 10.346 10.0983C10.2143 10.0983 10.1015 10.1359 10.0074 10.1924C9.89455 10.2488 9.81931 10.3428 9.74407 10.4745C9.66882 10.6062 9.61239 10.7755 9.55596 10.9824C9.51834 11.1893 9.49953 11.4527 9.49953 11.7536V11.9229C9.49953 12.2427 9.51834 12.5061 9.57477 12.7318C9.6312 12.9575 9.68763 13.1268 9.76288 13.2585C9.83812 13.3902 9.93217 13.4842 10.0262 13.5407C10.1203 13.5971 10.2331 13.6347 10.346 13.6347C10.5529 13.6347 10.7222 13.5595 10.8539 13.4278C10.9856 13.2961 11.0608 13.0704 11.0796 12.7694H12.2271C12.2083 13.1644 12.1518 13.4842 12.0578 13.7476C11.9637 14.0109 11.8321 14.2367 11.6628 14.3871C11.4935 14.5564 11.3054 14.6693 11.0796 14.7445C10.8163 14.8574 10.5717 14.895 10.3272 14.895Z" fill="black"/>
<path d="M12.6592 8.98848H13.769V13.6535H15.4055V14.7822H12.6592V8.98848Z" fill="black"/>
<path d="M17.5122 14.895C17.23 14.895 16.9667 14.8386 16.7221 14.7446C16.4964 14.6505 16.2895 14.4812 16.1202 14.2931C15.9509 14.0862 15.838 13.8416 15.744 13.5407C15.6499 13.2397 15.6123 12.8823 15.6123 12.4873V8.98848H16.7221V12.2992C16.7221 12.7506 16.7786 13.0892 16.8914 13.3149C17.0043 13.5407 17.2112 13.6535 17.4934 13.6535C17.7943 13.6535 17.9824 13.5407 18.0953 13.3149C18.2082 13.0892 18.2646 12.7506 18.2646 12.2992V8.98848H19.3744V12.4685C19.3744 12.8635 19.3368 13.2209 19.2428 13.5219C19.1487 13.8228 19.0358 14.0862 18.8666 14.2743C18.6973 14.4812 18.5092 14.6317 18.2646 14.7257C18.0765 14.8386 17.8132 14.895 17.5122 14.895Z" fill="black"/>
<path d="M19.8828 8.98848H21.952C22.4599 8.98848 22.8361 9.12016 23.0618 9.38351C23.2875 9.64686 23.4004 10.0419 23.4004 10.531C23.4004 10.8319 23.344 11.0765 23.2311 11.3022C23.1183 11.5091 22.9678 11.6596 22.7608 11.7537C23.0242 11.8289 23.2123 11.9794 23.3628 12.2239C23.5133 12.4496 23.5885 12.7694 23.5885 13.1456C23.5885 13.6535 23.4568 14.0486 23.2123 14.3495C22.9678 14.6505 22.5539 14.7822 22.0084 14.7822H19.8828V8.98848ZM21.6886 11.2834C21.9332 11.2834 22.0837 11.227 22.1777 11.1329C22.253 11.0388 22.3094 10.8884 22.3094 10.7003C22.3094 10.5121 22.2718 10.3617 22.1777 10.2676C22.1025 10.1736 21.9332 10.1171 21.7074 10.1171H21.0115V11.2834H21.6886ZM21.7827 13.6347C22.046 13.6347 22.2341 13.5783 22.347 13.4654C22.4411 13.3526 22.4975 13.1833 22.4975 12.9575C22.4975 12.7318 22.4411 12.5625 22.347 12.4496C22.2341 12.3368 22.046 12.2804 21.7827 12.2804H21.0303V13.6159H21.7827V13.6347Z" fill="black"/>
</svg>
