<?xml version="1.0" encoding="utf-8"?>
<!-- Generator: Adobe Illustrator 26.3.1, SVG Export Plug-In . SVG Version: 6.00 Build 0)  -->
<svg version="1.1" id="Layer_1" xmlns="http://www.w3.org/2000/svg" xmlns:xlink="http://www.w3.org/1999/xlink" x="0px" y="0px"
	 viewBox="0 0 238.7 235.7" style="enable-background:new 0 0 238.7 235.7;" xml:space="preserve">
<g>
	<g>
		<g>
			<g>
				<g>
					<g>
						<path d="M2.6,116.5c0.1-1.6,0.3-3.2,0.4-4.6c0.3-2.1,1.3-3.9,2.4-5.6c0.9-1.3,1.3-2.7,1.4-4.3c0.1-4,0.9-8,1.6-11.9
							c1-6,2.6-11.9,4.6-17.5c2.3-6.2,5.2-12.2,8.9-17.6c1.7-2.6,3.3-5.3,5-7.9c2.7-4,5.7-7.7,9.2-11.2c2.1-2.1,4-4.3,6.2-6.4
							c2.1-2,4.3-4,6.9-5.4c1.3-0.7,2.7-1.3,4.2-1.9c3.3-1.3,6.3-3.3,9.3-5.2c1.1-0.9,2.4-1.4,3.9-2c2-0.7,2.9,0,3.9,1.7
							c0.3,0.4,0.3,1.1,0.1,1.6c-0.1,0.7-0.6,1.3-0.9,2c-0.3,0.7-0.4,1.3-0.1,2c0.4,0.7,0.7,1.4,1.3,2c0.6,0.9,0.9,1.7,0.9,2.7
							c0,1.4,1.7,2.6,3,1.9c2.4-1.3,4.9-2.7,7.5-3.9c1.4-0.7,2.9-1.1,4.4-1.7s3.3-1.3,4.9-2c0.7-0.3,1.3-1,2-1.4
							c0.7-0.6,1.6-1.1,2.3-1.7c0.7-0.4,1.4-0.6,2.1-0.1c2,1.1,3.9,1,5.9,0.3c2-0.6,4.2-0.7,6.2-0.9c2.6-0.1,5.2-0.3,7.7-0.3
							c1.6,0,3.2,0.3,4.7,0.6c1,0.1,1.3,0.7,1.3,1.9c0,0.9-0.3,1.4-1.1,1.6c-2,0.6-4,1.1-6.2,1.4c-2.7,0.3-5.3,0.9-8,1.4
							c-2,0.4-4,0.7-5.9,1.3c-3.7,1.1-7.6,2.4-11.3,3.9c-2.4,0.7-4.7,2-6.9,3.4c-2.3,1.4-4.6,2.9-6.9,4.2c-3.9,2-6.7,5-9.3,8.3
							c-0.9,1.1-1.9,2.3-2.6,3.4c-0.6,0.9-1.1,1.7-1.4,2.7c-0.7,1.9-2,3-3.3,4.4c-1,1.1-2,2.1-2.9,3.3c-0.7,0.9-1.4,1.9-2.1,2.9
							c-0.9,1.1-1.9,2.1-2.7,3.3c-1,1.4-2.1,2.9-3.2,4.3c-1.7,2.6-3.3,5.3-5.6,7.6c-1,1-1.6,2.4-2,3.9c-0.7,2.1-1.7,4.3-2.6,6.4
							c-0.6,1.7-1.3,3.6-1.6,5.4c-0.7,3.4-1.1,6.9-1.7,10.5c-0.3,1.9,0.1,3.6,0.7,5.3c0.6,2,0.7,4,0.6,6c-0.1,1.1,0.1,2.1,0,3.3
							c-0.1,1.1-0.1,2.3-0.6,3.4c-1.3,3.3-1.7,6.7-1.3,10.3c0.3,2.6,0.7,5,1.6,7.5c0.9,2.9,1.7,5.7,2.6,8.7c0.9,3,2,5.9,3.4,8.6
							c0.6,1.1,1.6,2.3,2.3,3.4c0.9,1.6,1.9,3.2,2.6,4.7c1.6,3.4,3.7,6.4,6.2,9.2c1,1.3,1.9,2.7,3,4c1.1,1.3,2.4,2.4,3.7,3.6
							c1.6,1.4,3.3,2.9,5,4.3c2,1.6,4,3,6,4.6c1,0.7,2,1.4,3,2c1.4,0.7,2.7,1.4,4.2,2.1c2.3,1.1,4.7,2.1,7,3.3c2.1,1,4,2.1,6.4,2.4
							c1.9,0.3,3.9,0.6,5.7,1c1.4,0.3,3,0.7,4.4,1.3c0.9,0.3,1.7,0.7,2.4,1.3c2.1,1.7,5.2,1.6,7.7,2.4c1.9,0.7,3.7,1.4,5.6,2.1
							c2.1,0.7,4.2,1.6,6.3,2.3c0.9,0.3,1.7,1.3,1.7,2c0.1,1.1-0.4,1.9-1.6,2.1c-1.4,0.3-2.7,0.6-4.2,0.9c-3,0.3-6,0.7-9,0.9
							c-2.9,0.1-5.9,0.1-8.7-0.3c-2.7-0.4-5.3-0.1-7.9,0c-3.4,0.1-6.6-0.7-9.5-2.7c-1.7-1.1-3.4-2.3-4.9-3.7
							c-0.6-0.6-1.1-1.1-1.6-1.9c-1.4-1.9-3.2-3.3-5.3-4.3c-0.7-0.3-1.6-0.4-2.1,0c-0.9,0.7-1.6,1.3-1.3,2.6
							c0.1,0.4,0.1,0.9,0.1,1.3c0,1.4,0.9,2.6,1.7,3.6c1.1,1.6,2.7,2.9,3.4,4.7c0.4,1,0.4,1.9-0.1,2.9c-1.1,1.9-3,2.6-5.6,2.3
							c-2.4-0.3-4.6-1.4-6.6-2.7c-1.3-0.9-2.4-1.6-3.6-2.6c-0.9-0.7-1.6-1.6-2.4-2.3c-0.7-0.7-1.6-1.1-2.3-1.9
							c-1.1-1-2.3-2.1-3.6-3.3c-2.7-2.4-5.4-4.9-8-7.5c-2.4-2.4-4.9-5-7.2-7.6c-3.3-3.6-6.2-7.5-8.7-11.6c-2.9-4.7-5.7-9.6-7.6-14.9
							c-0.3-0.7-0.4-1.6-0.6-2.3c-0.3-1.6,0.7-3.2,2.3-3.4c0.6-0.1,1.4,0.1,2,0.6c0.9,0.6,1.7,1.3,2.6,1.9c1,0.6,1.6,0.3,1.4-0.7
							c-0.1-1.6,0.7-2.6,1.1-3.9c0.1-0.6,0.6-1,0.7-1.6c0.1-0.7,0.3-1.4,0.1-2.1c-0.4-1.9-1.1-3.9-1.7-5.7c-0.4-1.3-1.4-2.3-2.7-2.7
							c-0.9-0.4-1.7,0-2.3,0.6c-1.1,1-2.1,2.1-3.2,3.2c-1.9,1.9-4.2,2-6.3,0.4c-1.6-1.1-2.7-2.7-3.4-4.6c-1.9-4.7-3.2-9.7-3.7-14.8
							c-0.3-1.9-1-3.7-1.7-5.4c-0.9-2.3-1.3-4.6-1.4-7C2.7,117.6,2.7,117.1,2.6,116.5C2.7,116.5,2.6,116.5,2.6,116.5z M49.4,186
							c0-0.1,0.1-0.1,0.1-0.3c-0.4-0.4-0.9-1-1.1-1.4c-0.9-2-2.3-3.6-3.6-5.3c-0.7-1-2.4-1-3.2-0.1c-0.7,0.9-1,3.7-0.1,5
							c1.3,1.9,3.2,2.1,5.2,2.3c0.4,0,0.9-0.4,1.4-0.4C48.5,185.7,49,185.8,49.4,186z"/>
					</g>
				</g>
				<g>
					<g>
						<path d="M206,160.5c0.4-2,1-4,1.6-6c0.1-0.3,0-0.7,0-1.1c-0.1-2.4,0.7-4.6,1.6-6.7c1.3-3.2,2.3-6.4,3.6-9.6
							c0.4-1,0.9-1.9,1.3-2.9c0.3-0.9,0.6-1.7,0.6-2.6c0-2.4,0.6-4.7,1.3-7c0.4-1.4,0.6-2.9,0.7-4.4c0.1-1.4,0.3-2.9,0.3-4.3
							c0-1,0-2,0-3c0-1.4,0.1-3,0.1-4.4c-0.1-4.6-0.7-9-1.9-13.5c-0.9-3.3-1.7-6.4-3-9.6c-1.4-3.3-2.4-6.6-3.9-9.9
							c-1.9-4.3-3.9-8.6-6.4-12.6c-2.7-4-5.4-8-8.6-11.6c-4.2-4.4-8.6-8.7-13.3-12.5c-2.4-1.9-5-3.6-7.6-5c-3.7-2.1-7.7-4-11.6-5.9
							c-3.2-1.4-6.4-2.7-9.6-4c-0.3-0.1-0.4-0.3-0.7-0.4c-1-0.6-1-0.7-0.9-1.9c0.1-0.7,0.7-1,1.4-1.1c2.1-0.3,4.2,0.4,6.2,1.3
							c0.6,0.1,1,0.4,1.6,0.6c3.4,0.9,6.7,2.3,9.7,4c6,3.2,11.9,6.4,17.8,9.9c4.2,2.4,7.9,5.6,11.3,9c1.3,1.3,2.4,2.6,3.7,3.9
							c0.4,0.4,1,0.7,1.6,1.1c0.6,0.3,1,0.1,1.4-0.3c0.4-0.4,0.3-0.9,0-1.3c-0.3-0.7-0.7-1.4-1-2.1c-0.1-0.4-0.1-1,0-1.4
							c0.3-0.9,1.4-1.1,2.1-0.6c3.6,3.2,6.7,6.4,9,10.6c0.6,1,1,2,1.4,3c0.3,0.6,0.4,1,0,1.6c-0.6,0.6-1.3,0.9-2,0.7
							c-0.3,0-0.7-0.3-1-0.3c-0.7-0.1-1,0.1-0.9,0.9c0.3,1.9,1,3.6,1.9,5.3c1.6,3,3.2,6,4.6,9c1.3,2.9,2.3,5.7,3.3,8.7
							c0.3,0.9,0.9,0.7,1.4,0.7s1.1,0,1.4-0.9c0.4-1.3,1.4-1.9,2.6-1.4c0.3,0.1,0.6,0.4,0.7,0.7c0.7,2.1,1.6,4.2,2.1,6.4
							c0.9,2.9,1.6,5.9,2.1,8.7c0.4,2,0.7,4.2,1.1,6.2c0.4,1.7,1,3.3,1.6,4.9c0.6,1.6,1.1,3.3,1.7,4.9c0.3,0.7,0.6,1.6,0.6,2.3
							c0,1-0.3,2.3-0.9,3.2c-1.1,1.9-2.6,3.7-4,5.4c-0.6,0.7-1.3,0.9-2.1,1.1c-1.3,0.4-2.4,1.3-2.9,2.7c-0.3,1.1-0.7,2.3-0.7,3.4
							c0,1.4,0.9,2.6,1.9,3.7c1.6,1.7,2.6,3.7,2.9,6.2c0.3,2.1,0,4-1,5.9c-0.7,1.4-1.4,3-2.1,4.4c-1,2-2.4,3.4-4.7,4.3
							c-0.9,0.3-1.7,0.9-2.6,1.3c-0.3,0.1-0.7,0.3-1,0.4c-0.1,0-0.3,0.1-0.4,0.3c-0.9,0.7-1.6,1.6-2.4,2.1c-1.1,0.7-2.4,2.7-3.4,3.7
							c-1.4,1.6-2.9,2.1-4.6,3.4c-1.4,1-3.6,0-3.9-1.9C205,166.2,205.7,161.9,206,160.5z"/>
					</g>
				</g>
				<g>
					<g>
						<path d="M122.3,235.7c-1.9-0.3-3.7-0.7-5.6-0.9c-2.9-0.4-5.7-0.7-8.6-1c-2.9-0.3-5.6-0.4-8.3-1.6c-1.9-0.9-3.6-2.1-5-3.6
							c-0.3-0.3-0.6-0.6-1-1c-0.7-0.9-0.9-1.4-0.3-2.4c0.4-0.7,1.1-1.1,2.1-1c1,0.3,2,0.6,3.2,0.7c1,0.1,2.1,0.1,3.2-0.1
							c1.4-0.3,2.7-0.1,4,0.7c0.7,0.4,1.6,1,2.3,1.3c3.3,1.3,6.6,2.1,9.9,0.1c2.7-1.6,5.3-1.4,8-0.4c1.4,0.6,3,0.7,4.6,0.4
							c2.6-0.4,5.2-0.9,7.7-1.3c1.3-0.1,2.6-0.1,3.7,0c2.6,0.4,5.2,0,7.6-0.7c1.9-0.6,3.7-1.1,5.6-1.7c2.4-0.7,4.9-1.7,7.3-2.4
							c1.9-0.6,3.7-1,5.6-0.1c0.6,0.1,0.4,0.6,0.1,0.7c-0.6,0.6-1.1,1.1-1.9,1.6c-0.9,0.6-1.7,1.1-2.6,1.6c-1.6,0.7-3.3,1.4-4.9,2.1
							c-3,1.1-5.9,2.4-8.9,3.4c-4.9,1.7-9.7,3.3-14.8,4.3c-1.4,0.3-2.9,0.3-4.2,0.4c-1.7,0.1-3.3,0.3-5,0.4
							C125.2,235.6,123.9,235.7,122.3,235.7z"/>
					</g>
				</g>
				<g>
					<g>
						<path d="M143.1-0.4c3,0.1,4.9,3.4,3.6,6.2c-0.4,0.9-1,1.6-1.7,2.1C143.7,9,142.4,9,141,8c-3.2-2.1-2.9-6.3,0.6-7.9
							C142-0.3,142.5-0.3,143.1-0.4z"/>
					</g>
				</g>
				<g>
					<g>
						<path d="M61.7,172.7c-1.1-0.1-2-1-2.7-2.1c-0.4-0.7-0.6-1.3-0.3-2c0.4-1.1,1-1.6,2.1-1.6c1.3,0,3.4,1.7,3.7,3
							c0,0.1,0,0.3,0,0.4C64.6,171.4,63,172.7,61.7,172.7z"/>
					</g>
				</g>
				<g>
					<g>
						<path d="M83.8,221.9c0,1-1.3,2.1-2.3,2.1c-0.9,0-2.4-1.1-2.7-2c0-0.1,0-0.3,0-0.4c0.1-1.6,1.9-2.4,3.3-1.7
							C82.9,220.4,83.7,221.1,83.8,221.9z"/>
					</g>
				</g>
			</g>
		</g>
		<g>
			<path d="M69.2,125.1h8.2v17.8l11-17.8h8.9l-11.7,18.2l12.8,26.1h-9.6l-8.7-18.6l-2.6,4.2v14.6h-8.2V125.1z"/>
			<path d="M117.2,160.8h-10.6l-2.1,8.5h-7.7l11.6-44.1h8.2l11.6,44.1h-8.6L117.2,160.8z M108.9,152h6l-3-13.2L108.9,152z"/>
			<path d="M122,125.1h9l7.2,29.7l6.9-29.7h8.2L142,169.2h-8.2L122,125.1z"/>
			<path d="M164.2,152.7l-11.7-27.7h9.5l6.6,16.5l6.3-16.5h8.6l-10.9,27.7v16.5h-8.2v-16.5H164.2z"/>
		</g>
		<g>
			<path d="M81.2,120.7c-2.3,0-4.3-0.4-6.2-1.3c-1.9-0.9-3.4-2.1-4.9-4c-1.3-1.9-2.4-4.2-3.2-7c-0.7-2.9-1.1-6.3-1.1-10.5v-1.1
				c0-3.9,0.4-7.2,1.1-10c0.7-2.7,1.9-5,3.3-6.9c1.4-1.7,3-3,4.9-3.9c1.9-0.9,3.9-1.3,6-1.3c1.9,0,3.7,0.3,5.4,0.9
				c1.7,0.6,3.2,1.6,4.4,2.7c1.3,1.3,2.3,2.9,3.2,4.9c0.9,2,1.3,4.4,1.4,7.5h-8.7c-0.1-1.1-0.4-2.1-0.7-3c-0.3-0.9-0.7-1.4-1.3-2
				c-0.6-0.6-1-0.9-1.7-1.1c-0.6-0.3-1.3-0.3-1.9-0.3c-1,0-1.9,0.3-2.6,0.7c-0.9,0.4-1.4,1.1-2,2.1c-0.6,1-1,2.3-1.4,3.9
				c-0.3,1.6-0.4,3.6-0.4,5.9V98c0,2.4,0.1,4.4,0.6,6.2c0.4,1.7,0.9,3,1.4,4c0.6,1,1.3,1.7,2,2.1c0.7,0.4,1.6,0.7,2.4,0.7
				c1.6,0,2.9-0.6,3.9-1.6c1-1,1.6-2.7,1.7-5h8.7c-0.1,3-0.6,5.4-1.3,7.5c-0.7,2-1.7,3.7-3,4.9c-1.3,1.3-2.7,2.1-4.4,2.7
				C84.9,120.4,83.1,120.7,81.2,120.7z"/>
			<path d="M99,75.7h8.5v35.5h12.5v8.6H99V75.7z"/>
			<path d="M135.9,120.7c-2.1,0-4.2-0.4-6-1.1c-1.7-0.7-3.3-2-4.6-3.4c-1.3-1.6-2.1-3.4-2.9-5.7c-0.7-2.3-1-5-1-8V75.7h8.5v25.2
				c0,3.4,0.4,6,1.3,7.7c0.9,1.7,2.4,2.6,4.6,2.6c2.3,0,3.7-0.9,4.6-2.6c0.9-1.7,1.3-4.3,1.3-7.7V75.7h8.5v26.5c0,3-0.3,5.7-1,8
				c-0.7,2.3-1.6,4.3-2.9,5.7c-1.3,1.6-2.7,2.7-4.6,3.4C140.2,120.2,138.2,120.7,135.9,120.7z"/>
			<path d="M154,75.7h15.8c3.9,0,6.7,1,8.5,3c1.7,2,2.6,5,2.6,8.7c0,2.3-0.4,4.2-1.3,5.9c-0.9,1.6-2,2.7-3.6,3.4
				c2,0.6,3.4,1.7,4.6,3.6c1.1,1.7,1.7,4.2,1.7,7c0,3.9-1,6.9-2.9,9.2c-1.9,2.3-5,3.3-9.2,3.3H154V75.7z M167.8,93.1
				c1.9,0,3-0.4,3.7-1.1c0.6-0.7,1-1.9,1-3.3s-0.3-2.6-1-3.3c-0.6-0.7-1.9-1.1-3.6-1.1h-5.3v8.9L167.8,93.1L167.8,93.1z
				 M168.5,111.1c2,0,3.4-0.4,4.3-1.3c0.7-0.9,1.1-2.1,1.1-3.9s-0.4-3-1.1-3.9c-0.9-0.9-2.3-1.3-4.3-1.3h-5.7v10.2h5.7V111.1z"/>
		</g>
		<g>
			<path d="M77.5,176l2.1,1.7c0.6,0.4,1,1,1,1.6c0,0.6-0.1,1.1-0.6,1.7c-0.3,0.4-0.7,0.7-1,0.9c-0.4,0.1-0.9,0.1-1.3,0l-0.4,3
				l-1.4-1.1l0.6-2.7l-0.6-0.4l-1.4,1.9l-1.3-1L77.5,176z M77.3,180c0.3,0.3,0.6,0.4,0.9,0.4c0.1,0,0.4-0.1,0.6-0.4s0.3-0.4,0.3-0.7
				c0-0.1-0.3-0.4-0.6-0.7l-0.6-0.4l-1,1.4L77.3,180z"/>
			<path d="M79.8,186.7c-0.3-0.1-0.4-0.4-0.7-0.7c-0.1-0.3-0.3-0.6-0.3-0.9c0-0.3,0-0.7,0-1c0.1-0.3,0.3-0.7,0.6-1.1l0.1-0.1
				c0.3-0.4,0.6-0.7,0.9-0.9c0.3-0.1,0.6-0.3,0.9-0.4c0.3,0,0.6,0,0.9,0s0.6,0.1,0.9,0.4c0.3,0.1,0.4,0.4,0.7,0.7
				c0.1,0.3,0.3,0.6,0.3,0.9c0,0.3,0,0.6,0,1c-0.1,0.3-0.3,0.7-0.4,1l-0.1,0.1c-0.3,0.4-0.6,0.7-0.9,0.9c-0.3,0.3-0.6,0.4-0.9,0.4
				c-0.3,0-0.6,0.1-0.9,0C80.4,187,80.1,186.8,79.8,186.7z M80.5,185.6c0.3,0.1,0.6,0.1,0.9,0.1c0.3-0.1,0.6-0.4,0.9-0.7l0.1-0.1
				c0.3-0.3,0.3-0.7,0.3-1c0-0.3-0.1-0.6-0.4-0.7c-0.3-0.1-0.6-0.1-0.9-0.1c-0.3,0.1-0.6,0.3-0.7,0.7l-0.1,0.1
				c-0.3,0.4-0.4,0.7-0.4,1C80.1,185.1,80.2,185.4,80.5,185.6z"/>
			<path d="M83.8,189.3c-0.3-0.1-0.4-0.3-0.6-0.4s-0.1-0.4-0.3-0.6c0-0.1,0-0.4,0-0.6c0-0.1,0.1-0.4,0.3-0.6c0.3-0.4,0.6-0.7,1-0.9
				c0.4-0.1,0.9,0,1.3,0.3l1.1,0.7l0.1-0.1c0.1-0.3,0.3-0.6,0.1-0.7c0-0.1-0.1-0.3-0.4-0.4c-0.1-0.1-0.3-0.1-0.4-0.1
				c-0.1,0-0.3,0.1-0.3,0.3l-1.1-0.7c0.1-0.1,0.3-0.4,0.4-0.6c0.1-0.1,0.4-0.3,0.6-0.3c0.3,0,0.4,0,0.7,0s0.6,0.1,0.9,0.3
				c0.3,0.1,0.4,0.3,0.7,0.6c0.1,0.1,0.3,0.4,0.4,0.7c0,0.3,0.1,0.6,0,0.9c0,0.3-0.1,0.6-0.4,1l-1,1.7c-0.1,0.3-0.3,0.4-0.4,0.7
				c-0.1,0.1-0.1,0.4-0.3,0.6l-1.1-0.6c0-0.1,0.1-0.1,0.1-0.3c0-0.1,0.1-0.1,0.1-0.3c-0.3,0.1-0.4,0.1-0.7,0.1
				C84.5,189.6,84.2,189.4,83.8,189.3z M84.8,188.6c0.3,0.1,0.6,0.1,0.7,0.1c0.3,0,0.4-0.3,0.7-0.6l0.1-0.1l-0.9-0.6
				c-0.1-0.1-0.3-0.1-0.4,0c-0.1,0-0.3,0.1-0.3,0.3c-0.1,0.1-0.1,0.3-0.1,0.4C84.5,188.3,84.5,188.4,84.8,188.6z"/>
			<path d="M89.1,192.1c-0.3-0.1-0.6-0.3-0.9-0.6c-0.1-0.1-0.3-0.4-0.4-0.6c-0.1-0.3-0.1-0.4-0.1-0.7s0.1-0.4,0.1-0.7l1.1,0.6
				c0,0.1,0,0.3,0,0.4s0.3,0.3,0.4,0.4c0.3,0.1,0.4,0.1,0.6,0.1c0.1,0,0.3-0.1,0.3-0.3v-0.1c0,0,0-0.1-0.1-0.1
				c0-0.1-0.1-0.1-0.3-0.3c-0.1-0.1-0.3-0.1-0.4-0.3c-0.1-0.1-0.4-0.3-0.6-0.4s-0.3-0.3-0.4-0.6c-0.1-0.1-0.1-0.4-0.1-0.6
				c0-0.3,0-0.4,0.1-0.7c0.1-0.1,0.3-0.4,0.4-0.6c0.1-0.1,0.4-0.3,0.6-0.3c0.3,0,0.4,0,0.7,0c0.3,0,0.6,0.1,0.9,0.3
				c0.3,0.1,0.6,0.3,0.7,0.6c0.1,0.1,0.3,0.4,0.4,0.6c0,0.3,0.1,0.4,0,0.7c0,0.3-0.1,0.4-0.1,0.6l-0.6-0.7c0-0.1,0-0.3,0-0.4
				s-0.1-0.3-0.3-0.3c-0.3-0.1-0.4-0.1-0.6-0.1s-0.3,0.1-0.3,0.3c0,0.1,0,0.3,0.1,0.4s0.3,0.3,0.6,0.6c0.1,0.1,0.4,0.3,0.6,0.4
				c0.1,0.1,0.3,0.3,0.4,0.6c0.1,0.3,0.1,0.4,0.1,0.6c0,0.3,0,0.4-0.1,0.7c-0.3,0.4-0.6,0.7-1,0.9C90.2,192.4,89.7,192.4,89.1,192.1
				z"/>
			<path d="M93.7,194.2c-0.3-0.1-0.4-0.3-0.7-0.4c-0.1-0.1-0.3-0.3-0.3-0.4c0-0.1-0.1-0.4,0-0.7c0.1-0.3,0.1-0.6,0.3-0.9l0.9-2
				l-0.6-0.3l0.6-1.1l0.6,0.3l0.4-1.1l1.3,0.6l-0.4,1.1l1,0.4l-0.6,1.1l-1-0.4l-0.9,1.9c-0.1,0.3-0.1,0.4-0.1,0.7
				c0,0.1,0.1,0.3,0.4,0.4c0.1,0,0.3,0.1,0.4,0.1l-0.6,1.1c-0.1,0-0.3,0-0.3-0.1C94.1,194.3,94,194.2,93.7,194.2z"/>
			<path d="M97.5,195.7c-0.3-0.1-0.6-0.3-0.9-0.4s-0.4-0.4-0.6-0.7s-0.1-0.6-0.1-1s0.1-0.7,0.3-1.1v-0.1c0.1-0.4,0.3-0.7,0.6-1
				c0.3-0.3,0.4-0.4,0.7-0.6c0.3-0.1,0.6-0.1,0.9-0.3c0.3,0,0.6,0,0.9,0.1c0.7,0.3,1.1,0.7,1.4,1.3c0.1,0.6,0.1,1.3-0.1,2l-0.1,0.6
				l-3-1.1c0,0.1-0.1,0.4-0.1,0.6c0,0.1,0,0.3,0.1,0.4c0,0.1,0.1,0.3,0.3,0.3c0.1,0.1,0.1,0.1,0.3,0.1c0.3,0.1,0.4,0.1,0.6,0.1
				c0.1,0,0.3-0.1,0.4-0.3l1.1,0.4c-0.3,0.6-0.7,0.9-1.1,1C98.6,195.9,98.1,195.9,97.5,195.7z M99,191.6c-0.1,0-0.3,0-0.3-0.1
				c-0.1,0-0.3,0-0.3,0c-0.1,0-0.3,0.1-0.3,0.1c-0.1,0.1-0.1,0.3-0.3,0.4l1.9,0.7c0-0.1,0.1-0.3,0.1-0.4s0-0.3-0.1-0.3
				c0-0.1-0.1-0.1-0.3-0.3C99.3,191.7,99.1,191.6,99,191.6z"/>
			<path d="M102.3,197.3c-0.3-0.1-0.6-0.3-0.7-0.4c-0.1-0.1-0.3-0.4-0.4-0.7c-0.1-0.3-0.1-0.6-0.1-1c0-0.3,0.1-0.7,0.1-1.1v-0.1
				c0.3-0.9,0.6-1.4,1-1.7c0.4-0.3,1-0.4,1.6-0.3c0.3,0.1,0.4,0.1,0.7,0.4c0.1,0.1,0.3,0.4,0.4,0.7l0.7-2.3l1.3,0.4l-2,6.9l-1.1-0.3
				l0.1-0.7c-0.1,0.1-0.1,0.1-0.3,0.3c-0.1,0.1-0.3,0.1-0.4,0.1c-0.1,0-0.3,0-0.4,0C102.7,197.3,102.6,197.3,102.3,197.3z
				 M103,196.2c0.3,0.1,0.6,0,0.9-0.1s0.4-0.4,0.6-0.9l0.1-0.4c0.1-0.4,0.1-0.7,0-1c-0.1-0.3-0.3-0.4-0.6-0.4
				c-0.3-0.1-0.6,0-0.7,0.1c-0.3,0.1-0.4,0.4-0.6,0.9v0.1c-0.1,0.4-0.1,0.9,0,1.1C102.6,195.9,102.7,196,103,196.2z"/>
			<path d="M109.3,193.4l1.3,0.3l-1.1,5.3l-1.3-0.3L109.3,193.4z M110,193c-0.3,0-0.4-0.1-0.6-0.3c-0.1-0.1-0.1-0.4-0.1-0.6
				c0-0.3,0.1-0.4,0.3-0.6c0.1-0.1,0.4-0.1,0.6-0.1c0.3,0,0.4,0.1,0.6,0.3c0.1,0.1,0.1,0.4,0.1,0.6c0,0.3-0.1,0.4-0.3,0.6
				C110.4,193.1,110.3,193.1,110,193z"/>
			<path d="M111.4,193.9l1.3,0.1l-0.1,0.7c0.1-0.1,0.4-0.4,0.6-0.6c0.3-0.1,0.6-0.1,1-0.1c0.6,0.1,1,0.3,1.1,0.7
				c0.3,0.4,0.3,0.9,0.1,1.6l-0.6,3.4l-1.3-0.3l0.6-3.2c0-0.3,0-0.6,0-0.9c-0.1-0.1-0.3-0.3-0.6-0.4c-0.1,0-0.3,0-0.4,0
				c-0.1,0-0.3,0.1-0.3,0.1c-0.1,0.1-0.1,0.1-0.3,0.3c0,0.1-0.1,0.3-0.1,0.4l-0.6,3.2l-1.3-0.3L111.4,193.9z"/>
			<path d="M118.9,193.3l1.6,0.1l-0.1,2.9l2.3-2.7l1.7,0.1l-2.4,2.7l2.1,4.3l-1.9-0.1l-1.4-3.2l-0.6,0.6l-0.1,2.3l-1.6-0.1
				L118.9,193.3z"/>
			<path d="M124.9,193.6h1.3v2.4c0-0.1,0.1-0.1,0.1-0.3c0.1-0.1,0.1-0.1,0.3-0.3c0.1-0.1,0.3-0.1,0.4-0.1c0.1,0,0.3-0.1,0.6-0.1
				c0.6,0,1,0.1,1.3,0.4c0.3,0.3,0.4,0.9,0.4,1.4v3.4h-1.3v-3.2c0-0.3-0.1-0.6-0.1-0.9c-0.1-0.1-0.3-0.3-0.7-0.3
				c-0.3,0-0.6,0.1-0.7,0.3c-0.1,0.1-0.1,0.4-0.1,0.7v3.2h-1.3L124.9,193.6z"/>
			<path d="M130.2,195.3l1.3-0.1v0.7c0.1-0.3,0.3-0.4,0.4-0.7c0.1-0.1,0.4-0.3,0.9-0.3s0.7,0,0.9,0.1c0.3,0.1,0.4,0.3,0.6,0.6
				c0.1-0.3,0.3-0.4,0.4-0.7c0.3-0.1,0.6-0.3,0.9-0.3c0.6,0,0.9,0.1,1.1,0.4s0.4,0.7,0.6,1.4l0.3,3.6l-1.3,0.1l-0.3-3.2
				c0-0.4-0.1-0.6-0.3-0.9c-0.1-0.1-0.3-0.1-0.6-0.1c-0.1,0-0.4,0.1-0.4,0.3c-0.1,0.1-0.1,0.4-0.1,0.7l0.3,3.2l-1.3,0.1l-0.3-3.2
				c0-0.4-0.1-0.6-0.3-0.9c-0.1-0.1-0.3-0.1-0.6-0.1c-0.1,0-0.4,0.1-0.6,0.3c-0.1,0.1-0.1,0.4-0.1,0.7l0.3,3.2l-1.3,0.1L130.2,195.3
				z"/>
			<path d="M141,199.5c-0.3,0-0.7,0-1,0s-0.6-0.1-0.9-0.4c-0.3-0.1-0.4-0.4-0.7-0.7c-0.1-0.3-0.3-0.7-0.4-1.1V197
				c-0.1-0.4-0.1-0.9,0-1.1c0-0.3,0.1-0.7,0.3-0.9c0.1-0.3,0.4-0.4,0.6-0.6c0.3-0.1,0.6-0.3,0.9-0.3c0.7-0.1,1.4,0,1.9,0.4
				s0.7,1,0.9,1.9l0.1,0.6l-3.3,0.6c0,0.1,0.1,0.4,0.1,0.6c0.1,0.1,0.1,0.3,0.3,0.3c0.1,0.1,0.3,0.1,0.3,0.1c0.1,0,0.3,0,0.4,0
				c0.3,0,0.4-0.1,0.6-0.3c0.1-0.1,0.1-0.3,0.3-0.4l1.3-0.3c0,0.6-0.1,1-0.4,1.4S141.5,199.3,141,199.5z M140.1,195.2
				c-0.1,0-0.3,0-0.3,0.1c-0.1,0-0.1,0.1-0.3,0.3c-0.1,0.1-0.1,0.1-0.1,0.3c0,0.1,0,0.3,0,0.4l1.9-0.3c0-0.1-0.1-0.3-0.1-0.4
				c-0.1-0.1-0.1-0.1-0.3-0.3c-0.1,0-0.1-0.1-0.3-0.1C140.4,195.2,140.2,195.2,140.1,195.2z"/>
			<path d="M145.7,198.4c-0.3,0-0.6,0.1-0.7,0.1s-0.4,0-0.6-0.1c-0.1-0.1-0.3-0.3-0.4-0.6s-0.3-0.6-0.3-0.9l-1.1-5l1.3-0.3l1.1,4.9
				c0,0.1,0.1,0.3,0.1,0.4s0.1,0.1,0.1,0.3s0.1,0.1,0.3,0.1c0.1,0,0.1,0,0.3,0h0.1h0.1l0.3,1.3C146.1,198.3,146,198.3,145.7,198.4z"
				/>
			<path d="M145.7,192.9l1.1-0.3l0.1,0.7c0-0.3,0.1-0.6,0.4-0.7c0.1-0.3,0.4-0.4,0.9-0.6c0.6-0.1,1-0.1,1.3,0.1
				c0.4,0.3,0.6,0.7,0.9,1.3l1,3.3l-1.3,0.4l-0.9-3c-0.1-0.3-0.3-0.6-0.4-0.7s-0.4-0.1-0.7-0.1c-0.1,0-0.3,0.1-0.4,0.1
				c-0.1,0.1-0.1,0.1-0.3,0.3c0,0.1,0,0.3,0,0.4s0,0.3,0,0.4l0.9,3L147,198L145.7,192.9z"/>
			<path d="M154,198.2c-0.1,0-0.1,0-0.3,0l-0.4-1.1c0.1,0,0.1,0,0.3,0c0.1,0,0.3-0.1,0.3-0.3c0-0.1,0-0.4,0-0.7l-3.7-4.4l1.4-0.6
				l2.3,3l-0.1-3.7l1.3-0.4l0.1,5.6c0,0.4,0,0.7,0,1s0,0.6-0.1,0.7c-0.1,0.3-0.1,0.4-0.4,0.6C154.6,198,154.3,198,154,198.2z"/>
			<path d="M159.6,193.7c-0.3,0.1-0.6,0.1-0.7,0.1c-0.3,0-0.4,0-0.6-0.1c-0.1-0.1-0.3-0.3-0.6-0.4c-0.1-0.1-0.3-0.4-0.4-0.7
				l-0.9-2.1l-0.6,0.3l-0.6-1.1l0.6-0.3l-0.4-1.1l1.3-0.6l0.4,1.1l1-0.4l0.6,1.1l-1,0.4l0.9,1.9c0.1,0.3,0.3,0.4,0.4,0.6
				c0.1,0.1,0.3,0.1,0.6,0c0.1,0,0.3-0.1,0.4-0.3l0.4,1.1c-0.1,0-0.1,0.1-0.3,0.1C160,193.6,159.9,193.7,159.6,193.7z"/>
			<path d="M163.2,192.1c-0.3,0.1-0.7,0.3-1,0.3s-0.6,0-0.7,0c-0.3,0-0.4-0.1-0.6-0.3c-0.1-0.1-0.3-0.3-0.4-0.6l1.1-0.6
				c0.1,0.1,0.3,0.1,0.4,0.3c0.1,0,0.4,0,0.6-0.1c0.3-0.1,0.4-0.3,0.6-0.4c0.1-0.1,0.1-0.3,0-0.4c0,0,0-0.1-0.1-0.1h-0.1
				c-0.1,0-0.1,0-0.3,0c-0.1,0-0.3,0-0.6,0.1c-0.3,0.1-0.4,0.1-0.7,0.1s-0.4,0-0.7,0c-0.1,0-0.4-0.1-0.6-0.3
				c-0.1-0.1-0.3-0.3-0.4-0.6c-0.1-0.1-0.1-0.4-0.1-0.7c0-0.3,0-0.4,0.1-0.7c0.1-0.1,0.3-0.4,0.4-0.6c0.1-0.1,0.4-0.3,0.7-0.4
				s0.6-0.3,0.9-0.3c0.3,0,0.6,0,0.7,0.1c0.3,0.1,0.4,0.1,0.6,0.3c0.1,0.1,0.3,0.3,0.4,0.6l-1.1,0.6c-0.1-0.1-0.3-0.3-0.4-0.3
				s-0.3,0-0.4,0c-0.3,0.1-0.4,0.3-0.4,0.4s0,0.3,0,0.4c0,0.1,0.1,0.1,0.4,0.1c0.1,0,0.4,0,0.9-0.1c0.3-0.1,0.4-0.1,0.7-0.1
				c0.3,0,0.4,0,0.7,0c0.1,0,0.4,0.1,0.6,0.3c0.1,0.1,0.3,0.3,0.4,0.6c0.3,0.4,0.3,0.9,0,1.4C164.2,191.4,163.7,191.9,163.2,192.1z"
				/>
			<path d="M162.3,184.4l1.1-0.7l1.9,3.3l0.3-2.6l1.3-0.7l-0.3,2.7l3.2,1.7l-1.3,0.7l-2-1.1l-0.1,0.9l0.7,1.1l-1.1,0.7L162.3,184.4z
				"/>
			<path d="M172.6,189.1c-0.1,0-0.1,0.1-0.3,0.1l-0.7-1c0.1,0,0.1-0.1,0.3-0.1c0.1-0.1,0.1-0.3,0.3-0.4c0-0.1,0-0.4-0.1-0.7
				l-4.6-3.3l1.3-0.9l3,2.3l-1-3.6l1.1-0.7l1.4,5.4c0.1,0.4,0.1,0.7,0.3,1c0,0.3,0,0.6,0,0.7c0,0.3-0.1,0.4-0.3,0.6
				C173.1,188.8,172.9,189,172.6,189.1z"/>
			<path d="M172.3,179.5c-0.1,0.1-0.4,0.1-0.6,0.1c-0.1,0-0.4-0.1-0.6-0.3c-0.1-0.1-0.1-0.4-0.1-0.6c0-0.1,0.1-0.4,0.3-0.6
				c0.1-0.1,0.4-0.1,0.6-0.1c0.1,0,0.4,0.1,0.6,0.3c0.1,0.1,0.1,0.4,0.1,0.6C172.6,179.3,172.5,179.4,172.3,179.5z M172.1,180.4
				l1.1-0.9l3.2,4.3l-1.1,0.9L172.1,180.4z"/>
		</g>
		<g>
			<path d="M91.5,48.7c-0.4,0.3-1,0.4-1.4,0.4c-0.4,0.1-1,0-1.4-0.1s-0.9-0.4-1.3-0.7c-0.4-0.4-0.9-0.9-1.1-1.6l-0.1-0.1
				c-0.3-0.6-0.4-1.3-0.6-1.7c0-0.6,0-1,0.1-1.4c0.1-0.4,0.4-0.9,0.9-1.1c0.3-0.3,0.7-0.7,1.3-0.9c0.4-0.3,1-0.4,1.4-0.4
				c0.4-0.1,1,0,1.4,0.1s0.9,0.4,1.3,0.7c0.4,0.3,0.7,0.9,1.1,1.4l0.1,0.1c0.3,0.7,0.6,1.3,0.6,1.9c0,0.6,0,1-0.1,1.6
				c-0.1,0.4-0.4,0.9-0.7,1.1C92.4,48.2,92,48.4,91.5,48.7z M90.7,47.2c0.1-0.1,0.4-0.3,0.6-0.4c0.1-0.1,0.3-0.4,0.3-0.6
				c0-0.3,0-0.6,0-0.9s-0.1-0.7-0.4-1.1L91,44c-0.1-0.4-0.4-0.7-0.6-0.9c-0.3-0.3-0.4-0.4-0.7-0.4c-0.3-0.1-0.4-0.1-0.7,0
				c-0.3,0-0.4,0.1-0.6,0.1c-0.1,0.1-0.4,0.3-0.6,0.4s-0.3,0.3-0.3,0.6c0,0.3-0.1,0.4,0,0.9c0,0.3,0.1,0.7,0.4,1l0.1,0.1
				c0.1,0.4,0.4,0.7,0.7,1c0.3,0.3,0.4,0.4,0.7,0.4c0.3,0.1,0.4,0.1,0.7,0.1C90.2,47.3,90.5,47.3,90.7,47.2z"/>
			<path d="M93.5,40.8l1.6-0.6l0.3,0.7c0-0.1,0-0.3,0.1-0.4c0-0.1,0.1-0.3,0.1-0.4c0.1-0.1,0.1-0.3,0.3-0.4c0.1-0.1,0.3-0.1,0.4-0.3
				c0.1,0,0.3-0.1,0.3-0.1c0.1,0,0.1,0,0.1,0l0.6,1.4c0,0-0.1,0-0.3,0s-0.3,0-0.4,0.1c-0.4,0.1-0.6,0.4-0.7,0.7
				c-0.1,0.3,0,0.6,0,0.9l1.3,3.3l-1.7,0.7L93.5,40.8z"/>
			<path d="M98.6,38.3c-0.3,0.1-0.6,0.1-0.9,0c-0.3-0.1-0.4-0.3-0.4-0.6c-0.1-0.3-0.1-0.4,0-0.7c0.1-0.3,0.3-0.4,0.6-0.4
				c0.3-0.1,0.6-0.1,0.9,0c0.3,0.1,0.4,0.3,0.4,0.6c0.1,0.3,0.1,0.4,0,0.7C99.1,38,98.8,38.3,98.6,38.3z M98,39.1l1.7-0.6l2,5.7
				l-1.7,0.6L98,39.1z"/>
			<path d="M105.9,45.6c-0.4,0.1-0.9,0.1-1.3,0.1c-0.3,0-0.7,0-0.9-0.1c-0.3-0.1-0.4-0.3-0.6-0.4c-0.1-0.1-0.3-0.4-0.4-0.7l1.7-0.4
				l0.1,0.1c0,0,0.1,0.1,0.3,0.1s0.1,0,0.3,0c0.1,0,0.3,0,0.4,0c0.4-0.1,0.7-0.3,0.9-0.6c0.1-0.3,0.1-0.6,0.1-1l-0.1-0.6
				c-0.1,0.3-0.3,0.6-0.6,0.9c-0.3,0.3-0.6,0.4-0.9,0.4c-0.4,0.1-0.7,0.1-1.1,0.1s-0.7-0.1-1-0.3c-0.3-0.1-0.6-0.4-0.7-0.9
				c-0.3-0.3-0.4-0.7-0.6-1.3v-0.3c-0.3-1-0.3-1.7,0.1-2.3c0.3-0.6,0.9-1,1.7-1.3c0.3,0,0.4-0.1,0.7-0.1c0.1,0,0.4,0,0.6,0
				c0.1,0,0.3,0.1,0.4,0.1c0.1,0.1,0.3,0.1,0.4,0.3l-0.3-0.9l1.6-0.4l1.4,5.4c0.3,0.9,0.1,1.7-0.1,2.3
				C107.7,44.9,107,45.3,105.9,45.6z M105,41.9c0.4-0.1,0.6-0.3,0.9-0.6c0.1-0.3,0.1-0.7,0.1-1.1l-0.1-0.6c-0.1-0.4-0.3-0.7-0.6-0.9
				c-0.3-0.1-0.7-0.1-1-0.1c-0.3,0.1-0.6,0.3-0.7,0.6c-0.1,0.3-0.1,0.7,0,1.1v0.3c0.1,0.6,0.4,0.9,0.7,1.1
				C104.3,41.9,104.6,42,105,41.9z"/>
			<path d="M109,35.5c-0.3,0-0.6,0-0.9-0.1c-0.1-0.1-0.3-0.3-0.4-0.6c0-0.3,0-0.4,0.1-0.7c0.1-0.1,0.4-0.3,0.7-0.4
				c0.3,0,0.6,0,0.9,0.1c0.3,0.1,0.3,0.3,0.4,0.6c0,0.3,0,0.4-0.1,0.7C109.4,35.3,109.3,35.4,109,35.5z M108.2,36.3l1.7-0.3l1.3,6
				l-1.7,0.3L108.2,36.3z"/>
			<path d="M111.4,35.5l1.6-0.3l0.1,0.9c0.1-0.3,0.3-0.6,0.6-0.7c0.3-0.3,0.7-0.4,1.3-0.4c0.7-0.1,1.3,0,1.7,0.4
				c0.4,0.3,0.7,0.9,0.7,1.6l0.6,3.9l-1.7,0.3l-0.4-3.6c0-0.4-0.1-0.7-0.4-0.9c-0.1-0.1-0.4-0.3-0.9-0.1c-0.1,0-0.4,0.1-0.6,0.1
				c-0.1,0.1-0.3,0.1-0.3,0.3c-0.1,0.1-0.1,0.3-0.1,0.4c0,0.1,0,0.3,0,0.4l0.4,3.6l-1.7,0.3L111.4,35.5z"/>
			<path d="M120.8,40.8c-0.3,0-0.6,0-0.9-0.1c-0.3-0.1-0.4-0.1-0.7-0.4c-0.1-0.1-0.3-0.4-0.4-0.6c-0.1-0.3-0.1-0.4-0.1-0.7
				c0-0.6,0.1-1.1,0.4-1.4c0.3-0.3,0.9-0.6,1.7-0.6l1.7-0.1v-0.3c0-0.4-0.1-0.6-0.3-0.7c-0.1-0.1-0.4-0.1-0.7-0.1s-0.6,0-0.6,0.1
				c-0.1,0.1-0.1,0.3-0.1,0.4l-1.7,0.1c0-0.3,0-0.6,0.1-0.7c0.1-0.3,0.3-0.4,0.4-0.6c0.3-0.1,0.4-0.3,0.9-0.4
				c0.3-0.1,0.7-0.1,1.1-0.1s0.7,0,1.1,0.1c0.3,0,0.6,0.1,0.9,0.4c0.3,0.1,0.4,0.4,0.6,0.7c0.1,0.3,0.3,0.7,0.3,1.1l0.1,2.3
				c0,0.3,0,0.6,0,0.9s0,0.4,0.1,0.7l-1.7,0.1c0-0.1,0-0.3,0-0.3c0-0.1,0-0.3,0-0.4c-0.1,0.3-0.4,0.4-0.7,0.7
				C121.8,40.7,121.3,40.7,120.8,40.8z M121.3,39.6c0.4,0,0.7-0.1,1-0.4c0.3-0.3,0.4-0.6,0.3-0.9V38h-1.4c-0.3,0-0.4,0.1-0.6,0.3
				c-0.1,0.1-0.1,0.3-0.1,0.4c0,0.3,0.1,0.4,0.3,0.6C120.8,39.4,121,39.6,121.3,39.6z"/>
			<path d="M127.6,40.6c-0.4,0-0.7,0-1-0.1c-0.3,0-0.4-0.1-0.7-0.3c-0.1-0.1-0.3-0.4-0.4-0.7c-0.1-0.3-0.1-0.7-0.1-1.1l0.1-5.9h1.7
				l-0.1,5.6c0,0.1,0,0.3,0,0.4s0,0.3,0.1,0.3c0,0.1,0.1,0.1,0.3,0.1s0.3,0,0.4,0c0.1,0,0.1,0,0.3,0h0.1v1.4
				C128.2,40.6,127.9,40.6,127.6,40.6z"/>
			<path d="M135.1,41.3c-0.6,0-1-0.1-1.4-0.4c-0.4-0.1-0.9-0.4-1.1-0.9c-0.3-0.4-0.4-0.9-0.6-1.4c-0.1-0.6-0.1-1.1,0-1.9v-0.3
				c0.1-0.7,0.3-1.3,0.6-1.7c0.3-0.4,0.6-0.9,1-1.1s0.9-0.4,1.3-0.6c0.4-0.1,1-0.1,1.4,0c0.4,0,0.9,0.1,1.3,0.3
				c0.4,0.1,0.7,0.4,1,0.6c0.3,0.3,0.4,0.6,0.7,1c0.1,0.4,0.1,0.9,0.1,1.4l-2.1-0.3c0-0.3,0-0.4-0.1-0.6c0-0.1-0.1-0.3-0.3-0.4
				c-0.1-0.1-0.3-0.1-0.4-0.3c-0.1,0-0.3-0.1-0.4-0.1c-0.3,0-0.4,0-0.7,0c-0.1,0-0.4,0.1-0.6,0.3c-0.1,0.1-0.3,0.4-0.4,0.7
				c-0.1,0.3-0.1,0.6-0.3,1v0.3c0,0.4,0,0.9,0,1.1c0,0.3,0.1,0.6,0.3,0.7c0.1,0.1,0.3,0.4,0.4,0.4c0.1,0.1,0.4,0.1,0.6,0.1
				c0.4,0,0.7,0,1-0.1s0.4-0.4,0.6-0.9l2.1,0.3c-0.1,0.6-0.3,1-0.4,1.3c-0.3,0.3-0.6,0.6-0.9,0.9c-0.3,0.1-0.7,0.3-1.1,0.4
				C136.1,41.3,135.5,41.3,135.1,41.3z"/>
			<path d="M142.1,42.4c-0.4-0.1-0.9-0.3-1.1-0.4s-0.6-0.4-0.9-0.7c-0.3-0.3-0.4-0.7-0.4-1.1c0-0.4,0-0.9,0-1.4v-0.3
				c0.1-0.4,0.3-0.9,0.6-1.3c0.3-0.3,0.6-0.6,0.9-0.7c0.3-0.1,0.7-0.3,1.1-0.3s0.9,0,1.3,0.1c0.4,0.1,0.9,0.3,1.1,0.4
				c0.3,0.1,0.6,0.4,0.9,0.7c0.3,0.3,0.4,0.7,0.4,1c0.1,0.4,0,0.9,0,1.3V40c-0.1,0.6-0.3,1-0.6,1.3s-0.6,0.6-0.9,0.9
				c-0.3,0.1-0.7,0.3-1.1,0.4C143,42.6,142.5,42.6,142.1,42.4z M142.4,41c0.4,0.1,0.7,0,1-0.3c0.3-0.3,0.4-0.6,0.6-1.1v-0.3
				c0.1-0.4,0.1-0.9-0.1-1.1c-0.1-0.3-0.4-0.6-0.9-0.6c-0.4-0.1-0.7,0-1,0.3c-0.3,0.3-0.4,0.6-0.6,1v0.3c-0.1,0.6-0.1,1,0,1.3
				C141.7,40.7,142,41,142.4,41z"/>
			<path d="M147.6,38.8l-0.7-0.1l0.4-1.4l0.7,0.1l0.1-0.3c0.1-0.3,0.1-0.4,0.3-0.7c0.1-0.1,0.3-0.3,0.6-0.4c0.3-0.1,0.4-0.1,0.9-0.1
				c0.3,0,0.7,0.1,1.1,0.1c0.1,0,0.3,0.1,0.4,0.1s0.3,0.1,0.4,0.1l-0.4,1.4c-0.1,0-0.3-0.1-0.3-0.1l-0.3-0.1c-0.3-0.1-0.4-0.1-0.6,0
				c-0.1,0-0.1,0.1-0.3,0.3v0.1l1.3,0.4l-0.4,1.4l-1.3-0.4l-1.3,4.4l-1.7-0.6L147.6,38.8z"/>
			<path d="M151.8,40.3l-0.7-0.3l0.4-1.4l0.7,0.3l0.1-0.3c0.1-0.3,0.1-0.4,0.4-0.7c0.1-0.1,0.3-0.3,0.6-0.4c0.3-0.1,0.4-0.1,0.9,0
				c0.3,0,0.7,0.1,1.1,0.3c0.1,0,0.3,0.1,0.4,0.1s0.3,0.1,0.4,0.1l-0.4,1.4c-0.1,0-0.3-0.1-0.3-0.1c-0.1,0-0.3-0.1-0.3-0.1
				c-0.3-0.1-0.4-0.1-0.6,0c-0.1,0-0.1,0.1-0.3,0.3v0.1l1.3,0.4l-0.4,1.4L154,41l-1.6,4.3l-1.7-0.6L151.8,40.3z"/>
			<path d="M156.3,47.2c-0.4-0.1-0.7-0.4-1-0.7s-0.6-0.6-0.7-1c-0.1-0.3-0.3-0.7-0.1-1.1c0-0.4,0.1-0.9,0.3-1.4l0.1-0.1
				c0.1-0.4,0.4-0.9,0.7-1.1c0.3-0.3,0.6-0.4,1-0.6c0.3-0.1,0.7-0.1,1.1-0.1s0.7,0.1,1.1,0.3c0.9,0.4,1.6,1,1.7,1.6
				c0.3,0.7,0.1,1.4-0.1,2.4l-0.3,0.6l-3.9-1.7c-0.1,0.3-0.1,0.4-0.1,0.6s0,0.3,0.1,0.4c0,0.1,0.1,0.3,0.3,0.4
				c0.1,0.1,0.3,0.1,0.4,0.3c0.3,0.1,0.6,0.1,0.9,0.1c0.3,0,0.4-0.1,0.6-0.3l1.4,0.7c-0.4,0.6-0.9,0.9-1.4,1
				C157.6,47.6,157,47.4,156.3,47.2z M158.3,42.6c-0.1,0-0.3-0.1-0.4-0.1s-0.3,0-0.4,0s-0.3,0.1-0.4,0.1c-0.1,0.1-0.3,0.3-0.3,0.4
				l2.3,1c0.1-0.1,0.1-0.4,0.1-0.6c0-0.1,0-0.3-0.1-0.4c0-0.1-0.1-0.3-0.3-0.3C158.6,42.7,158.4,42.6,158.3,42.6z"/>
			<path d="M162.2,50c-0.4-0.3-0.7-0.4-1-0.7c-0.3-0.3-0.4-0.6-0.6-1c-0.1-0.4-0.1-0.7-0.1-1.1s0.1-0.9,0.4-1.3l0.1-0.1
				c0.3-0.4,0.6-0.9,0.9-1c0.3-0.3,0.7-0.4,1-0.6c0.4-0.1,0.7-0.1,1.1,0c0.4,0,0.7,0.1,1.1,0.4c0.9,0.4,1.4,1.1,1.6,1.7
				c0.1,0.7,0,1.4-0.4,2.3l-0.3,0.6l-3.7-2c-0.1,0.1-0.1,0.4-0.1,0.6c0,0.1,0,0.3,0,0.6c0,0.1,0.1,0.3,0.3,0.4
				c0.1,0.1,0.3,0.3,0.4,0.3c0.3,0.1,0.6,0.3,0.7,0.3c0.3,0,0.4,0,0.6-0.1l1.4,0.9c-0.4,0.6-1,0.9-1.6,0.9
				C163.5,50.6,162.9,50.4,162.2,50z M164.5,45.6c-0.1-0.1-0.3-0.1-0.4-0.1s-0.3,0-0.4,0s-0.3,0.1-0.4,0.1c-0.1,0.1-0.3,0.1-0.3,0.4
				l2.3,1.3c0.1-0.1,0.1-0.4,0.1-0.6c0-0.1,0-0.3-0.1-0.4c0-0.1-0.1-0.3-0.3-0.3C164.7,45.9,164.6,45.7,164.5,45.6z"/>
		</g>
	</g>
</g>
</svg>
