<svg width="52" height="52" viewBox="0 0 52 52" fill="none" xmlns="http://www.w3.org/2000/svg">
<path d="M32.1253 41H20.8785C15.9836 41 12 37.0169 12 32.1227V20.8773C12 15.9831 15.9836 12 20.8785 12H32.1215C37.0164 12 41 15.9831 41 20.8773V32.1189C41 37.0131 37.0164 40.9962 32.1215 40.9962L32.1253 41ZM20.8785 14.1723C17.181 14.1723 14.1726 17.1803 14.1726 20.8773V32.1189C14.1726 35.8159 17.181 38.8277 20.8822 38.8277H32.1253C35.8228 38.8277 38.835 35.8197 38.835 32.1189V20.8773C38.835 17.1803 35.8265 14.1685 32.1253 14.1685H20.8785V14.1723Z" fill="#0A000F"/>
<path d="M26.4998 33.8356C22.4559 33.8356 19.165 30.5452 19.165 26.5019C19.165 22.4585 22.4559 19.1681 26.4998 19.1681C30.5436 19.1681 33.8345 22.4585 33.8345 26.5019C33.8345 30.5452 30.5436 33.8356 26.4998 33.8356ZM26.4998 21.3893C23.6796 21.3893 21.3865 23.682 21.3865 26.5019C21.3865 29.3217 23.6796 31.6144 26.4998 31.6144C29.3199 31.6144 31.613 29.3217 31.613 26.5019C31.613 23.682 29.3199 21.3893 26.4998 21.3893Z" fill="#0A000F"/>
<path d="M36.5455 18.3661C36.5455 19.4203 35.6908 20.2749 34.6365 20.2749C33.5823 20.2749 32.7275 19.4203 32.7275 18.3661C32.7275 17.312 33.5823 16.4574 34.6365 16.4574C35.6908 16.4574 36.5455 17.312 36.5455 18.3661Z" fill="#0A000F"/>
<path d="M51 26C51 12.1929 39.8071 1 26 1C12.1929 1 1 12.1929 1 26C1 39.8071 12.1929 51 26 51C39.8071 51 51 39.8071 51 26Z" stroke="#222221" stroke-width="1.5" stroke-miterlimit="10"/>
</svg>
