<svg width="51" height="51" viewBox="0 0 51 51" fill="none" xmlns="http://www.w3.org/2000/svg">
<path d="M50 25.5C50 11.969 39.031 1 25.5 1C11.969 1 1 11.969 1 25.5C1 39.031 11.969 50 25.5 50C39.031 50 50 39.031 50 25.5Z" stroke="#222221" stroke-width="2" stroke-miterlimit="10"/>
<path d="M35.1002 16H15.8998C13.7474 16 12 17.6477 12 19.6772V32.3228C12 34.3523 13.7474 36 15.8998 36H35.1002C37.2526 36 39 34.3523 39 32.3228V19.6772C39 17.6477 37.2526 16 35.1002 16ZM35.1002 17.7549C35.2565 17.7549 35.4128 17.7749 35.562 17.8084L27.4641 26.4756C26.9669 27.0047 26.2494 27.3128 25.5036 27.3128C24.7577 27.3128 24.0403 27.0114 23.543 26.4756L15.438 17.8084C15.5872 17.7749 15.7435 17.7549 15.8998 17.7549H35.1002ZM37.1318 32.3228C37.1318 33.3811 36.2226 34.2384 35.1002 34.2384H15.8998C14.7774 34.2384 13.8682 33.3811 13.8682 32.3228V19.6772C13.8682 19.4226 13.925 19.1748 14.0174 18.9471L22.1365 27.6343C22.989 28.5452 24.2107 29.0676 25.4964 29.0676C26.7822 29.0676 28.0039 28.5452 28.8564 27.6343L36.9755 18.9471C37.075 19.1681 37.1247 19.4159 37.1247 19.6772V32.3228H37.1318Z" fill="black"/>
</svg>
