<svg width="51" height="51" viewBox="0 0 51 51" fill="none" xmlns="http://www.w3.org/2000/svg">
<path d="M50 25.5C50 11.969 39.031 1 25.5 1C11.969 1 1 11.969 1 25.5C1 39.031 11.969 50 25.5 50C39.031 50 50 39.031 50 25.5Z" stroke="#222221" stroke-width="2" stroke-miterlimit="10"/>
<path d="M31.9994 37.8517C31.9994 39.0382 29.3134 40 25.9997 40C22.686 40 20 39.0382 20 37.8517C20 37.0631 21.1867 36.3737 22.9557 36C23.713 36.7817 24.3833 37.3899 24.8635 37.8025C25.1808 38.0749 25.5844 38.2248 26 38.2248C26.4156 38.2248 26.8192 38.0749 27.1365 37.8025C27.617 37.3899 28.287 36.782 29.0443 36C30.8133 36.3737 32 37.0631 32 37.8517H31.9994Z" fill="black"/>
<path d="M26 11C21.0295 11 17 15.2429 17 20.4768C17 28.6344 23.1308 34.8106 25.2723 36.7192C25.6923 37.0936 26.3077 37.0936 26.7277 36.7192C28.8692 34.8106 35 28.6344 35 20.4768C35 15.2429 30.9705 11 26 11ZM25.946 26.5561C22.76 26.5561 20.1774 23.8366 20.1774 20.4818C20.1774 17.127 22.7603 14.4075 25.946 14.4075C29.1318 14.4075 31.7147 17.127 31.7147 20.4818C31.7147 23.8366 29.132 26.5561 25.946 26.5561Z" fill="black"/>
</svg>
