<?xml version="1.0" encoding="UTF-8"?><svg id="_ар_2" xmlns="http://www.w3.org/2000/svg" viewBox="0 0 509.43 197.25"><defs><style>.cls-1{fill:#454443;}.cls-2{fill:#194b51;}</style></defs><g id="_ар_1-2"><g><path class="cls-2" d="M17.88,20.03V0h4.01L58.55,47.46,95.23,0h4.01V111.56h13.87V0h4.01V115.57h-21.88V6.32L60.25,51.47h-3.54L21.88,6.47V26.81l37.91,50.23-3.08,2.31L21.88,33.29V115.57H0V0H4.01l13.87,20.03Zm0,91.53V26.5L4.01,6.63V111.56h13.87Z"/><path class="cls-2" d="M135.91,4.01l27.43,43.92-3.39,2L128.66,0h25.89l27.12,44.22L208.33,0h25.89l-40.22,64.72h-4.78l-7.55-12.48-7.4,12.48v46.84h18.8v4.01h-22.8V63.18l8.94-14.95L152.4,4.01h-16.49Zm48.23,44.22l7.55,12.48L226.98,4.01h-16.49l-26.35,44.22Z"/><path class="cls-2" d="M248.55,111.56v4.01h-23.58l14.79-41.91h18.49l16.33-51.16h5.86l16.64,55.17h-35.9l-4.16,12.94h45.15l7.24,20.96h15.1L286.61,3.85h-18.03l-20.19,56.86-3.7-1.23L265.65,0h23.73l40.68,115.57h-23.58l-7.24-20.96h-47.61l5.39-16.95h-14.49l-12.02,33.9h18.03Zm13.87-37.91h29.28l-14.17-47.15-15.1,47.15Z"/><polygon class="cls-2" points="374.13 111.56 374.13 20.96 322.05 20.96 322.05 0 412.35 0 412.35 20.96 408.34 20.96 408.34 4.01 326.06 4.01 326.06 16.95 378.14 16.95 378.14 115.57 356.26 115.57 356.26 33.9 360.27 33.9 360.27 111.56 374.13 111.56"/><path class="cls-2" d="M427.91,111.56v4.01h-23.58l14.79-41.91h18.49l16.33-51.16h5.86l16.64,55.17h-35.9l-4.16,12.94h45.15l7.24,20.96h15.1L465.97,3.85h-18.03l-20.19,56.86-3.7-1.23L445.02,0h23.73l40.68,115.57h-23.58l-7.24-20.96h-47.61l5.39-16.95h-14.48l-12.02,33.9h18.03Zm13.87-37.91h29.28l-14.17-47.15-15.1,47.15Z"/><path class="cls-1" d="M135.38,176.61h-20.92c.06,1.89,.54,3.58,1.44,5.06,.9,1.47,2.12,2.62,3.66,3.42,1.54,.81,3.27,1.21,5.2,1.21,1.58,0,3.05-.29,4.4-.86,1.35-.57,2.48-1.42,3.38-2.54l1.35,1.54c-1.05,1.27-2.38,2.25-3.98,2.93-1.6,.68-3.33,1.03-5.19,1.03-2.43,0-4.58-.53-6.48-1.58-1.89-1.06-3.38-2.52-4.45-4.38-1.07-1.86-1.61-3.99-1.61-6.38s.51-4.48,1.51-6.36c1.01-1.88,2.4-3.35,4.17-4.4,1.77-1.06,3.76-1.58,5.96-1.58s4.18,.52,5.94,1.56c1.75,1.04,3.14,2.49,4.14,4.35,1.01,1.87,1.51,3.98,1.51,6.34l-.04,.65Zm-16.17-9.71c-1.37,.76-2.46,1.83-3.28,3.22-.82,1.38-1.3,2.94-1.42,4.68h18.63c-.09-1.74-.56-3.29-1.4-4.66-.84-1.37-1.94-2.44-3.31-3.21-1.37-.78-2.91-1.17-4.61-1.17s-3.24,.38-4.61,1.14"/><path class="cls-1" d="M143.21,187.51c-1.77-.59-3.15-1.34-4.15-2.24l1.07-1.86c.99,.84,2.27,1.54,3.84,2.1,1.56,.56,3.2,.84,4.91,.84,2.45,0,4.26-.4,5.43-1.21,1.17-.81,1.75-1.92,1.75-3.35,0-1.03-.32-1.83-.95-2.42-.64-.59-1.42-1.03-2.35-1.3-.93-.28-2.22-.57-3.87-.89-1.93-.34-3.48-.71-4.66-1.12-1.18-.4-2.19-1.06-3.03-1.96-.84-.9-1.26-2.15-1.26-3.73,0-1.92,.8-3.52,2.4-4.77,1.6-1.26,3.88-1.88,6.82-1.88,1.56,0,3.09,.22,4.61,.65,1.52,.44,2.76,1.01,3.73,1.72l-1.07,1.86c-1-.71-2.13-1.26-3.4-1.63-1.27-.37-2.58-.56-3.91-.56-2.27,0-3.98,.42-5.12,1.26-1.15,.84-1.72,1.94-1.72,3.31,0,1.09,.32,1.93,.98,2.54,.65,.6,1.45,1.05,2.4,1.35,.95,.3,2.27,.61,3.98,.95,1.89,.34,3.42,.71,4.58,1.09,1.16,.39,2.15,1.02,2.96,1.89,.8,.87,1.21,2.07,1.21,3.59,0,2.02-.84,3.63-2.52,4.84-1.68,1.21-4.04,1.82-7.08,1.82-1.96,0-3.82-.3-5.59-.89"/><path class="cls-1" d="M183.26,165.29c1.83,1.05,3.27,2.52,4.31,4.38,1.04,1.86,1.56,3.99,1.56,6.38s-.52,4.53-1.56,6.4c-1.04,1.88-2.48,3.34-4.31,4.38-1.83,1.04-3.88,1.56-6.15,1.56-2.14,0-4.08-.51-5.82-1.52-1.74-1.01-3.09-2.41-4.05-4.21v14.58h-2.33v-33.35h2.24v5.73c.96-1.86,2.32-3.31,4.08-4.35,1.75-1.04,3.72-1.56,5.89-1.56s4.32,.53,6.15,1.58m-1.26,19.7c1.49-.87,2.67-2.08,3.52-3.63,.85-1.55,1.28-3.32,1.28-5.31s-.43-3.76-1.28-5.31c-.85-1.55-2.02-2.76-3.52-3.63-1.49-.87-3.17-1.3-5.03-1.3s-3.53,.43-5,1.3c-1.48,.87-2.64,2.08-3.49,3.63-.86,1.55-1.28,3.32-1.28,5.31s.43,3.76,1.28,5.31c.85,1.55,2.02,2.77,3.49,3.63,1.47,.87,3.14,1.3,5,1.3s3.54-.43,5.03-1.3"/><path class="cls-1" d="M202.08,165.13c1.58-.95,3.51-1.42,5.77-1.42v2.28l-.55-.05c-2.7,0-4.82,.85-6.34,2.54-1.52,1.69-2.28,4.04-2.28,7.06v12.67h-2.33v-24.32h2.24v5.31c.75-1.77,1.91-3.13,3.49-4.08"/><path class="cls-1" d="M234.59,176.61h-20.92c.06,1.89,.55,3.58,1.45,5.06,.9,1.47,2.12,2.62,3.66,3.42,1.53,.81,3.27,1.21,5.19,1.21,1.58,0,3.05-.29,4.4-.86,1.35-.57,2.48-1.42,3.38-2.54l1.35,1.54c-1.06,1.27-2.38,2.25-3.98,2.93-1.6,.68-3.33,1.03-5.19,1.03-2.42,0-4.58-.53-6.47-1.58-1.9-1.06-3.38-2.52-4.45-4.38-1.07-1.86-1.61-3.99-1.61-6.38s.5-4.48,1.51-6.36c1.01-1.88,2.4-3.35,4.17-4.4,1.77-1.06,3.76-1.58,5.96-1.58s4.18,.52,5.94,1.56c1.76,1.04,3.14,2.49,4.14,4.35,1.01,1.87,1.52,3.98,1.52,6.34l-.05,.65Zm-16.16-9.71c-1.37,.76-2.46,1.83-3.28,3.22-.82,1.38-1.3,2.94-1.42,4.68h18.63c-.1-1.74-.56-3.29-1.4-4.66-.84-1.37-1.94-2.44-3.31-3.21-1.36-.78-2.9-1.17-4.61-1.17s-3.25,.38-4.61,1.14"/><path class="cls-1" d="M242.42,187.51c-1.77-.59-3.15-1.34-4.14-2.24l1.07-1.86c1,.84,2.27,1.54,3.84,2.1,1.57,.56,3.21,.84,4.91,.84,2.46,0,4.26-.4,5.43-1.21,1.16-.81,1.75-1.92,1.75-3.35,0-1.03-.32-1.83-.96-2.42-.64-.59-1.42-1.03-2.35-1.3-.93-.28-2.22-.57-3.87-.89-1.92-.34-3.48-.71-4.66-1.12-1.18-.4-2.19-1.06-3.02-1.96-.84-.9-1.26-2.15-1.26-3.73,0-1.92,.8-3.52,2.4-4.77,1.6-1.26,3.87-1.88,6.82-1.88,1.55,0,3.09,.22,4.61,.65,1.52,.44,2.76,1.01,3.73,1.72l-1.07,1.86c-.99-.71-2.12-1.26-3.4-1.63-1.27-.37-2.58-.56-3.91-.56-2.27,0-3.98,.42-5.13,1.26-1.15,.84-1.73,1.94-1.73,3.31,0,1.09,.33,1.93,.98,2.54,.65,.6,1.45,1.05,2.4,1.35,.95,.3,2.27,.61,3.98,.95,1.9,.34,3.43,.71,4.59,1.09,1.16,.39,2.15,1.02,2.96,1.89,.81,.87,1.21,2.07,1.21,3.59,0,2.02-.84,3.63-2.52,4.84-1.67,1.21-4.04,1.82-7.08,1.82-1.96,0-3.82-.3-5.59-.89"/><path class="cls-1" d="M264.68,187.51c-1.77-.59-3.15-1.34-4.15-2.24l1.07-1.86c.99,.84,2.27,1.54,3.84,2.1,1.56,.56,3.2,.84,4.91,.84,2.45,0,4.26-.4,5.43-1.21,1.17-.81,1.75-1.92,1.75-3.35,0-1.03-.32-1.83-.95-2.42-.64-.59-1.42-1.03-2.35-1.3-.93-.28-2.22-.57-3.87-.89-1.93-.34-3.48-.71-4.66-1.12-1.18-.4-2.19-1.06-3.03-1.96-.84-.9-1.26-2.15-1.26-3.73,0-1.92,.8-3.52,2.4-4.77,1.6-1.26,3.88-1.88,6.82-1.88,1.56,0,3.09,.22,4.61,.65,1.52,.44,2.77,1.01,3.73,1.72l-1.07,1.86c-1-.71-2.13-1.26-3.4-1.63-1.27-.37-2.58-.56-3.91-.56-2.27,0-3.98,.42-5.12,1.26-1.15,.84-1.73,1.94-1.73,3.31,0,1.09,.32,1.93,.98,2.54,.65,.6,1.45,1.05,2.4,1.35,.95,.3,2.27,.61,3.98,.95,1.89,.34,3.42,.71,4.58,1.09,1.16,.39,2.15,1.02,2.96,1.89,.8,.87,1.21,2.07,1.21,3.59,0,2.02-.84,3.63-2.52,4.84-1.68,1.21-4.04,1.82-7.08,1.82-1.96,0-3.82-.3-5.59-.89"/><path class="cls-1" d="M289.67,186.81c-1.85-1.05-3.3-2.52-4.35-4.4-1.05-1.88-1.58-4-1.58-6.36s.53-4.48,1.58-6.36c1.06-1.88,2.51-3.35,4.35-4.4,1.85-1.06,3.92-1.58,6.22-1.58s4.37,.53,6.22,1.58c1.85,1.05,3.3,2.52,4.36,4.4,1.05,1.88,1.58,4,1.58,6.36s-.53,4.48-1.58,6.36c-1.06,1.88-2.51,3.35-4.36,4.4-1.85,1.05-3.92,1.58-6.22,1.58s-4.37-.53-6.22-1.58m11.23-1.82c1.47-.87,2.64-2.08,3.49-3.63,.86-1.55,1.28-3.32,1.28-5.31s-.43-3.76-1.28-5.31c-.86-1.55-2.02-2.76-3.49-3.63-1.47-.87-3.14-1.3-5.01-1.3s-3.53,.43-5.01,1.3c-1.47,.87-2.64,2.08-3.49,3.63-.85,1.55-1.28,3.32-1.28,5.31s.43,3.76,1.28,5.31c.85,1.55,2.02,2.77,3.49,3.63,1.48,.87,3.15,1.3,5.01,1.3s3.53-.43,5.01-1.3"/><path class="cls-1" d="M345.59,165.27c1.83,1.04,3.27,2.5,4.31,4.38,1.04,1.88,1.56,4.01,1.56,6.4s-.52,4.52-1.56,6.38c-1.04,1.86-2.48,3.33-4.31,4.38-1.83,1.05-3.88,1.58-6.15,1.58s-4.14-.52-5.89-1.56c-1.76-1.04-3.12-2.49-4.08-4.36v5.73h-2.24v-34.56h2.33v15.79c.96-1.8,2.32-3.21,4.05-4.22,1.74-1.01,3.68-1.51,5.82-1.51,2.27,0,4.32,.52,6.15,1.56m-1.26,19.73c1.49-.87,2.67-2.08,3.52-3.63,.86-1.55,1.28-3.32,1.28-5.31s-.43-3.76-1.28-5.31c-.85-1.55-2.02-2.76-3.52-3.63-1.49-.87-3.17-1.3-5.03-1.3s-3.53,.43-5,1.3c-1.48,.87-2.64,2.08-3.49,3.63-.86,1.55-1.28,3.32-1.28,5.31s.43,3.76,1.28,5.31c.85,1.55,2.02,2.77,3.49,3.63,1.47,.87,3.14,1.3,5,1.3s3.54-.43,5.03-1.3"/><path class="cls-1" d="M373.72,166.01c1.61,1.54,2.42,3.8,2.42,6.78v15.42h-2.24v-4.33c-.78,1.43-1.91,2.54-3.4,3.33-1.49,.79-3.28,1.19-5.36,1.19-2.7,0-4.84-.64-6.4-1.91-1.57-1.27-2.35-2.95-2.35-5.03s.72-3.65,2.17-4.91c1.45-1.26,3.75-1.89,6.92-1.89h8.34v-1.96c0-2.26-.61-3.99-1.84-5.17-1.23-1.18-3.02-1.77-5.38-1.77-1.61,0-3.16,.28-4.63,.84-1.48,.56-2.72,1.31-3.75,2.24l-1.16-1.68c1.21-1.09,2.67-1.93,4.38-2.54,1.71-.61,3.49-.91,5.35-.91,3.02,0,5.33,.77,6.94,2.3m-3.1,19.07c1.41-.93,2.48-2.28,3.19-4.05v-4.56h-8.29c-2.39,0-4.12,.43-5.19,1.3-1.07,.87-1.61,2.07-1.61,3.59s.59,2.84,1.77,3.75c1.18,.92,2.84,1.37,4.98,1.37,2.02,0,3.73-.46,5.15-1.4"/><path class="cls-1" d="M391.47,165.13c1.58-.95,3.51-1.42,5.77-1.42v2.28l-.55-.05c-2.7,0-4.82,.85-6.34,2.54-1.52,1.69-2.28,4.04-2.28,7.06v12.67h-2.33v-24.32h2.24v5.31c.74-1.77,1.91-3.13,3.49-4.08"/></g></g></svg>