<?xml version="1.0" encoding="utf-8"?>
<!-- Generator: Adobe Illustrator 27.1.1, SVG Export Plug-In . SVG Version: 6.00 Build 0)  -->
<svg version="1.1" id="_Шар_2" xmlns="http://www.w3.org/2000/svg" xmlns:xlink="http://www.w3.org/1999/xlink" x="0px" y="0px"
	 viewBox="0 0 171 70.7" style="enable-background:new 0 0 171 70.7;" xml:space="preserve">
<style type="text/css">
	.st0{fill:#00070E;}
	.st1{enable-background:new    ;}
	.st2{fill:#1D1D1B;}
</style>
<g id="Layer_1">
	<g>
		<g>
			<path class="st0" d="M30.6,29.5c2.4-1.3,4.3-3,5.5-5.2c1.3-2.2,1.9-4.8,1.9-7.7c0-3.1-0.7-5.9-2.2-8.2s-3.6-4.2-6.3-5.4
				S23.6,0.9,20,0.9h-19v41.3h13.3V32.1h3.8l6.5,10.1h14.2l-6.6-10.1C32.3,32.1,30.6,29.5,30.6,29.5z M18.1,24.8
				c-2,0.5-3.6,0.1-4.8-0.7c-0.5-0.4-0.7-0.9-0.8-1.6c-0.1-0.7-0.1-1.8,0.1-3.9c0.1-2.4,0.2-3.9,0.4-4.5c0.2-0.6,0.7-1.1,1.5-1.6
				c1.5-1,3-1.3,4.5-0.9c1.5,0.4,3.6,1.2,4.7,2.8c1.3,2.1,1.3,4.4,0,6.8c-0.5,1-0.7,1.5-0.8,1.8C22.3,23.8,20.1,24.3,18.1,24.8
				L18.1,24.8z"/>
			<path class="st0" d="M75,2.8C71.6,1,67.8,0,63.5,0S55.4,1,52,2.8c-3.4,1.8-6,4.4-8,7.7c-1.9,3.3-2.9,7-2.9,11.1
				c0,3.9,0.9,7.4,2.6,10.5c0.1,0.2,0.2,0.4,0.3,0.6c1.9,3.3,4.6,5.8,8,7.7c3.4,1.8,7.2,2.8,11.5,2.8s8.1-0.9,11.5-2.8
				c3.4-1.8,6.1-4.4,8-7.7c0.1-0.2,0.2-0.4,0.3-0.6c1.7-3.1,2.6-6.6,2.6-10.5c0-4.1-1-7.8-2.9-11.1S78.4,4.7,75,2.8z M63.5,11.5
				c1.7,0,3.4,0.2,4.6,1.2c2.9,2.6,4.7,5.1,4.7,8.9c0,2.3-1,4.2-2.3,5.9c-1.8,2.5-4.2,4.9-7,4.2c-2.5-0.6-4.6-1.1-6.3-2.9
				c-1.8-1.9-2.9-4.4-2.9-7.3C54.2,16,58.2,11.5,63.5,11.5L63.5,11.5z"/>
			<path class="st0" d="M123.2,2.8C119.8,0.9,116,0,111.7,0s-8.1,0.9-11.5,2.8s-6.1,4.4-8,7.7s-2.9,7-2.9,11.1
				c0,3.9,0.9,7.4,2.6,10.6c0.1,0.2,0.2,0.4,0.3,0.5c1.9,3.3,4.6,5.8,8,7.7s7.2,2.8,11.5,2.8s8.1-0.9,11.5-2.8
				c3.4-1.8,6.1-4.4,8-7.7c0.1-0.2,0.2-0.4,0.3-0.5c1.7-3.1,2.6-6.7,2.6-10.6c0-4.1-1-7.8-2.9-11.1S126.6,4.6,123.2,2.8L123.2,2.8z
				 M105.3,16.4c2-2.9,4.3-4.5,7-4.9c0.8,0,2.6,1,5.2,3.1c2.6,2,2.9,3.1,2.9,3.9c1,3-0.6,7.1-3.7,9.4c-3.9,2.9-7.4,3.9-11,2.9
				c-2.2-1-3.3-3.5-3.4-6.1C102.3,22.1,103.3,19.3,105.3,16.4L105.3,16.4z"/>
			<path class="st0" d="M154.2,12.3c1-0.6,1.9-0.8,2.9-0.9c0.1,0,0.3,0,0.4,0H171V0.9h-32.2v41.3h13.3V32.1h16.5V21.6
				c0,0-7.4,0-9.1,0c-2.7,0.1-4.3,0.1-5,0s-1.2-0.6-1.8-1.3c-1.1-1.4-1.6-2.7-1.2-4.1C151.9,14.8,152.6,13.4,154.2,12.3L154.2,12.3z
				"/>
		</g>
		<g class="st1">
			<path class="st2" d="M5.1,65.2c-0.9,0-1.8-0.1-2.6-0.4c-0.8-0.3-1.5-0.6-1.9-1l0.7-1.2c0.5,0.3,1,0.6,1.8,0.9
				c0.7,0.2,1.5,0.4,2.2,0.4c1.1,0,1.8-0.2,2.3-0.5s0.7-0.8,0.7-1.3c0-0.4-0.1-0.7-0.4-1c-0.3-0.2-0.6-0.4-1-0.5
				c-0.4-0.1-0.9-0.2-1.4-0.3c-0.5-0.1-1.1-0.2-1.6-0.3c-0.5-0.1-1-0.3-1.4-0.5c-0.4-0.2-0.8-0.5-1-0.9C1.1,58.1,1,57.6,1,57
				c0-0.6,0.2-1.2,0.5-1.6c0.3-0.5,0.8-0.9,1.5-1.1s1.5-0.4,2.4-0.4c0.7,0,1.5,0.1,2.2,0.3c0.7,0.2,1.3,0.4,1.8,0.8L8.7,56
				c-0.5-0.3-1-0.6-1.6-0.7c-0.6-0.2-1.1-0.2-1.7-0.2c-1,0-1.8,0.2-2.2,0.5c-0.5,0.4-0.7,0.8-0.7,1.3c0,0.4,0.1,0.8,0.4,1
				c0.3,0.2,0.6,0.4,1,0.6s0.9,0.2,1.4,0.3c0.5,0.1,1,0.2,1.6,0.3s1,0.3,1.4,0.5c0.4,0.2,0.8,0.5,1,0.9s0.4,0.9,0.4,1.5
				c0,0.7-0.2,1.2-0.5,1.7c-0.4,0.5-0.9,0.8-1.6,1.1C7,65.1,6.1,65.2,5.1,65.2z"/>
			<path class="st2" d="M13,69.3V53.9h1.5v3.4l-0.1,2.2l0.2,2.3v7.5H13z M18.8,65.2c-1,0-1.8-0.2-2.6-0.7s-1.4-1.1-1.9-1.9
				c-0.5-0.8-0.7-1.9-0.7-3.1c0-1.2,0.2-2.3,0.7-3.1c0.5-0.8,1.1-1.5,1.9-1.9s1.7-0.7,2.7-0.7c1.1,0,2,0.2,2.9,0.7
				c0.8,0.5,1.5,1.1,2,2c0.5,0.9,0.7,1.9,0.7,3c0,1.1-0.2,2.1-0.7,3c-0.5,0.9-1.2,1.5-2,2C20.8,65,19.8,65.2,18.8,65.2z M18.7,63.9
				c0.8,0,1.5-0.2,2.1-0.5c0.6-0.4,1.1-0.9,1.5-1.5c0.4-0.7,0.6-1.4,0.6-2.3s-0.2-1.6-0.6-2.3c-0.4-0.7-0.9-1.2-1.5-1.5
				c-0.6-0.4-1.3-0.6-2.1-0.6c-0.8,0-1.5,0.2-2.2,0.6s-1.1,0.9-1.5,1.5s-0.5,1.4-0.5,2.3s0.2,1.6,0.5,2.3c0.4,0.7,0.9,1.2,1.5,1.5
				C17.1,63.7,17.9,63.9,18.7,63.9z"/>
			<path class="st2" d="M32.7,65.2c-1.2,0-2.2-0.2-3.1-0.7s-1.6-1.2-2.1-2c-0.5-0.9-0.7-1.9-0.7-3c0-1.1,0.2-2.1,0.7-3
				c0.5-0.9,1.1-1.5,2-2c0.8-0.5,1.8-0.7,2.8-0.7c1.1,0,2,0.2,2.8,0.7c0.8,0.5,1.5,1.1,1.9,2s0.7,1.9,0.7,3c0,0.1,0,0.1,0,0.2
				c0,0.1,0,0.2,0,0.2h-9.8v-1.1h9l-0.6,0.5c0-0.8-0.2-1.5-0.5-2.2c-0.3-0.6-0.8-1.1-1.4-1.5c-0.6-0.4-1.3-0.5-2.1-0.5
				c-0.8,0-1.5,0.2-2.1,0.5c-0.6,0.4-1.1,0.9-1.4,1.5c-0.3,0.6-0.5,1.4-0.5,2.2v0.2c0,0.9,0.2,1.6,0.6,2.3c0.4,0.6,0.9,1.2,1.6,1.5
				c0.7,0.4,1.5,0.5,2.3,0.5c0.7,0,1.3-0.1,1.9-0.4c0.6-0.2,1.1-0.6,1.5-1.1l0.9,1c-0.5,0.6-1.1,1.1-1.9,1.4
				C34.4,65.1,33.6,65.2,32.7,65.2z"/>
		</g>
		<g class="st1">
			<path class="st2" d="M45.6,65.2c-1.1,0-2.1-0.2-3-0.7s-1.6-1.2-2.1-2c-0.5-0.9-0.7-1.9-0.7-3c0-1.1,0.2-2.1,0.7-3
				c0.5-0.9,1.2-1.5,2.1-2s1.9-0.7,3-0.7c1,0,1.8,0.2,2.6,0.6c0.8,0.4,1.4,0.9,1.8,1.7l-1.1,0.8c-0.4-0.6-0.9-1-1.4-1.3
				c-0.6-0.3-1.2-0.4-1.9-0.4c-0.8,0-1.5,0.2-2.2,0.5c-0.6,0.4-1.1,0.9-1.5,1.5s-0.6,1.4-0.6,2.3s0.2,1.7,0.6,2.3
				c0.4,0.7,0.9,1.2,1.5,1.5c0.6,0.4,1.4,0.5,2.2,0.5c0.7,0,1.3-0.1,1.9-0.4c0.6-0.3,1-0.7,1.4-1.2L50,63c-0.4,0.7-1,1.3-1.8,1.7
				C47.4,65,46.6,65.2,45.6,65.2z"/>
		</g>
		<g class="st1">
			<path class="st2" d="M53.9,51.4c-0.3,0-0.6-0.1-0.8-0.3s-0.3-0.5-0.3-0.8s0.1-0.6,0.3-0.8s0.5-0.3,0.8-0.3c0.3,0,0.6,0.1,0.8,0.3
				c0.2,0.2,0.3,0.4,0.3,0.7c0,0.3-0.1,0.6-0.3,0.8C54.5,51.3,54.3,51.4,53.9,51.4z M53.2,65.1V53.9h1.5v11.2H53.2z"/>
			<path class="st2" d="M62.5,65.2c-0.8,0-1.6-0.1-2.2-0.4s-1.1-0.7-1.4-1.2c-0.3-0.5-0.5-1.1-0.5-1.7c0-0.6,0.1-1.1,0.4-1.6
				c0.3-0.5,0.7-0.9,1.4-1.2s1.5-0.4,2.6-0.4h3.9v1.1h-3.8c-1.1,0-1.8,0.2-2.3,0.6c-0.4,0.4-0.6,0.9-0.6,1.4c0,0.6,0.2,1.2,0.7,1.5
				c0.5,0.4,1.2,0.6,2.1,0.6c0.9,0,1.6-0.2,2.2-0.6s1.1-1,1.4-1.7l0.3,1c-0.3,0.7-0.8,1.3-1.5,1.8C64.4,65,63.6,65.2,62.5,65.2z
				 M66.4,65.1v-2.5l-0.1-0.4v-4.2c0-1-0.3-1.7-0.8-2.2s-1.3-0.8-2.4-0.8c-0.7,0-1.4,0.1-2.1,0.4c-0.7,0.2-1.2,0.6-1.7,1l-0.7-1.1
				c0.6-0.5,1.3-0.9,2.1-1.1c0.8-0.3,1.6-0.4,2.5-0.4c1.5,0,2.6,0.4,3.4,1.1c0.8,0.7,1.2,1.8,1.2,3.3v7H66.4z"/>
		</g>
		<g class="st1">
			<path class="st2" d="M72.2,65.1V49.2h1.5v15.9H72.2z"/>
		</g>
		<g class="st1">
			<path class="st2" d="M76.5,55.1v-1.3h7v1.3H76.5z M81.9,65.2c-1.1,0-1.9-0.3-2.4-0.9c-0.6-0.6-0.9-1.4-0.9-2.4V51.4h1.5v10.5
				c0,0.7,0.2,1.2,0.5,1.5c0.3,0.4,0.8,0.5,1.4,0.5c0.7,0,1.2-0.2,1.7-0.6l0.5,1.1c-0.3,0.3-0.7,0.5-1.1,0.6
				C82.7,65.1,82.3,65.2,81.9,65.2z"/>
		</g>
		<g class="st1">
			<path class="st2" d="M87.2,69.4c-0.5,0-1-0.1-1.5-0.3s-0.9-0.4-1.2-0.8l0.7-1.1c0.3,0.3,0.6,0.5,0.9,0.6c0.3,0.1,0.7,0.2,1.1,0.2
				c0.5,0,0.9-0.1,1.3-0.4c0.4-0.3,0.7-0.8,1-1.5l0.7-1.6l0.2-0.2l4.6-10.4h1.5l-5.6,12.6c-0.3,0.7-0.7,1.3-1,1.7
				c-0.4,0.4-0.8,0.7-1.2,0.9C88.2,69.3,87.7,69.4,87.2,69.4z M90.2,65.4L85,53.9h1.6l4.6,10.3L90.2,65.4z"/>
		</g>
		<g class="st1">
			<path class="st2" d="M109.6,65.2c-1.1,0-2.1-0.2-3-0.7c-0.9-0.5-1.6-1.2-2.1-2c-0.5-0.9-0.7-1.9-0.7-3c0-1.1,0.2-2.1,0.7-3
				c0.5-0.9,1.2-1.5,2.1-2c0.9-0.5,1.9-0.7,3-0.7c1,0,1.8,0.2,2.6,0.6s1.4,0.9,1.8,1.7l-1.1,0.8c-0.4-0.6-0.9-1-1.4-1.3
				c-0.6-0.3-1.2-0.4-1.9-0.4c-0.8,0-1.5,0.2-2.2,0.5c-0.6,0.4-1.1,0.9-1.5,1.5s-0.6,1.4-0.6,2.3s0.2,1.7,0.6,2.3
				c0.4,0.7,0.9,1.2,1.5,1.5c0.6,0.4,1.4,0.5,2.2,0.5c0.7,0,1.3-0.1,1.9-0.4c0.6-0.3,1-0.7,1.4-1.2L114,63c-0.4,0.7-1,1.3-1.8,1.7
				S110.6,65.2,109.6,65.2z"/>
		</g>
		<g class="st1">
			<path class="st2" d="M121.7,65.2c-1.1,0-2.1-0.2-2.9-0.7s-1.5-1.2-2-2s-0.7-1.9-0.7-3c0-1.1,0.2-2.1,0.7-3c0.5-0.9,1.2-1.5,2-2
				s1.8-0.7,2.9-0.7c1.1,0,2.1,0.2,3,0.7s1.5,1.2,2,2c0.5,0.9,0.7,1.8,0.7,3c0,1.1-0.2,2.1-0.7,3s-1.2,1.5-2,2
				S122.8,65.2,121.7,65.2z M121.7,63.9c0.8,0,1.5-0.2,2.2-0.5c0.6-0.4,1.1-0.9,1.5-1.5c0.4-0.7,0.5-1.4,0.5-2.3
				c0-0.9-0.2-1.7-0.5-2.3s-0.9-1.2-1.5-1.5c-0.6-0.4-1.3-0.5-2.1-0.5c-0.8,0-1.5,0.2-2.1,0.5c-0.6,0.4-1.1,0.9-1.5,1.5
				s-0.6,1.4-0.6,2.3c0,0.9,0.2,1.6,0.6,2.3c0.4,0.7,0.9,1.2,1.5,1.5C120.2,63.7,120.9,63.9,121.7,63.9z"/>
		</g>
		<g class="st1">
			<path class="st2" d="M129.1,55.1v-1.3h7v1.3H129.1z M131.1,65.1V52.5c0-1,0.3-1.8,0.9-2.4c0.6-0.6,1.4-0.9,2.5-0.9
				c0.4,0,0.8,0.1,1.2,0.2s0.7,0.3,1,0.5l-0.5,1.1c-0.2-0.2-0.5-0.3-0.7-0.4c-0.3-0.1-0.6-0.1-0.9-0.1c-0.6,0-1.1,0.2-1.5,0.5
				c-0.3,0.4-0.5,0.9-0.5,1.6v1.7l0,0.7v10.2H131.1z"/>
		</g>
		<g class="st1">
			<path class="st2" d="M136.7,55.1v-1.3h7v1.3H136.7z M138.7,65.1V52.5c0-1,0.3-1.8,0.9-2.4c0.6-0.6,1.4-0.9,2.5-0.9
				c0.4,0,0.8,0.1,1.2,0.2s0.7,0.3,1,0.5l-0.5,1.1c-0.2-0.2-0.5-0.3-0.7-0.4c-0.3-0.1-0.6-0.1-0.9-0.1c-0.6,0-1.1,0.2-1.5,0.5
				c-0.3,0.4-0.5,0.9-0.5,1.6v1.7l0,0.7v10.2H138.7z"/>
		</g>
		<g class="st1">
			<path class="st2" d="M150.6,65.2c-1.2,0-2.2-0.2-3.1-0.7s-1.6-1.2-2.1-2c-0.5-0.9-0.7-1.9-0.7-3c0-1.1,0.2-2.1,0.7-3
				c0.5-0.9,1.1-1.5,2-2s1.8-0.7,2.8-0.7c1.1,0,2,0.2,2.8,0.7c0.8,0.5,1.5,1.1,1.9,2s0.7,1.9,0.7,3c0,0.1,0,0.1,0,0.2
				c0,0.1,0,0.2,0,0.2h-9.8v-1.1h9l-0.6,0.5c0-0.8-0.2-1.5-0.5-2.2c-0.3-0.6-0.8-1.1-1.4-1.5c-0.6-0.4-1.3-0.5-2.1-0.5
				c-0.8,0-1.5,0.2-2.1,0.5c-0.6,0.4-1.1,0.9-1.4,1.5c-0.3,0.6-0.5,1.4-0.5,2.2v0.2c0,0.9,0.2,1.6,0.6,2.3c0.4,0.6,0.9,1.2,1.6,1.5
				c0.7,0.4,1.5,0.5,2.3,0.5c0.7,0,1.3-0.1,1.9-0.4c0.6-0.2,1.1-0.6,1.5-1.1l0.9,1c-0.5,0.6-1.1,1.1-1.9,1.4
				C152.4,65.1,151.5,65.2,150.6,65.2z"/>
			<path class="st2" d="M163.7,65.2c-1.2,0-2.2-0.2-3.1-0.7s-1.6-1.2-2.1-2c-0.5-0.9-0.7-1.9-0.7-3c0-1.1,0.2-2.1,0.7-3
				c0.5-0.9,1.1-1.5,2-2s1.8-0.7,2.8-0.7c1.1,0,2,0.2,2.8,0.7c0.8,0.5,1.5,1.1,1.9,2s0.7,1.9,0.7,3c0,0.1,0,0.1,0,0.2
				c0,0.1,0,0.2,0,0.2H159v-1.1h9l-0.6,0.5c0-0.8-0.2-1.5-0.5-2.2c-0.3-0.6-0.8-1.1-1.4-1.5c-0.6-0.4-1.3-0.5-2.1-0.5
				c-0.8,0-1.5,0.2-2.1,0.5c-0.6,0.4-1.1,0.9-1.4,1.5c-0.3,0.6-0.5,1.4-0.5,2.2v0.2c0,0.9,0.2,1.6,0.6,2.3c0.4,0.6,0.9,1.2,1.6,1.5
				c0.7,0.4,1.5,0.5,2.3,0.5c0.7,0,1.3-0.1,1.9-0.4c0.6-0.2,1.1-0.6,1.5-1.1l0.9,1c-0.5,0.6-1.1,1.1-1.9,1.4
				C165.5,65.1,164.6,65.2,163.7,65.2z"/>
		</g>
	</g>
</g>
</svg>
