<svg width="31" height="32" viewBox="0 0 31 32" fill="none" xmlns="http://www.w3.org/2000/svg">
<path d="M10.7669 10.4769C11.6248 10.0046 12.2682 9.40346 12.7401 8.63058C13.2119 7.85769 13.4264 6.91305 13.4264 5.88253C13.4264 4.76614 13.169 3.77856 12.6543 2.96274C12.1396 2.10397 11.3675 1.4599 10.4238 1.03052C9.48009 0.601135 8.32193 0.343506 7.03509 0.343506H0.214844V11.4645V15.0284H4.97615V11.4645H6.34878L8.66509 15.0284H13.7267L11.4103 11.4645L10.7669 10.4769ZM6.34878 8.80233C5.61957 8.97408 5.06194 8.84527 4.63299 8.5447C4.46141 8.41589 4.37562 8.24413 4.33273 7.9865C4.28984 7.72887 4.33273 7.34243 4.37563 6.61248C4.41852 5.75372 4.46141 5.19552 4.50431 5.02377C4.5901 4.80908 4.76168 4.63732 5.01905 4.46557C5.53378 4.12207 6.09141 3.99325 6.60615 4.12207C7.12088 4.25088 7.89299 4.55145 8.27904 5.10964C8.75088 5.88253 8.75088 6.65542 8.27904 7.51418C8.10746 7.85769 8.02167 8.07238 7.97878 8.15826C7.8072 8.45882 7.07799 8.63058 6.34878 8.80233Z" fill="black"/>
<path d="M26.3377 0.987579C25.1366 0.343506 23.764 0 22.2627 0C20.7613 0 19.3887 0.343506 18.1877 0.987579C16.9866 1.63165 16.0429 2.57629 15.3566 3.73562C14.6703 4.89495 14.3271 6.22604 14.3271 7.68594C14.3271 9.05996 14.6274 10.3052 15.2279 11.4216C15.2708 11.5074 15.3137 11.5504 15.3566 11.6362C16.0429 12.7956 16.9866 13.6973 18.1877 14.3843C19.3887 15.0284 20.7613 15.3719 22.2627 15.3719C23.764 15.3719 25.1366 15.0284 26.3377 14.3843C27.5387 13.7402 28.4824 12.7956 29.1687 11.6362C29.2116 11.5504 29.2545 11.5074 29.2974 11.4216C29.8979 10.3052 30.1982 9.05996 30.1982 7.68594C30.1982 6.22604 29.855 4.89495 29.1687 3.73562C28.4824 2.57629 27.5387 1.67459 26.3377 0.987579ZM22.2627 4.07913C22.8632 4.07913 23.4637 4.12207 23.8927 4.50851C24.9221 5.41021 25.5655 6.31191 25.5655 7.68594C25.5655 8.50176 25.1795 9.18877 24.7505 9.78991C24.1071 10.6487 23.2492 11.5074 22.2627 11.2927C21.3619 11.0781 20.6327 10.9063 20.0321 10.2622C19.3887 9.61816 19.0027 8.67351 19.0027 7.68594C18.9598 5.66784 20.3753 4.07913 22.2627 4.07913Z" fill="black"/>
<path d="M12.0105 17.0464C10.8095 16.4024 9.43682 16.0589 7.93551 16.0589C6.4342 16.0589 5.06157 16.4024 3.86052 17.0464C2.65947 17.6905 1.71579 18.6352 1.02947 19.7945C0.343157 20.9538 0 22.2849 0 23.7448C0 25.1188 0.300263 26.407 0.900788 27.5234C0.943683 27.6092 0.986577 27.6522 0.986577 27.7381C1.67289 28.8974 2.61657 29.7991 3.81762 30.4861C5.01867 31.1302 6.3913 31.4737 7.89262 31.4737C9.39393 31.4737 10.7666 31.1302 11.9676 30.4861C13.1687 29.842 14.1123 28.8974 14.7987 27.7381C14.8416 27.6951 14.8844 27.6092 14.8844 27.5234C15.485 26.407 15.7852 25.1618 15.7852 23.7448C15.7852 22.2849 15.4421 20.9538 14.7558 19.7945C14.1552 18.5922 13.2116 17.6905 12.0105 17.0464ZM5.6192 21.8985C6.34841 20.8679 7.16341 20.2668 8.10709 20.138C8.40735 20.138 9.00788 20.5244 9.95156 21.2115C10.8952 21.9414 10.981 22.3278 10.981 22.6284C11.3242 23.7019 10.7666 25.1618 9.69419 25.9776C8.27867 27.0081 7.07762 27.3516 5.79078 27.0081C5.01867 26.6217 4.58973 25.7629 4.58973 24.8612C4.58973 23.9166 4.93288 22.929 5.6192 21.8985Z" fill="black"/>
<path d="M23.6352 20.4386C23.9784 20.2239 24.2786 20.138 24.6647 20.138C24.7076 20.138 24.7505 20.138 24.7934 20.138H25.2652H29.6404V16.4024H18.2305V27.5234V31.0872H22.9918V27.5234H28.8683V23.7877C28.8683 23.7877 26.2518 23.7877 25.6512 23.7877C24.7076 23.8307 24.107 23.8307 23.8926 23.7877C23.6781 23.7448 23.4636 23.5731 23.2491 23.3154C22.8202 22.8431 22.6915 22.3708 22.8202 21.8555C22.8202 21.2973 23.0776 20.825 23.6352 20.4386Z" fill="black"/>
</svg>
