<?xml version="1.0" encoding="UTF-8"?><svg id="_ар_2" xmlns="http://www.w3.org/2000/svg" viewBox="0 0 162.03 88.36"><defs><style>.cls-1{fill:#fff;}</style></defs><g id="Layer_1"><g><g><path class="cls-1" d="M122.82,2.03v62.16l8.52,.74V2.51c0-.79-.6-1.44-1.39-1.51l-5.48-.48c-.89-.08-1.65,.62-1.65,1.51Z"/><path class="cls-1" d="M111.69,18.59c-2.23-2.05-4.94-3.08-8.11-3.08s-5.85,1.03-8.11,3.08c-2.23,2.08-3.35,4.57-3.35,7.45v61.58l8.52,.75v-15.88c.98,.87,2.57,1.31,4.77,1.31,6.34,0,9.57-3.24,9.68-9.7,0-.12,0-.24,0-.36V26.04c0-2.88-1.13-5.37-3.4-7.45Zm-5.27,45.6c0,.69-.27,1.29-.81,1.82-.57,.49-1.25,.74-2.03,.74s-1.44-.25-1.98-.74c-.57-.5-.86-1.1-.86-1.82V25.11c0-.71,.29-1.32,.86-1.81,.54-.49,1.2-.74,1.98-.74s1.45,.25,2.03,.74c.54,.49,.81,1.1,.81,1.81v39.08Z"/><path class="cls-1" d="M162.03,47.95V26.04c0-2.88-1.13-5.37-3.4-7.45-2.23-2.05-4.94-3.08-8.11-3.08s-5.85,1.03-8.11,3.08c-2.23,2.08-3.35,4.57-3.35,7.45V63.25c0,.93,.12,1.81,.35,2.66,.48,1.79,1.48,3.38,3,4.8,2.27,2.05,4.97,3.08,8.11,3.08s5.89-1.03,8.11-3.08c1.06-.97,1.87-2.03,2.43-3.18,.65-1.31,.97-2.74,.97-4.28v-10.84l-8.67-.76v12.7c0,.72-.27,1.32-.81,1.82-.56,.48-1.22,.73-1.97,.74h-.06c-.2,0-.38-.02-.56-.05h-.01c-.54-.1-1.01-.33-1.4-.7-.58-.5-.86-1.1-.86-1.82v-17.66l14.35,1.25Zm-14.35-22.84c0-.71,.28-1.32,.86-1.81,.54-.49,1.2-.74,1.97-.74s1.45,.25,2.03,.74c.54,.49,.81,1.1,.81,1.81v13.11l-5.68-.49v-12.61Z"/><path class="cls-1" d="M22.98,33.4l-14.32-1.25V9.64c.01-.74,.28-1.37,.82-1.86s1.2-.74,1.98-.74,1.45,.25,2.03,.74c.54,.49,.81,1.12,.81,1.86V28.17l8.67,.75V10.53c0-2.88-1.13-5.35-3.4-7.4C17.34,1.04,14.64,0,11.46,0S5.61,1.04,3.35,3.12C1.11,5.17,0,7.64,0,10.53v29.83l14.3,1.25v22.58c0,.72-.27,1.32-.81,1.82-.57,.49-1.25,.74-2.03,.74s-1.44-.25-1.98-.74c-.54-.5-.81-1.1-.81-1.82v-18.57l-8.67-.76v19.42c.27,2.67,1.5,4.92,3.7,6.75,2.2,1.83,4.78,2.75,7.76,2.75s5.61-.92,7.81-2.75c2.2-1.83,3.43-4.1,3.7-6.8v-30.84Z"/><g><polygon class="cls-1" points="38.2 39.79 39.33 39.89 39.33 47.28 30.81 46.55 30.81 39.16 31.85 39.25 38.2 39.79"/><polygon class="cls-1" points="55.69 47.67 55.7 48.64 47.09 47.92 47.09 40.52 48.35 40.63 54.4 41.14 55.67 41.24 55.68 42.42 55.68 43.35 55.69 45.05 55.69 45.98 55.69 47.67"/><polygon class="cls-1" points="68.85 42.35 70.13 42.45 70.12 43.67 70.12 44.6 70.11 46.3 70.1 47.23 70.09 48.92 70.09 49.84 61.39 49.11 61.39 41.72 62.66 41.83 68.85 42.35"/><polygon class="cls-1" points="84.42 43.65 84.42 51.04 75.83 50.32 75.86 42.94 77.13 43.04 83.15 43.54 84.42 43.65"/><polygon class="cls-1" points="38.2 30.29 39.33 30.39 39.33 37.78 30.81 37.05 30.81 29.65 31.85 29.75 38.2 30.29"/><polygon class="cls-1" points="55.66 37.17 55.67 38.1 55.67 39.14 47.09 38.42 47.09 31.02 48.35 31.13 54.38 31.63 55.65 31.74 55.65 31.91 55.65 32.85 55.66 34.54 55.66 35.48 55.66 37.17"/><polygon class="cls-1" points="68.91 32.85 70.17 32.96 70.17 33.17 70.17 34.11 70.16 35.8 70.15 36.73 70.14 38.42 70.14 39.35 70.14 40.35 61.39 39.62 61.39 32.22 62.66 32.33 68.91 32.85"/><polygon class="cls-1" points="84.42 34.23 84.42 41.54 75.77 40.83 75.77 33.48 84.42 34.23"/><polygon class="cls-1" points="39.33 21.16 39.33 28.28 30.81 27.55 30.81 20.43 39.33 21.16"/><path class="cls-1" d="M71.73,23.84c-.1,.04-1.59,.39-1.66,1.47-.03,.4-.01,5.62-.01,5.62l-8.67-.76v-3.88s.05-2.92-2.87-2.92c-.97,0-1.61,.32-2.04,.74-.27,.27-.45,.58-.58,.88-.25,.6-.26,1.17-.26,1.31v1.29l.07,2.09-8.62-.74v-7.17l24.64,2.06Z"/><path class="cls-1" d="M84.42,32.16l-8.65-.84-.02-5.08c0-.42,.27-1.31-1.08-2.16l9.75,.83v7.25Z"/><path class="cls-1" d="M39.27,15.69c.04,.11,.06,.22,.06,.35v3.02l-1.13-.1-6.35-.54-1.05-.1v-2.9c0-.32,.05-.63,.28-.85,.21-.19,.48-.3,.76-.3,.04,0,.07,0,.1,0l6.35,.6c.3,.03,.56,.18,.75,.39,.1,.12,.17,.25,.21,.4h0Z"/><path class="cls-1" d="M84.41,22.78l-1.69-.11-34.36-2.87-1.27-.11v-2.33c0-.89,.77-1.59,1.66-1.51l7.11,.66c.25,.03,.48,.12,.66,.26,.12,.1,.22,.21,.3,.33h.03c.13-.07,.24-.13,.29-.16h.03c1.53-.84,3.25-1.26,5.09-1.26,2.43,0,4.38,.7,5.81,2.08,.19,.19,.38,.39,.55,.6l.02-.02c.15-.15,.31-.3,.48-.45,1.62-1.46,3.82-2.2,6.52-2.2,3.12,0,7.15,1.17,8.59,6.06,.09,.3,.18,1,.18,1.03Z"/><polygon class="cls-1" points="47.09 50.03 47.07 57.58 55.72 58.32 55.7 50.75 47.09 50.03"/><polygon class="cls-1" points="61.38 51.25 61.37 58.8 70.07 59.54 70.05 51.97 61.38 51.25"/><polygon class="cls-1" points="75.76 52.48 75.74 60.08 84.44 60.82 84.43 53.2 75.76 52.48"/><polyline class="cls-1" points="30.81 48.66 30.81 56.19 39.33 56.92 39.33 49.38 30.81 48.66"/></g><path class="cls-1" d="M32.45,1.71l5.5,.48c.78,.07,1.39,.73,1.39,1.51v5.16c0,.89-.76,1.59-1.65,1.51l-5.49-.48c-.78-.07-1.39-.72-1.39-1.51V3.23c0-.89,.76-1.59,1.64-1.51Z"/></g><g><path class="cls-1" d="M50.1,66.95c0-.19-.06-.34-.19-.46-.12-.12-.3-.19-.53-.21s-.43,0-.57,.09c-.15,.09-.22,.22-.22,.4l-1.44-.13c0-.49,.2-.87,.61-1.14,.4-.27,.92-.37,1.55-.31,.69,.06,1.24,.25,1.63,.56,.4,.31,.59,.72,.59,1.22,0,.24-.07,.45-.22,.64-.14,.19-.35,.33-.61,.42,.61,.27,.92,.72,.92,1.34,0,.5-.21,.87-.63,1.13-.42,.26-.99,.35-1.69,.29-.65-.06-1.19-.26-1.61-.61-.42-.35-.63-.78-.63-1.3l1.44,.13c0,.18,.08,.34,.24,.47,.16,.13,.37,.21,.64,.23s.45-.02,.6-.12c.14-.11,.21-.26,.21-.45,0-.24-.07-.41-.2-.53-.14-.11-.34-.18-.61-.21l-.78-.07v-.94l.83,.08c.45,.03,.67-.14,.67-.52Z"/><path class="cls-1" d="M52.5,64.19c0-.22,.07-.39,.22-.51,.14-.13,.34-.18,.59-.15s.44,.11,.59,.26c.15,.15,.22,.34,.22,.55s-.07,.39-.22,.52c-.15,.13-.34,.18-.58,.15s-.44-.11-.58-.26c-.15-.15-.22-.34-.22-.56Zm1.53,6.94l-1.44-.13v-5.4l1.44,.14v5.4Z"/><path class="cls-1" d="M61.02,70.08l1.41-3.56,1.8,.17v5.39l-1.44-.13v-3.31l-1.29,3.19-.96-.09-1.26-3.37v3.26l-1.44-.13v-5.4l1.79,.17,1.4,3.83Z"/><path class="cls-1" d="M70.14,72.63l-1.44-.13v-2.07l-1.79-.17v2.07l-1.44-.13v-5.39l1.44,.13v2.16l1.79,.17v-2.16l1.44,.14v5.39Z"/><path class="cls-1" d="M71.03,69.97c0-.53,.1-1,.31-1.4,.21-.4,.5-.7,.89-.89,.39-.19,.83-.27,1.35-.22,.73,.07,1.32,.35,1.78,.83,.46,.49,.72,1.12,.77,1.88v.37c0,.83-.22,1.47-.68,1.92-.46,.46-1.08,.65-1.85,.58s-1.4-.38-1.86-.92c-.46-.54-.69-1.24-.69-2.1v-.06Zm1.44,.24c0,.51,.1,.91,.29,1.2,.19,.29,.47,.45,.83,.48s.62-.08,.82-.33c.2-.25,.29-.67,.29-1.26,0-.5-.1-.9-.29-1.19-.2-.29-.47-.46-.83-.49s-.62,.08-.82,.34c-.19,.26-.29,.67-.29,1.25Z"/><path class="cls-1" d="M78.57,70.09l.78,.07c.11-.66,.38-1.16,.82-1.51,.44-.35,1-.49,1.67-.42,.73,.07,1.32,.35,1.78,.83,.46,.49,.72,1.11,.77,1.88v.37c0,.82-.22,1.47-.68,1.92-.46,.46-1.08,.65-1.86,.58-.7-.07-1.27-.32-1.72-.77-.45-.45-.71-1.02-.8-1.73l-.76-.07v2.16l-1.44-.13v-5.39l1.44,.14v2.07Zm2.17,.88c0,.51,.1,.91,.29,1.2,.19,.29,.47,.45,.83,.48s.63-.08,.82-.33c.19-.25,.29-.67,.29-1.25,0-.5-.1-.9-.29-1.19-.2-.29-.47-.46-.83-.49s-.62,.08-.82,.33c-.19,.26-.29,.67-.29,1.25Z"/><path class="cls-1" d="M56.57,80.4l-1.44-.13v-4.24l-1.8-.17v4.24l-1.44-.13v-5.4l4.68,.43v5.4Z"/><path class="cls-1" d="M62.51,78.3c0,.83-.19,1.48-.56,1.94-.38,.47-.88,.67-1.52,.61-.54-.05-.98-.28-1.32-.69v2.54l-1.44-.13v-7.47l1.33,.12,.05,.53c.35-.39,.8-.55,1.36-.5,.66,.06,1.18,.36,1.55,.88,.37,.53,.55,1.22,.55,2.09v.08Zm-1.44-.24c0-.5-.09-.9-.27-1.19-.18-.29-.44-.45-.77-.48-.45-.04-.76,.1-.93,.43v2.21c.18,.37,.49,.58,.94,.62,.69,.06,1.03-.47,1.03-1.59Z"/><path class="cls-1" d="M63.18,78.26c0-.54,.1-1,.31-1.4,.21-.4,.5-.7,.89-.89,.39-.19,.83-.27,1.35-.22,.73,.07,1.32,.35,1.78,.83,.46,.49,.72,1.12,.77,1.88v.37c0,.83-.22,1.47-.68,1.93-.46,.46-1.08,.65-1.85,.58s-1.4-.38-1.86-.92c-.46-.54-.69-1.24-.69-2.1v-.06Zm1.44,.23c0,.51,.1,.91,.29,1.2,.19,.29,.47,.45,.83,.48s.62-.08,.82-.33c.2-.25,.29-.67,.29-1.26,0-.5-.1-.9-.29-1.19-.2-.29-.47-.46-.83-.49s-.62,.08-.82,.34c-.19,.26-.29,.67-.29,1.25Z"/><path class="cls-1" d="M71.4,80.7c.27,.02,.48-.03,.65-.16,.17-.13,.25-.32,.26-.56l1.35,.12c0,.36-.1,.69-.3,.98-.2,.28-.46,.5-.8,.63-.34,.14-.72,.19-1.13,.15-.77-.07-1.38-.37-1.82-.9-.44-.53-.67-1.23-.67-2.09v-.09c0-.83,.22-1.47,.66-1.93,.44-.45,1.05-.65,1.82-.57,.67,.06,1.21,.3,1.62,.72,.41,.42,.61,.95,.62,1.59l-1.35-.12c0-.28-.09-.51-.26-.7-.17-.19-.38-.3-.66-.32-.33-.03-.59,.07-.76,.3-.17,.23-.26,.62-.26,1.17v.15c0,.56,.08,.96,.25,1.22,.17,.26,.43,.4,.77,.44Z"/><path class="cls-1" d="M78.94,78.23l-1.73-.16v4.23l-1.44-.13v-4.23l-1.7-.16v-1.16l4.86,.45v1.16Z"/><path class="cls-1" d="M79.3,79.75c0-.53,.1-1,.31-1.4,.21-.4,.5-.7,.89-.89,.39-.19,.83-.27,1.35-.22,.73,.07,1.32,.34,1.78,.83,.46,.49,.72,1.11,.77,1.88v.37c0,.82-.22,1.47-.68,1.92-.46,.46-1.08,.65-1.85,.58s-1.4-.38-1.86-.92c-.46-.54-.69-1.24-.69-2.09v-.06Zm1.44,.23c0,.51,.1,.91,.29,1.2,.19,.29,.47,.45,.83,.48s.62-.08,.82-.33c.2-.25,.29-.67,.29-1.26,0-.5-.1-.9-.29-1.19-.2-.29-.47-.46-.83-.49s-.62,.08-.82,.34c-.19,.26-.29,.67-.29,1.25Z"/></g></g></g></svg>