<svg width="52" height="52" viewBox="0 0 52 52" fill="none" xmlns="http://www.w3.org/2000/svg">
<path d="M32.876 34.3299C34.225 34.9154 35.4884 35.6535 36.6486 36.541C38.1759 34.9825 39.3082 33.1624 40.0002 31.1879H34.0013C33.7217 32.2565 33.3478 33.3049 32.876 34.3299Z" fill="black"/>
<path d="M26.3369 34.4205V40.1427C28.0389 38.7503 29.4753 37.066 30.5639 35.1872C29.1852 34.7493 27.7698 34.4927 26.3369 34.4205Z" fill="black"/>
<path d="M27.8594 40.9983C30.65 40.5839 33.2589 39.4331 35.4204 37.6599C34.4069 36.9084 33.3095 36.2743 32.1405 35.771C31.0327 37.7337 29.5806 39.5052 27.8594 40.9966V40.9983Z" fill="black"/>
<path d="M31.6888 16.4338C32.7774 16.0043 33.8049 15.4658 34.7625 14.83C32.7407 13.3488 30.3677 12.3775 27.8672 12C29.363 13.2934 30.6578 14.7948 31.6888 16.4338Z" fill="black"/>
<path d="M26.3369 32.8117C28.0284 32.8889 29.6989 33.1993 31.3205 33.7361C31.7067 32.9023 32.023 32.0518 32.2711 31.1879H26.3369V32.8117Z" fill="black"/>
<path d="M30.9198 18.4115C29.417 18.8728 27.8811 19.1396 26.3398 19.2117V21.8119H32.2793C31.9473 20.6393 31.4947 19.4986 30.9216 18.4115H30.9198Z" fill="black"/>
<path d="M36.0756 15.9087C34.9694 16.6837 33.769 17.3329 32.4951 17.8496C33.1469 19.1145 33.6519 20.4448 34.0049 21.812H39.9898C39.2052 19.5943 37.8736 17.5628 36.0756 15.9087Z" fill="black"/>
<path d="M26.3369 12.8489V17.6014C27.5916 17.5377 28.8427 17.328 30.0729 16.9774C29.0611 15.4374 27.7943 14.0383 26.3369 12.8489Z" fill="black"/>
<path d="M14.3533 36.5394C15.5118 35.6536 16.7769 34.9138 18.1259 34.3283C17.6541 33.3034 17.2802 32.2532 17.0006 31.1863H11C11.692 33.1608 12.8243 34.9809 14.3533 36.5394Z" fill="black"/>
<path d="M18.5073 17.8496C17.2335 17.3329 16.0347 16.6837 14.9269 15.9087C13.1288 17.5628 11.7973 19.5926 11.0127 21.812H16.9976C17.3505 20.4448 17.8555 19.1162 18.5073 17.8496Z" fill="black"/>
<path d="M24.6647 17.6014V12.8489C23.2073 14.0383 21.9405 15.4374 20.9287 16.9774C22.1589 17.328 23.41 17.5377 24.6647 17.6014Z" fill="black"/>
<path d="M24.6653 40.1444V34.4205C23.2324 34.4927 21.817 34.7493 20.4365 35.1872C21.5269 37.0677 22.9633 38.752 24.6653 40.1444Z" fill="black"/>
<path d="M19.6791 33.7361C21.3007 33.1993 22.9712 32.8889 24.6627 32.8117V31.1879H18.7285C18.9766 32.0518 19.2929 32.9023 19.6791 33.7361Z" fill="black"/>
<path d="M18.8609 35.7727C17.6919 36.276 16.5946 36.9084 15.5811 37.6616C17.7426 39.4348 20.3515 40.5856 23.1421 41C21.4209 39.5086 19.9671 37.7371 18.8609 35.7744V35.7727Z" fill="black"/>
<path d="M24.665 19.2117C23.1221 19.1412 21.5878 18.8728 20.0833 18.4115C19.5102 19.4986 19.0558 20.6393 18.7256 21.8119H24.665V19.2117Z" fill="black"/>
<path d="M23.1365 12C20.6359 12.3775 18.263 13.3488 16.2412 14.83C17.197 15.4658 18.2245 16.0043 19.3149 16.4338C20.3476 14.7931 21.6425 13.2917 23.1365 12Z" fill="black"/>
<path d="M15.1281 28.6917L13.7197 24.4677H15.247L16.3845 28.0341H15.6174L16.8249 24.4677H18.1896L19.3149 28.0341H18.5793L19.7675 24.4677H21.1759L19.7675 28.6917H18.1774L17.26 25.7711H17.6881L16.72 28.6917H15.1299H15.1281Z" fill="black"/>
<path d="M23.0246 28.6917L21.6162 24.4677H23.1434L24.281 28.0341H23.5139L24.7214 24.4677H26.0861L27.2114 28.0341H26.4758L27.664 24.4677H29.0724L27.664 28.6917H26.0739L25.1565 25.7711H25.5846L24.6165 28.6917H23.0264H23.0246Z" fill="black"/>
<path d="M30.9211 28.6917L29.5127 24.4677H31.0399L32.1775 28.0341H31.4104L32.6178 24.4677H33.9826L35.1079 28.0341H34.3722L35.5605 24.4677H36.9689L35.5605 28.6917H33.9703L33.0529 25.7711H33.4811L32.513 28.6917H30.9229H30.9211Z" fill="black"/>
<path d="M51 26C51 12.1929 39.8071 1 26 1C12.1929 1 1 12.1929 1 26C1 39.8071 12.1929 51 26 51C39.8071 51 51 39.8071 51 26Z" stroke="#222221" stroke-width="1.5" stroke-miterlimit="10"/>
</svg>
