<svg width="51" height="51" viewBox="0 0 51 51" fill="none" xmlns="http://www.w3.org/2000/svg">
<path d="M50 25.5C50 11.969 39.031 1 25.5 1C11.969 1 1 11.969 1 25.5C1 39.031 11.969 50 25.5 50C39.031 50 50 39.031 50 25.5Z" stroke="#222221" stroke-width="2" stroke-miterlimit="10"/>
<path d="M35.5413 14.2128C31.7156 15.8002 15.3091 22.6035 10.7767 24.4575C7.73711 25.6448 9.5168 26.7578 9.5168 26.7578C9.5168 26.7578 12.1108 27.6502 14.3361 28.3169C16.5613 28.9862 17.7469 28.2425 17.7469 28.2425L28.1997 21.1879C31.9076 18.6646 31.0165 20.7417 30.1279 21.6341C28.1997 23.5651 25.0116 26.609 22.3434 29.058C21.1578 30.0966 21.7493 30.989 22.2691 31.4326C24.1973 33.0661 29.4621 36.4075 29.7566 36.6306C31.3238 37.741 34.4043 39.3386 34.8729 35.9613L36.7269 24.3036C37.321 20.3699 37.9125 16.731 37.9867 15.6925C38.2095 13.1666 35.5413 14.2077 35.5413 14.2077V14.2128Z" fill="black"/>
</svg>
